<svg xmlns="http://www.w3.org/2000/svg" xmlns:xlink="http://www.w3.org/1999/xlink" viewBox="0 0 9500 21120"><defs><g id="E050"><path transform="scale(1,-1)" d="M441 -245c-23 -4 -48 -6 -76 -6c-59 0 -102 7 -130 20c-88 42 -150 93 -187 154c-26 44 -43 103 -48 176c0 6 -1 13 -1 19c0 54 15 111 45 170c29 57 65 106 110 148s96 85 153 127c-3 16 -8 46 -13 92c-4 43 -5 73 -5 89c0 117 16 172 69 257c34 54 64 82 89 82 c21 0 43 -30 69 -92s39 -115 41 -159v-15c0 -109 -21 -162 -67 -241c-13 -20 -63 -90 -98 -118c-13 -9 -25 -19 -37 -29l31 -181c8 1 18 2 28 2c58 0 102 -12 133 -35c59 -43 92 -104 98 -184c1 -7 1 -15 1 -22c0 -123 -87 -209 -181 -248c8 -57 17 -110 25 -162 c5 -31 6 -58 6 -80c0 -30 -5 -53 -14 -70c-35 -64 -88 -99 -158 -103c-5 0 -11 -1 -16 -1c-37 0 -72 10 -108 27c-50 24 -77 59 -80 105v11c0 29 7 55 20 76c18 28 45 42 79 44h6c49 0 93 -42 97 -87v-9c0 -51 -34 -86 -105 -106c17 -24 51 -36 102 -36c62 0 116 43 140 85 c9 16 13 41 13 74c0 20 -1 42 -5 67c-8 53 -18 106 -26 159zM461 939c-95 0 -135 -175 -135 -286c0 -24 2 -48 5 -71c50 39 92 82 127 128c40 53 60 100 60 140v8c-4 53 -22 81 -55 81h-2zM406 119l54 -326c73 25 110 78 110 161c0 7 0 15 -1 23c-7 95 -57 142 -151 142h-12 zM382 117c-72 -2 -128 -47 -128 -120v-7c2 -46 43 -99 75 -115c-3 -2 -7 -5 -10 -10c-70 33 -116 88 -123 172v11c0 68 44 126 88 159c23 17 49 29 78 36l-29 170c-21 -13 -52 -37 -92 -73c-50 -44 -86 -84 -109 -119c-45 -69 -67 -130 -67 -182v-13c5 -68 35 -127 93 -176 s125 -73 203 -73c25 0 50 3 75 9c-19 111 -36 221 -54 331z" /></g><g id="E260"><path transform="scale(1,-1)" d="M20 110c32 16 54 27 93 27c26 0 35 -3 54 -13c13 -7 24 -20 27 -38l4 -25c0 -28 -16 -57 -45 -89c-23 -25 -39 -44 -65 -68l-88 -79v644h20v-359zM90 106c-32 0 -48 -10 -70 -29v-194c31 31 54 59 71 84c21 32 32 59 32 84c0 9 1 16 1 20c0 14 -3 21 -11 30l-8 3z" /></g><g id="E0A3"><path transform="scale(1,-1)" d="M278 64c0 22 -17 39 -43 39c-12 0 -26 -3 -41 -10c-85 -43 -165 -94 -165 -156c5 -25 15 -32 49 -32c67 11 200 95 200 159zM0 -36c0 68 73 174 200 174c66 0 114 -39 114 -97c0 -84 -106 -173 -218 -173c-64 0 -96 32 -96 96z" /></g><g id="E0A4"><path transform="scale(1,-1)" d="M0 -39c0 68 73 172 200 172c66 0 114 -37 114 -95c0 -84 -106 -171 -218 -171c-64 0 -96 30 -96 94z" /></g><g id="E240"><path transform="scale(1,-1)" d="M179 -646c15 29 29 55 46 102c18 49 30 108 30 138c0 105 -80 173 -168 200c-18 5 -47 9 -87 16v190h22c8 0 33 -61 71 -95c4 -3 -2 3 61 -56c62 -58 122 -137 122 -241c0 -38 -13 -106 -35 -163c-20 -51 -43 -99 -66 -132c-6 -5 -10 -7 -13 -7s-5 2 -5 5l4 10 c1 3 14 25 18 33z" /></g><g id="E241"><path transform="scale(1,-1)" d="M179 646c-4 8 -17 30 -18 33l-4 10c0 3 2 5 5 5s7 -2 13 -7c23 -33 46 -81 66 -132c22 -57 35 -125 35 -163c0 -104 -60 -183 -122 -241c-63 -59 -57 -53 -61 -56c-38 -34 -63 -95 -71 -95h-22v190c40 7 69 11 87 16c88 27 168 95 168 200c0 30 -12 89 -30 138 c-17 47 -31 73 -46 102z" /></g></defs><g transform="translate(100, 300)"><path d="M0 540 L2545 540" stroke-width="13" stroke="#000" /><path d="M0 720 L2545 720" stroke-width="13" stroke="#000" /><path d="M0 900 L2545 900" stroke-width="13" stroke="#000" /><path d="M0 1080 L2545 1080" stroke-width="13" stroke="#000" /><path d="M0 1260 L2545 1260" stroke-width="13" stroke="#000" /><use transform="translate(90, 1080) scale(0.72, 0.72)" xlink:href="#E050" /><use transform="translate(735, 900) scale(0.72, 0.72)" xlink:href="#E260" /><use transform="translate(915, 630) scale(0.72, 0.72)" xlink:href="#E260" /><path d="M1306 1440 L1628 1440" stroke-width="22" stroke="#000" /><use transform="translate(1354, 1440) scale(0.72, 0.72)" xlink:href="#E0A3" /><path d="M1571 1412 L1571 810" stroke-width="18" stroke="#000" /><path d="M2545 540 L4390 540" stroke-width="13" stroke="#000" /><path d="M2545 720 L4390 720" stroke-width="13" stroke="#000" /><path d="M2545 900 L4390 900" stroke-width="13" stroke="#000" /><path d="M2545 1080 L4390 1080" stroke-width="13" stroke="#000" /><path d="M2545 1260 L4390 1260" stroke-width="13" stroke="#000" /><use transform="translate(2752, 1260) scale(0.72, 0.72)" xlink:href="#E0A4" /><path d="M2969 1232 L2969 630" stroke-width="18" stroke="#000" /><use transform="translate(3571, 1170) scale(0.72, 0.72)" xlink:href="#E0A4" /><path d="M3788 1142 L3788 540" stroke-width="18" stroke="#000" /><path d="M4390 540 L6235 540" stroke-width="13" stroke="#000" /><path d="M4390 720 L6235 720" stroke-width="13" stroke="#000" /><path d="M4390 900 L6235 900" stroke-width="13" stroke="#000" /><path d="M4390 1080 L6235 1080" stroke-width="13" stroke="#000" /><path d="M4390 1260 L6235 1260" stroke-width="13" stroke="#000" /><use transform="translate(4597, 1080) scale(0.72, 0.72)" xlink:href="#E0A4" /><path d="M4814 1052 L4814 450" stroke-width="18" stroke="#000" /><use transform="translate(5416, 1170) scale(0.72, 0.72)" xlink:href="#E0A4" /><path d="M5633 1142 L5633 540" stroke-width="18" stroke="#000" /><path d="M6235 540 L8080 540" stroke-width="13" stroke="#000" /><path d="M6235 720 L8080 720" stroke-width="13" stroke="#000" /><path d="M6235 900 L8080 900" stroke-width="13" stroke="#000" /><path d="M6235 1080 L8080 1080" stroke-width="13" stroke="#000" /><path d="M6235 1260 L8080 1260" stroke-width="13" stroke="#000" /><use transform="translate(6442, 900) scale(0.72, 0.72)" xlink:href="#E0A4" /><path d="M6451 928 L6451 1500" stroke-width="18" stroke="#000" /><use transform="translate(7261, 990) scale(0.72, 0.72)" xlink:href="#E0A4" /><path d="M7478 962 L7478 360" stroke-width="18" stroke="#000" /><path d="M8080 540 L9302 540" stroke-width="13" stroke="#000" /><path d="M8080 720 L9302 720" stroke-width="13" stroke="#000" /><path d="M8080 900 L9302 900" stroke-width="13" stroke="#000" /><path d="M8080 1080 L9302 1080" stroke-width="13" stroke="#000" /><path d="M8080 1260 L9302 1260" stroke-width="13" stroke="#000" /><use transform="translate(8287, 1080) scale(0.72, 0.72)" xlink:href="#E0A4" /><ellipse cx="8603" cy="990" rx="36" ry="36" /><path d="M8504 1052 L8504 450" stroke-width="18" stroke="#000" /><path d="M0 2880 L3093 2880" stroke-width="13" stroke="#000" /><path d="M0 3060 L3093 3060" stroke-width="13" stroke="#000" /><path d="M0 3240 L3093 3240" stroke-width="13" stroke="#000" /><path d="M0 3420 L3093 3420" stroke-width="13" stroke="#000" /><path d="M0 3600 L3093 3600" stroke-width="13" stroke="#000" /><use transform="translate(90, 3420) scale(0.72, 0.72)" xlink:href="#E050" /><use transform="translate(735, 3240) scale(0.72, 0.72)" xlink:href="#E260" /><use transform="translate(915, 2970) scale(0.72, 0.72)" xlink:href="#E260" /><use transform="translate(1345, 3420) scale(0.72, 0.72)" xlink:href="#E0A4" /><path d="M1562 3392 L1562 2790" stroke-width="18" stroke="#000" /><use transform="translate(1553, 2790) scale(0.72, 0.72)" xlink:href="#E240" /><use transform="translate(1957, 3240) scale(0.72, 0.72)" xlink:href="#E0A4" /><ellipse cx="2273" cy="3150" rx="36" ry="36" /><path d="M1966 3268 L1966 3840" stroke-width="18" stroke="#000" /><path d="M3093 2880 L5738 2880" stroke-width="13" stroke="#000" /><path d="M3093 3060 L5738 3060" stroke-width="13" stroke="#000" /><path d="M3093 3240 L5738 3240" stroke-width="13" stroke="#000" /><path d="M3093 3420 L5738 3420" stroke-width="13" stroke="#000" /><path d="M3093 3600 L5738 3600" stroke-width="13" stroke="#000" /><use transform="translate(3291, 3330) scale(0.72, 0.72)" xlink:href="#E0A4" /><path d="M3508 3302 L3508 2700" stroke-width="18" stroke="#000" /><use transform="translate(3499, 2700) scale(0.72, 0.72)" xlink:href="#E240" /><use transform="translate(3903, 3420) scale(0.72, 0.72)" xlink:href="#E0A4" /><path d="M4120 3392 L4120 2790" stroke-width="18" stroke="#000" /><use transform="translate(4820, 3510) scale(0.72, 0.72)" xlink:href="#E0A4" /><path d="M5037 3482 L5037 2880" stroke-width="18" stroke="#000" /><path d="M5738 2880 L7771 2880" stroke-width="13" stroke="#000" /><path d="M5738 3060 L7771 3060" stroke-width="13" stroke="#000" /><path d="M5738 3240 L7771 3240" stroke-width="13" stroke="#000" /><path d="M5738 3420 L7771 3420" stroke-width="13" stroke="#000" /><path d="M5738 3600 L7771 3600" stroke-width="13" stroke="#000" /><use transform="translate(5936, 3600) scale(0.72, 0.72)" xlink:href="#E0A4" /><path d="M6153 3572 L6153 2970" stroke-width="18" stroke="#000" /><use transform="translate(6854, 3690) scale(0.72, 0.72)" xlink:href="#E0A4" /><path d="M7071 3662 L7071 3060" stroke-width="18" stroke="#000" /><path d="M7771 2880 L9302 2880" stroke-width="13" stroke="#000" /><path d="M7771 3060 L9302 3060" stroke-width="13" stroke="#000" /><path d="M7771 3240 L9302 3240" stroke-width="13" stroke="#000" /><path d="M7771 3420 L9302 3420" stroke-width="13" stroke="#000" /><path d="M7771 3600 L9302 3600" stroke-width="13" stroke="#000" /><path d="M7921 3780 L8243 3780" stroke-width="22" stroke="#000" /><use transform="translate(7969, 3780) scale(0.72, 0.72)" xlink:href="#E0A3" /><path d="M8186 3752 L8186 3150" stroke-width="18" stroke="#000" /><path d="M0 5220 L2541 5220" stroke-width="13" stroke="#000" /><path d="M0 5400 L2541 5400" stroke-width="13" stroke="#000" /><path d="M0 5580 L2541 5580" stroke-width="13" stroke="#000" /><path d="M0 5760 L2541 5760" stroke-width="13" stroke="#000" /><path d="M0 5940 L2541 5940" stroke-width="13" stroke="#000" /><use transform="translate(90, 5760) scale(0.72, 0.72)" xlink:href="#E050" /><use transform="translate(735, 5580) scale(0.72, 0.72)" xlink:href="#E260" /><use transform="translate(915, 5310) scale(0.72, 0.72)" xlink:href="#E260" /><path d="M1283 6120 L1605 6120" stroke-width="22" stroke="#000" /><use transform="translate(1331, 6120) scale(0.72, 0.72)" xlink:href="#E0A3" /><path d="M1548 6092 L1548 5490" stroke-width="18" stroke="#000" /><path d="M2541 5220 L4390 5220" stroke-width="13" stroke="#000" /><path d="M2541 5400 L4390 5400" stroke-width="13" stroke="#000" /><path d="M2541 5580 L4390 5580" stroke-width="13" stroke="#000" /><path d="M2541 5760 L4390 5760" stroke-width="13" stroke="#000" /><path d="M2541 5940 L4390 5940" stroke-width="13" stroke="#000" /><use transform="translate(2725, 5940) scale(0.72, 0.72)" xlink:href="#E0A4" /><path d="M2942 5912 L2942 5310" stroke-width="18" stroke="#000" /><use transform="translate(3558, 5850) scale(0.72, 0.72)" xlink:href="#E0A4" /><path d="M3775 5822 L3775 5220" stroke-width="18" stroke="#000" /><path d="M4390 5220 L6239 5220" stroke-width="13" stroke="#000" /><path d="M4390 5400 L6239 5400" stroke-width="13" stroke="#000" /><path d="M4390 5580 L6239 5580" stroke-width="13" stroke="#000" /><path d="M4390 5760 L6239 5760" stroke-width="13" stroke="#000" /><path d="M4390 5940 L6239 5940" stroke-width="13" stroke="#000" /><use transform="translate(4574, 5760) scale(0.72, 0.72)" xlink:href="#E0A4" /><path d="M4791 5732 L4791 5130" stroke-width="18" stroke="#000" /><use transform="translate(5407, 5850) scale(0.72, 0.72)" xlink:href="#E0A4" /><path d="M5624 5822 L5624 5220" stroke-width="18" stroke="#000" /><path d="M6239 5220 L8088 5220" stroke-width="13" stroke="#000" /><path d="M6239 5400 L8088 5400" stroke-width="13" stroke="#000" /><path d="M6239 5580 L8088 5580" stroke-width="13" stroke="#000" /><path d="M6239 5760 L8088 5760" stroke-width="13" stroke="#000" /><path d="M6239 5940 L8088 5940" stroke-width="13" stroke="#000" /><use transform="translate(6423, 5580) scale(0.72, 0.72)" xlink:href="#E0A4" /><path d="M6432 5608 L6432 6180" stroke-width="18" stroke="#000" /><use transform="translate(7256, 5670) scale(0.72, 0.72)" xlink:href="#E0A4" /><path d="M7473 5642 L7473 5040" stroke-width="18" stroke="#000" /><path d="M8088 5220 L9303 5220" stroke-width="13" stroke="#000" /><path d="M8088 5400 L9303 5400" stroke-width="13" stroke="#000" /><path d="M8088 5580 L9303 5580" stroke-width="13" stroke="#000" /><path d="M8088 5760 L9303 5760" stroke-width="13" stroke="#000" /><path d="M8088 5940 L9303 5940" stroke-width="13" stroke="#000" /><use transform="translate(8272, 5760) scale(0.72, 0.72)" xlink:href="#E0A4" /><ellipse cx="8588" cy="5670" rx="36" ry="36" /><path d="M8489 5732 L8489 5130" stroke-width="18" stroke="#000" /><path d="M0 7560 L3141 7560" stroke-width="13" stroke="#000" /><path d="M0 7740 L3141 7740" stroke-width="13" stroke="#000" /><path d="M0 7920 L3141 7920" stroke-width="13" stroke="#000" /><path d="M0 8100 L3141 8100" stroke-width="13" stroke="#000" /><path d="M0 8280 L3141 8280" stroke-width="13" stroke="#000" /><use transform="translate(90, 8100) scale(0.72, 0.72)" xlink:href="#E050" /><use transform="translate(735, 7920) scale(0.72, 0.72)" xlink:href="#E260" /><use transform="translate(915, 7650) scale(0.72, 0.72)" xlink:href="#E260" /><use transform="translate(1346, 8100) scale(0.72, 0.72)" xlink:href="#E0A4" /><path d="M1563 8072 L1563 7470" stroke-width="18" stroke="#000" /><use transform="translate(1554, 7470) scale(0.72, 0.72)" xlink:href="#E240" /><use transform="translate(1974, 7920) scale(0.72, 0.72)" xlink:href="#E0A4" /><ellipse cx="2290" cy="7830" rx="36" ry="36" /><path d="M1983 7948 L1983 8520" stroke-width="18" stroke="#000" /><path d="M3141 7560 L5852 7560" stroke-width="13" stroke="#000" /><path d="M3141 7740 L5852 7740" stroke-width="13" stroke="#000" /><path d="M3141 7920 L5852 7920" stroke-width="13" stroke="#000" /><path d="M3141 8100 L5852 8100" stroke-width="13" stroke="#000" /><path d="M3141 8280 L5852 8280" stroke-width="13" stroke="#000" /><use transform="translate(3340, 8010) scale(0.72, 0.72)" xlink:href="#E0A4" /><path d="M3557 7982 L3557 7380" stroke-width="18" stroke="#000" /><use transform="translate(3548, 7380) scale(0.72, 0.72)" xlink:href="#E240" /><use transform="translate(3968, 8100) scale(0.72, 0.72)" xlink:href="#E0A4" /><path d="M4185 8072 L4185 7470" stroke-width="18" stroke="#000" /><use transform="translate(4910, 8190) scale(0.72, 0.72)" xlink:href="#E0A4" /><path d="M5127 8162 L5127 7560" stroke-width="18" stroke="#000" /><path d="M5852 7560 L7935 7560" stroke-width="13" stroke="#000" /><path d="M5852 7740 L7935 7740" stroke-width="13" stroke="#000" /><path d="M5852 7920 L7935 7920" stroke-width="13" stroke="#000" /><path d="M5852 8100 L7935 8100" stroke-width="13" stroke="#000" /><path d="M5852 8280 L7935 8280" stroke-width="13" stroke="#000" /><use transform="translate(6051, 8280) scale(0.72, 0.72)" xlink:href="#E0A4" /><path d="M6268 8252 L6268 7650" stroke-width="18" stroke="#000" /><use transform="translate(6993, 8370) scale(0.72, 0.72)" xlink:href="#E0A4" /><path d="M7210 8342 L7210 7740" stroke-width="18" stroke="#000" /><path d="M7935 7560 L9301 7560" stroke-width="13" stroke="#000" /><path d="M7935 7740 L9301 7740" stroke-width="13" stroke="#000" /><path d="M7935 7920 L9301 7920" stroke-width="13" stroke="#000" /><path d="M7935 8100 L9301 8100" stroke-width="13" stroke="#000" /><path d="M7935 8280 L9301 8280" stroke-width="13" stroke="#000" /><path d="M8086 8460 L8408 8460" stroke-width="22" stroke="#000" /><use transform="translate(8134, 8460) scale(0.72, 0.72)" xlink:href="#E0A4" /><ellipse cx="8450" cy="8370" rx="36" ry="36" /><path d="M8351 8432 L8351 7830" stroke-width="18" stroke="#000" /><path d="M0 9900 L3831 9900" stroke-width="13" stroke="#000" /><path d="M0 10080 L3831 10080" stroke-width="13" stroke="#000" /><path d="M0 10260 L3831 10260" stroke-width="13" stroke="#000" /><path d="M0 10440 L3831 10440" stroke-width="13" stroke="#000" /><path d="M0 10620 L3831 10620" stroke-width="13" stroke="#000" /><use transform="translate(90, 10440) scale(0.72, 0.72)" xlink:href="#E050" /><use transform="translate(735, 10260) scale(0.72, 0.72)" xlink:href="#E260" /><use transform="translate(915, 9990) scale(0.72, 0.72)" xlink:href="#E260" /><path d="M1292 10800 L1614 10800" stroke-width="22" stroke="#000" /><use transform="translate(1340, 10800) scale(0.72, 0.72)" xlink:href="#E0A4" /><path d="M1557 10772 L1557 10170" stroke-width="18" stroke="#000" /><use transform="translate(1548, 10170) scale(0.72, 0.72)" xlink:href="#E240" /><use transform="translate(1963, 10530) scale(0.72, 0.72)" xlink:href="#E0A4" /><path d="M2180 10502 L2180 9900" stroke-width="18" stroke="#000" /><use transform="translate(2897, 10530) scale(0.72, 0.72)" xlink:href="#E0A4" /><path d="M3114 10502 L3114 9900" stroke-width="18" stroke="#000" /><path d="M3831 9900 L5892 9900" stroke-width="13" stroke="#000" /><path d="M3831 10080 L5892 10080" stroke-width="13" stroke="#000" /><path d="M3831 10260 L5892 10260" stroke-width="13" stroke="#000" /><path d="M3831 10440 L5892 10440" stroke-width="13" stroke="#000" /><path d="M3831 10620 L5892 10620" stroke-width="13" stroke="#000" /><use transform="translate(4024, 10710) scale(0.72, 0.72)" xlink:href="#E0A4" /><path d="M4241 10682 L4241 10080" stroke-width="18" stroke="#000" /><use transform="translate(4958, 10440) scale(0.72, 0.72)" xlink:href="#E0A4" /><path d="M5175 10412 L5175 9810" stroke-width="18" stroke="#000" /><path d="M5892 9900 L7953 9900" stroke-width="13" stroke="#000" /><path d="M5892 10080 L7953 10080" stroke-width="13" stroke="#000" /><path d="M5892 10260 L7953 10260" stroke-width="13" stroke="#000" /><path d="M5892 10440 L7953 10440" stroke-width="13" stroke="#000" /><path d="M5892 10620 L7953 10620" stroke-width="13" stroke="#000" /><use transform="translate(6085, 10440) scale(0.72, 0.72)" xlink:href="#E0A4" /><path d="M6302 10412 L6302 9810" stroke-width="18" stroke="#000" /><use transform="translate(7019, 10530) scale(0.72, 0.72)" xlink:href="#E0A4" /><path d="M7236 10502 L7236 9900" stroke-width="18" stroke="#000" /><path d="M7953 9900 L9303 9900" stroke-width="13" stroke="#000" /><path d="M7953 10080 L9303 10080" stroke-width="13" stroke="#000" /><path d="M7953 10260 L9303 10260" stroke-width="13" stroke="#000" /><path d="M7953 10440 L9303 10440" stroke-width="13" stroke="#000" /><path d="M7953 10620 L9303 10620" stroke-width="13" stroke="#000" /><use transform="translate(8146, 10440) scale(0.72, 0.72)" xlink:href="#E0A4" /><ellipse cx="8462" cy="10350" rx="36" ry="36" /><path d="M8363 10412 L8363 9810" stroke-width="18" stroke="#000" /><path d="M0 12240 L3792 12240" stroke-width="13" stroke="#000" /><path d="M0 12420 L3792 12420" stroke-width="13" stroke="#000" /><path d="M0 12600 L3792 12600" stroke-width="13" stroke="#000" /><path d="M0 12780 L3792 12780" stroke-width="13" stroke="#000" /><path d="M0 12960 L3792 12960" stroke-width="13" stroke="#000" /><use transform="translate(90, 12780) scale(0.72, 0.72)" xlink:href="#E050" /><use transform="translate(735, 12600) scale(0.72, 0.72)" xlink:href="#E260" /><use transform="translate(915, 12330) scale(0.72, 0.72)" xlink:href="#E260" /><use transform="translate(1339, 12780) scale(0.72, 0.72)" xlink:href="#E0A4" /><path d="M1556 12752 L1556 12150" stroke-width="18" stroke="#000" /><use transform="translate(1547, 12150) scale(0.72, 0.72)" xlink:href="#E240" /><use transform="translate(1952, 12510) scale(0.72, 0.72)" xlink:href="#E0A4" /><path d="M1961 12538 L1961 13140" stroke-width="18" stroke="#000" /><use transform="translate(2872, 12510) scale(0.72, 0.72)" xlink:href="#E0A4" /><path d="M2881 12538 L2881 13140" stroke-width="18" stroke="#000" /><path d="M3792 12240 L6437 12240" stroke-width="13" stroke="#000" /><path d="M3792 12420 L6437 12420" stroke-width="13" stroke="#000" /><path d="M3792 12600 L6437 12600" stroke-width="13" stroke="#000" /><path d="M3792 12780 L6437 12780" stroke-width="13" stroke="#000" /><path d="M3792 12960 L6437 12960" stroke-width="13" stroke="#000" /><use transform="translate(3984, 12420) scale(0.72, 0.72)" xlink:href="#E0A4" /><path d="M3993 12448 L3993 13050" stroke-width="18" stroke="#000" /><use transform="translate(4904, 12600) scale(0.72, 0.72)" xlink:href="#E0A4" /><path d="M4913 12628 L4913 13200" stroke-width="18" stroke="#000" /><use transform="translate(4904, 13200) scale(0.72, 0.72)" xlink:href="#E241" /><use transform="translate(5517, 12510) scale(0.72, 0.72)" xlink:href="#E0A4" /><path d="M5526 12538 L5526 13140" stroke-width="18" stroke="#000" /><path d="M6437 12240 L9301 12240" stroke-width="13" stroke="#000" /><path d="M6437 12420 L9301 12420" stroke-width="13" stroke="#000" /><path d="M6437 12600 L9301 12600" stroke-width="13" stroke="#000" /><path d="M6437 12780 L9301 12780" stroke-width="13" stroke="#000" /><path d="M6437 12960 L9301 12960" stroke-width="13" stroke="#000" /><use transform="translate(6629, 12600) scale(0.72, 0.72)" xlink:href="#E0A4" /><path d="M6638 12628 L6638 13200" stroke-width="18" stroke="#000" /><use transform="translate(6629, 13200) scale(0.72, 0.72)" xlink:href="#E241" /><use transform="translate(7242, 12690) scale(0.72, 0.72)" xlink:href="#E0A4" /><path d="M7459 12662 L7459 12060" stroke-width="18" stroke="#000" /><use transform="translate(8162, 12780) scale(0.72, 0.72)" xlink:href="#E0A4" /><ellipse cx="8478" cy="12690" rx="36" ry="36" /><path d="M8379 12752 L8379 12150" stroke-width="18" stroke="#000" /><path d="M0 14580 L3831 14580" stroke-width="13" stroke="#000" /><path d="M0 14760 L3831 14760" stroke-width="13" stroke="#000" /><path d="M0 14940 L3831 14940" stroke-width="13" stroke="#000" /><path d="M0 15120 L3831 15120" stroke-width="13" stroke="#000" /><path d="M0 15300 L3831 15300" stroke-width="13" stroke="#000" /><use transform="translate(90, 15120) scale(0.72, 0.72)" xlink:href="#E050" /><use transform="translate(735, 14940) scale(0.72, 0.72)" xlink:href="#E260" /><use transform="translate(915, 14670) scale(0.72, 0.72)" xlink:href="#E260" /><use transform="translate(1340, 15120) scale(0.72, 0.72)" xlink:href="#E0A4" /><path d="M1557 15092 L1557 14490" stroke-width="18" stroke="#000" /><use transform="translate(1548, 14490) scale(0.72, 0.72)" xlink:href="#E240" /><use transform="translate(1963, 14940) scale(0.72, 0.72)" xlink:href="#E0A4" /><path d="M1972 14968 L1972 15540" stroke-width="18" stroke="#000" /><use transform="translate(2897, 15030) scale(0.72, 0.72)" xlink:href="#E0A4" /><path d="M3114 15002 L3114 14400" stroke-width="18" stroke="#000" /><path d="M3831 14580 L5892 14580" stroke-width="13" stroke="#000" /><path d="M3831 14760 L5892 14760" stroke-width="13" stroke="#000" /><path d="M3831 14940 L5892 14940" stroke-width="13" stroke="#000" /><path d="M3831 15120 L5892 15120" stroke-width="13" stroke="#000" /><path d="M3831 15300 L5892 15300" stroke-width="13" stroke="#000" /><use transform="translate(4024, 15120) scale(0.72, 0.72)" xlink:href="#E0A4" /><path d="M4241 15092 L4241 14490" stroke-width="18" stroke="#000" /><use transform="translate(4958, 15210) scale(0.72, 0.72)" xlink:href="#E0A4" /><path d="M5175 15182 L5175 14580" stroke-width="18" stroke="#000" /><path d="M5892 14580 L7953 14580" stroke-width="13" stroke="#000" /><path d="M5892 14760 L7953 14760" stroke-width="13" stroke="#000" /><path d="M5892 14940 L7953 14940" stroke-width="13" stroke="#000" /><path d="M5892 15120 L7953 15120" stroke-width="13" stroke="#000" /><path d="M5892 15300 L7953 15300" stroke-width="13" stroke="#000" /><use transform="translate(6085, 15120) scale(0.72, 0.72)" xlink:href="#E0A4" /><path d="M6302 15092 L6302 14490" stroke-width="18" stroke="#000" /><use transform="translate(7019, 15300) scale(0.72, 0.72)" xlink:href="#E0A4" /><path d="M7236 15272 L7236 14670" stroke-width="18" stroke="#000" /><path d="M7953 14580 L9303 14580" stroke-width="13" stroke="#000" /><path d="M7953 14760 L9303 14760" stroke-width="13" stroke="#000" /><path d="M7953 14940 L9303 14940" stroke-width="13" stroke="#000" /><path d="M7953 15120 L9303 15120" stroke-width="13" stroke="#000" /><path d="M7953 15300 L9303 15300" stroke-width="13" stroke="#000" /><use transform="translate(8146, 15390) scale(0.72, 0.72)" xlink:href="#E0A4" /><ellipse cx="8462" cy="15390" rx="36" ry="36" /><path d="M8363 15362 L8363 14760" stroke-width="18" stroke="#000" /><path d="M0 16920 L3793 16920" stroke-width="13" stroke="#000" /><path d="M0 17100 L3793 17100" stroke-width="13" stroke="#000" /><path d="M0 17280 L3793 17280" stroke-width="13" stroke="#000" /><path d="M0 17460 L3793 17460" stroke-width="13" stroke="#000" /><path d="M0 17640 L3793 17640" stroke-width="13" stroke="#000" /><use transform="translate(90, 17460) scale(0.72, 0.72)" xlink:href="#E050" /><use transform="translate(735, 17280) scale(0.72, 0.72)" xlink:href="#E260" /><use transform="translate(915, 17010) scale(0.72, 0.72)" xlink:href="#E260" /><path d="M1302 17820 L1624 17820" stroke-width="22" stroke="#000" /><use transform="translate(1350, 17820) scale(0.72, 0.72)" xlink:href="#E0A4" /><path d="M1567 17792 L1567 17190" stroke-width="18" stroke="#000" /><use transform="translate(1558, 17190) scale(0.72, 0.72)" xlink:href="#E240" /><use transform="translate(1960, 17640) scale(0.72, 0.72)" xlink:href="#E0A4" /><path d="M2177 17612 L2177 17010" stroke-width="18" stroke="#000" /><use transform="translate(2876, 17550) scale(0.72, 0.72)" xlink:href="#E0A4" /><path d="M3093 17522 L3093 16920" stroke-width="18" stroke="#000" /><path d="M3793 16920 L6439 16920" stroke-width="13" stroke="#000" /><path d="M3793 17100 L6439 17100" stroke-width="13" stroke="#000" /><path d="M3793 17280 L6439 17280" stroke-width="13" stroke="#000" /><path d="M3793 17460 L6439 17460" stroke-width="13" stroke="#000" /><path d="M3793 17640 L6439 17640" stroke-width="13" stroke="#000" /><use transform="translate(3996, 17460) scale(0.72, 0.72)" xlink:href="#E0A4" /><path d="M4213 17432 L4213 16830" stroke-width="18" stroke="#000" /><use transform="translate(4912, 17640) scale(0.72, 0.72)" xlink:href="#E0A4" /><path d="M5129 17612 L5129 17010" stroke-width="18" stroke="#000" /><use transform="translate(5120, 17010) scale(0.72, 0.72)" xlink:href="#E240" /><use transform="translate(5522, 17550) scale(0.72, 0.72)" xlink:href="#E0A4" /><path d="M5739 17522 L5739 16920" stroke-width="18" stroke="#000" /><path d="M6439 16920 L9302 16920" stroke-width="13" stroke="#000" /><path d="M6439 17100 L9302 17100" stroke-width="13" stroke="#000" /><path d="M6439 17280 L9302 17280" stroke-width="13" stroke="#000" /><path d="M6439 17460 L9302 17460" stroke-width="13" stroke="#000" /><path d="M6439 17640 L9302 17640" stroke-width="13" stroke="#000" /><path d="M8120 17820 L8442 17820" stroke-width="22" stroke="#000" /><use transform="translate(6642, 17640) scale(0.72, 0.72)" xlink:href="#E0A4" /><path d="M6859 17612 L6859 17010" stroke-width="18" stroke="#000" /><use transform="translate(6850, 17010) scale(0.72, 0.72)" xlink:href="#E240" /><use transform="translate(7252, 17730) scale(0.72, 0.72)" xlink:href="#E0A4" /><path d="M7469 17702 L7469 17100" stroke-width="18" stroke="#000" /><use transform="translate(8168, 17820) scale(0.72, 0.72)" xlink:href="#E0A4" /><ellipse cx="8484" cy="17730" rx="36" ry="36" /><path d="M8385 17792 L8385 17190" stroke-width="18" stroke="#000" /><path d="M0 19260 L3734 19260" stroke-width="13" stroke="#000" /><path d="M0 19440 L3734 19440" stroke-width="13" stroke="#000" /><path d="M0 19620 L3734 19620" stroke-width="13" stroke="#000" /><path d="M0 19800 L3734 19800" stroke-width="13" stroke="#000" /><path d="M0 19980 L3734 19980" stroke-width="13" stroke="#000" /><use transform="translate(90, 19800) scale(0.72, 0.72)" xlink:href="#E050" /><use transform="translate(735, 19620) scale(0.72, 0.72)" xlink:href="#E260" /><use transform="translate(915, 19350) scale(0.72, 0.72)" xlink:href="#E260" /><use transform="translate(1346, 19530) scale(0.72, 0.72)" xlink:href="#E0A4" /><path d="M1355 19558 L1355 20160" stroke-width="18" stroke="#000" /><use transform="translate(1346, 20160) scale(0.72, 0.72)" xlink:href="#E241" /><use transform="translate(1942, 19530) scale(0.72, 0.72)" xlink:href="#E0A4" /><path d="M1951 19558 L1951 20160" stroke-width="18" stroke="#000" /><use transform="translate(2838, 19530) scale(0.72, 0.72)" xlink:href="#E0A4" /><path d="M2847 19558 L2847 20160" stroke-width="18" stroke="#000" /><path d="M3734 19260 L5637 19260" stroke-width="13" stroke="#000" /><path d="M3734 19440 L5637 19440" stroke-width="13" stroke="#000" /><path d="M3734 19620 L5637 19620" stroke-width="13" stroke="#000" /><path d="M3734 19800 L5637 19800" stroke-width="13" stroke="#000" /><path d="M3734 19980 L5637 19980" stroke-width="13" stroke="#000" /><use transform="translate(3933, 19440) scale(0.72, 0.72)" xlink:href="#E0A4" /><ellipse cx="4249" cy="19350" rx="36" ry="36" /><path d="M3942 19468 L3942 20070" stroke-width="18" stroke="#000" /><use transform="translate(5041, 19530) scale(0.72, 0.72)" xlink:href="#E0A4" /><path d="M5050 19558 L5050 20160" stroke-width="18" stroke="#000" /><use transform="translate(5041, 20160) scale(0.72, 0.72)" xlink:href="#E241" /><path d="M5637 19260 L7627 19260" stroke-width="13" stroke="#000" /><path d="M5637 19440 L7627 19440" stroke-width="13" stroke="#000" /><path d="M5637 19620 L7627 19620" stroke-width="13" stroke="#000" /><path d="M5637 19800 L7627 19800" stroke-width="13" stroke="#000" /><path d="M5637 19980 L7627 19980" stroke-width="13" stroke="#000" /><use transform="translate(5836, 19620) scale(0.72, 0.72)" xlink:href="#E0A4" /><path d="M5845 19648 L5845 20220" stroke-width="18" stroke="#000" /><use transform="translate(6731, 19710) scale(0.72, 0.72)" xlink:href="#E0A4" /><path d="M6948 19682 L6948 19080" stroke-width="18" stroke="#000" /><path d="M7627 19260 L9301 19260" stroke-width="13" stroke="#000" /><path d="M7627 19440 L9301 19440" stroke-width="13" stroke="#000" /><path d="M7627 19620 L9301 19620" stroke-width="13" stroke="#000" /><path d="M7627 19800 L9301 19800" stroke-width="13" stroke="#000" /><path d="M7627 19980 L9301 19980" stroke-width="13" stroke="#000" /><use transform="translate(7826, 19800) scale(0.72, 0.72)" xlink:href="#E0A3" /><path d="M8043 19772 L8043 19170" stroke-width="18" stroke="#000" /><path d="M9126 19260 L9126 19980" stroke-width="27" stroke="#000" /><path d="M9256 19260 L9256 19980" stroke-width="90" stroke="#000" /></g></svg>
