<svg xmlns="http://www.w3.org/2000/svg" xmlns:xlink="http://www.w3.org/1999/xlink" viewBox="0 0 9500 7080"><defs><g id="E050"><path transform="scale(1,-1)" d="M441 -245c-23 -4 -48 -6 -76 -6c-59 0 -102 7 -130 20c-88 42 -150 93 -187 154c-26 44 -43 103 -48 176c0 6 -1 13 -1 19c0 54 15 111 45 170c29 57 65 106 110 148s96 85 153 127c-3 16 -8 46 -13 92c-4 43 -5 73 -5 89c0 117 16 172 69 257c34 54 64 82 89 82 c21 0 43 -30 69 -92s39 -115 41 -159v-15c0 -109 -21 -162 -67 -241c-13 -20 -63 -90 -98 -118c-13 -9 -25 -19 -37 -29l31 -181c8 1 18 2 28 2c58 0 102 -12 133 -35c59 -43 92 -104 98 -184c1 -7 1 -15 1 -22c0 -123 -87 -209 -181 -248c8 -57 17 -110 25 -162 c5 -31 6 -58 6 -80c0 -30 -5 -53 -14 -70c-35 -64 -88 -99 -158 -103c-5 0 -11 -1 -16 -1c-37 0 -72 10 -108 27c-50 24 -77 59 -80 105v11c0 29 7 55 20 76c18 28 45 42 79 44h6c49 0 93 -42 97 -87v-9c0 -51 -34 -86 -105 -106c17 -24 51 -36 102 -36c62 0 116 43 140 85 c9 16 13 41 13 74c0 20 -1 42 -5 67c-8 53 -18 106 -26 159zM461 939c-95 0 -135 -175 -135 -286c0 -24 2 -48 5 -71c50 39 92 82 127 128c40 53 60 100 60 140v8c-4 53 -22 81 -55 81h-2zM406 119l54 -326c73 25 110 78 110 161c0 7 0 15 -1 23c-7 95 -57 142 -151 142h-12 zM382 117c-72 -2 -128 -47 -128 -120v-7c2 -46 43 -99 75 -115c-3 -2 -7 -5 -10 -10c-70 33 -116 88 -123 172v11c0 68 44 126 88 159c23 17 49 29 78 36l-29 170c-21 -13 -52 -37 -92 -73c-50 -44 -86 -84 -109 -119c-45 -69 -67 -130 -67 -182v-13c5 -68 35 -127 93 -176 s125 -73 203 -73c25 0 50 3 75 9c-19 111 -36 221 -54 331z" /></g><g id="E262"><path transform="scale(1,-1)" d="M136 186v169h17v-164l44 14v-91l-44 -14v-165l44 12v-91l-44 -13v-155h-17v150l-76 -22v-155h-17v149l-43 -13v90l43 14v167l-43 -14v92l43 13v169h17v-163zM60 73v-167l76 22v168z" /></g><g id="E0A3"><path transform="scale(1,-1)" d="M278 64c0 22 -17 39 -43 39c-12 0 -26 -3 -41 -10c-85 -43 -165 -94 -165 -156c5 -25 15 -32 49 -32c67 11 200 95 200 159zM0 -36c0 68 73 174 200 174c66 0 114 -39 114 -97c0 -84 -106 -173 -218 -173c-64 0 -96 32 -96 96z" /></g><g id="E0A4"><path transform="scale(1,-1)" d="M0 -39c0 68 73 172 200 172c66 0 114 -37 114 -95c0 -84 -106 -171 -218 -171c-64 0 -96 30 -96 94z" /></g><g id="E4E5"><path transform="scale(1,-1)" d="M107 292c-13 24 -30 49 -52 71c-1 1 0 2 0 3l-2 2c3 3 4 4 6 4c12 0 26 -7 40 -20s44 -40 89 -81c26 -24 28 -29 46 -47c4 -4 8 -9 10 -14c6 -8 8 -16 8 -27c0 -19 -12 -40 -36 -61c-28 -23 -49 -38 -61 -73c-4 -11 -7 -27 -10 -50c13 -43 34 -83 59 -121 c31 -47 59 -79 101 -129c-8 0 -26 7 -54 20l-62 29l-21 6l-23 1c-25 0 -45 -10 -60 -30l-4 -14l-1 -12c0 -33 20 -56 39 -78c8 -9 17 -18 26 -26c17 -15 27 -24 28 -30l-3 -3c-11 5 -19 10 -25 15c-9 3 -37 21 -45 26c-24 14 -45 32 -63 51c-19 21 -37 44 -37 71 c0 63 27 95 80 95c41 0 86 -18 136 -52c-19 26 -37 48 -55 66c-23 23 -48 44 -73 65c-28 23 -47 40 -58 53s-17 26 -18 39c75 64 113 125 113 183c0 27 -7 48 -18 68z" /></g></defs><g transform="translate(100, 300)"><path d="M0 540 L2590 540" stroke-width="13" stroke="#000" /><path d="M0 720 L2590 720" stroke-width="13" stroke="#000" /><path d="M0 900 L2590 900" stroke-width="13" stroke="#000" /><path d="M0 1080 L2590 1080" stroke-width="13" stroke="#000" /><path d="M0 1260 L2590 1260" stroke-width="13" stroke="#000" /><use transform="translate(90, 1080) scale(0.72, 0.72)" xlink:href="#E050" /><use transform="translate(735, 540) scale(0.72, 0.72)" xlink:href="#E262" /><use transform="translate(913, 810) scale(0.72, 0.72)" xlink:href="#E262" /><path d="M1304 1440 L1626 1440" stroke-width="22" stroke="#000" /><path d="M1304 1620 L1626 1620" stroke-width="22" stroke="#000" /><use transform="translate(1352, 1620) scale(0.72, 0.72)" xlink:href="#E0A3" /><path d="M1569 1592 L1569 900" stroke-width="18" stroke="#000" /><path d="M2590 540 L4036 540" stroke-width="13" stroke="#000" /><path d="M2590 720 L4036 720" stroke-width="13" stroke="#000" /><path d="M2590 900 L4036 900" stroke-width="13" stroke="#000" /><path d="M2590 1080 L4036 1080" stroke-width="13" stroke="#000" /><path d="M2590 1260 L4036 1260" stroke-width="13" stroke="#000" /><use transform="translate(2798, 1350) scale(0.72, 0.72)" xlink:href="#E0A3" /><path d="M3015 1322 L3015 720" stroke-width="18" stroke="#000" /><path d="M4036 540 L5947 540" stroke-width="13" stroke="#000" /><path d="M4036 720 L5947 720" stroke-width="13" stroke="#000" /><path d="M4036 900 L5947 900" stroke-width="13" stroke="#000" /><path d="M4036 1080 L5947 1080" stroke-width="13" stroke="#000" /><path d="M4036 1260 L5947 1260" stroke-width="13" stroke="#000" /><use transform="translate(4244, 1170) scale(0.72, 0.72)" xlink:href="#E0A4" /><path d="M4461 1142 L4461 540" stroke-width="18" stroke="#000" /><use transform="translate(5096, 1260) scale(0.72, 0.72)" xlink:href="#E0A4" /><path d="M5313 1232 L5313 630" stroke-width="18" stroke="#000" /><path d="M5947 540 L7858 540" stroke-width="13" stroke="#000" /><path d="M5947 720 L7858 720" stroke-width="13" stroke="#000" /><path d="M5947 900 L7858 900" stroke-width="13" stroke="#000" /><path d="M5947 1080 L7858 1080" stroke-width="13" stroke="#000" /><path d="M5947 1260 L7858 1260" stroke-width="13" stroke="#000" /><use transform="translate(6155, 1170) scale(0.72, 0.72)" xlink:href="#E0A4" /><path d="M6372 1142 L6372 540" stroke-width="18" stroke="#000" /><use transform="translate(7007, 1080) scale(0.72, 0.72)" xlink:href="#E0A4" /><path d="M7224 1052 L7224 450" stroke-width="18" stroke="#000" /><path d="M7858 540 L9304 540" stroke-width="13" stroke="#000" /><path d="M7858 720 L9304 720" stroke-width="13" stroke="#000" /><path d="M7858 900 L9304 900" stroke-width="13" stroke="#000" /><path d="M7858 1080 L9304 1080" stroke-width="13" stroke="#000" /><path d="M7858 1260 L9304 1260" stroke-width="13" stroke="#000" /><use transform="translate(8066, 990) scale(0.72, 0.72)" xlink:href="#E0A3" /><path d="M8283 962 L8283 360" stroke-width="18" stroke="#000" /><path d="M0 2880 L3040 2880" stroke-width="13" stroke="#000" /><path d="M0 3060 L3040 3060" stroke-width="13" stroke="#000" /><path d="M0 3240 L3040 3240" stroke-width="13" stroke="#000" /><path d="M0 3420 L3040 3420" stroke-width="13" stroke="#000" /><path d="M0 3600 L3040 3600" stroke-width="13" stroke="#000" /><use transform="translate(90, 3420) scale(0.72, 0.72)" xlink:href="#E050" /><use transform="translate(735, 2880) scale(0.72, 0.72)" xlink:href="#E262" /><use transform="translate(913, 3150) scale(0.72, 0.72)" xlink:href="#E262" /><use transform="translate(1329, 3510) scale(0.72, 0.72)" xlink:href="#E0A4" /><path d="M1546 3482 L1546 2880" stroke-width="18" stroke="#000" /><use transform="translate(2185, 3240) scale(0.72, 0.72)" xlink:href="#E0A4" /><path d="M2194 3268 L2194 3840" stroke-width="18" stroke="#000" /><path d="M3040 2880 L4936 2880" stroke-width="13" stroke="#000" /><path d="M3040 3060 L4936 3060" stroke-width="13" stroke="#000" /><path d="M3040 3240 L4936 3240" stroke-width="13" stroke="#000" /><path d="M3040 3420 L4936 3420" stroke-width="13" stroke="#000" /><path d="M3040 3600 L4936 3600" stroke-width="13" stroke="#000" /><use transform="translate(3225, 3330) scale(0.72, 0.72)" xlink:href="#E0A4" /><path d="M3442 3302 L3442 2700" stroke-width="18" stroke="#000" /><use transform="translate(4081, 3420) scale(0.72, 0.72)" xlink:href="#E0A4" /><path d="M4298 3392 L4298 2790" stroke-width="18" stroke="#000" /><path d="M4936 2880 L6832 2880" stroke-width="13" stroke="#000" /><path d="M4936 3060 L6832 3060" stroke-width="13" stroke="#000" /><path d="M4936 3240 L6832 3240" stroke-width="13" stroke="#000" /><path d="M4936 3420 L6832 3420" stroke-width="13" stroke="#000" /><path d="M4936 3600 L6832 3600" stroke-width="13" stroke="#000" /><use transform="translate(5121, 3510) scale(0.72, 0.72)" xlink:href="#E0A4" /><path d="M5338 3482 L5338 2880" stroke-width="18" stroke="#000" /><use transform="translate(5977, 3600) scale(0.72, 0.72)" xlink:href="#E0A4" /><path d="M6194 3572 L6194 2970" stroke-width="18" stroke="#000" /><path d="M6832 2880 L8261 2880" stroke-width="13" stroke="#000" /><path d="M6832 3060 L8261 3060" stroke-width="13" stroke="#000" /><path d="M6832 3240 L8261 3240" stroke-width="13" stroke="#000" /><path d="M6832 3420 L8261 3420" stroke-width="13" stroke="#000" /><path d="M6832 3600 L8261 3600" stroke-width="13" stroke="#000" /><use transform="translate(7017, 3510) scale(0.72, 0.72)" xlink:href="#E0A3" /><path d="M7234 3482 L7234 2880" stroke-width="18" stroke="#000" /><path d="M8261 2880 L9302 2880" stroke-width="13" stroke="#000" /><path d="M8261 3060 L9302 3060" stroke-width="13" stroke="#000" /><path d="M8261 3240 L9302 3240" stroke-width="13" stroke="#000" /><path d="M8261 3420 L9302 3420" stroke-width="13" stroke="#000" /><path d="M8261 3600 L9302 3600" stroke-width="13" stroke="#000" /><use transform="translate(8446, 3240) scale(0.72, 0.72)" xlink:href="#E4E5" /><path d="M0 5220 L2265 5220" stroke-width="13" stroke="#000" /><path d="M0 5400 L2265 5400" stroke-width="13" stroke="#000" /><path d="M0 5580 L2265 5580" stroke-width="13" stroke="#000" /><path d="M0 5760 L2265 5760" stroke-width="13" stroke="#000" /><path d="M0 5940 L2265 5940" stroke-width="13" stroke="#000" /><use transform="translate(90, 5760) scale(0.72, 0.72)" xlink:href="#E050" /><use transform="translate(735, 5220) scale(0.72, 0.72)" xlink:href="#E262" /><use transform="translate(913, 5490) scale(0.72, 0.72)" xlink:href="#E262" /><use transform="translate(1315, 5670) scale(0.72, 0.72)" xlink:href="#E0A4" /><path d="M1532 5642 L1532 5040" stroke-width="18" stroke="#000" /><use transform="translate(1790, 5580) scale(0.72, 0.72)" xlink:href="#E0A4" /><path d="M1799 5608 L1799 6180" stroke-width="18" stroke="#000" /><path d="M2265 5220 L3386 5220" stroke-width="13" stroke="#000" /><path d="M2265 5400 L3386 5400" stroke-width="13" stroke="#000" /><path d="M2265 5580 L3386 5580" stroke-width="13" stroke="#000" /><path d="M2265 5760 L3386 5760" stroke-width="13" stroke="#000" /><path d="M2265 5940 L3386 5940" stroke-width="13" stroke="#000" /><use transform="translate(2436, 5580) scale(0.72, 0.72)" xlink:href="#E0A4" /><path d="M2445 5608 L2445 6180" stroke-width="18" stroke="#000" /><use transform="translate(2911, 5490) scale(0.72, 0.72)" xlink:href="#E0A4" /><path d="M2920 5518 L2920 6120" stroke-width="18" stroke="#000" /><path d="M3386 5220 L4722 5220" stroke-width="13" stroke="#000" /><path d="M3386 5400 L4722 5400" stroke-width="13" stroke="#000" /><path d="M3386 5580 L4722 5580" stroke-width="13" stroke="#000" /><path d="M3386 5760 L4722 5760" stroke-width="13" stroke="#000" /><path d="M3386 5940 L4722 5940" stroke-width="13" stroke="#000" /><use transform="translate(3557, 5400) scale(0.72, 0.72)" xlink:href="#E0A4" /><path d="M3566 5428 L3566 6030" stroke-width="18" stroke="#000" /><use transform="translate(4032, 5580) scale(0.72, 0.72)" xlink:href="#E0A3" /><path d="M4041 5605 L4041 6180" stroke-width="18" stroke="#000" /><path d="M4722 5220 L5368 5220" stroke-width="13" stroke="#000" /><path d="M4722 5400 L5368 5400" stroke-width="13" stroke="#000" /><path d="M4722 5580 L5368 5580" stroke-width="13" stroke="#000" /><path d="M4722 5760 L5368 5760" stroke-width="13" stroke="#000" /><path d="M4722 5940 L5368 5940" stroke-width="13" stroke="#000" /><use transform="translate(4893, 5670) scale(0.72, 0.72)" xlink:href="#E0A4" /><path d="M5110 5642 L5110 5040" stroke-width="18" stroke="#000" /><path d="M5368 5220 L6489 5220" stroke-width="13" stroke="#000" /><path d="M5368 5400 L6489 5400" stroke-width="13" stroke="#000" /><path d="M5368 5580 L6489 5580" stroke-width="13" stroke="#000" /><path d="M5368 5760 L6489 5760" stroke-width="13" stroke="#000" /><path d="M5368 5940 L6489 5940" stroke-width="13" stroke="#000" /><use transform="translate(5539, 5850) scale(0.72, 0.72)" xlink:href="#E0A4" /><path d="M5756 5822 L5756 5220" stroke-width="18" stroke="#000" /><use transform="translate(6014, 5940) scale(0.72, 0.72)" xlink:href="#E0A4" /><path d="M6231 5912 L6231 5310" stroke-width="18" stroke="#000" /><path d="M6489 5220 L7610 5220" stroke-width="13" stroke="#000" /><path d="M6489 5400 L7610 5400" stroke-width="13" stroke="#000" /><path d="M6489 5580 L7610 5580" stroke-width="13" stroke="#000" /><path d="M6489 5760 L7610 5760" stroke-width="13" stroke="#000" /><path d="M6489 5940 L7610 5940" stroke-width="13" stroke="#000" /><use transform="translate(6660, 6030) scale(0.72, 0.72)" xlink:href="#E0A4" /><path d="M6877 6002 L6877 5400" stroke-width="18" stroke="#000" /><use transform="translate(7135, 6030) scale(0.72, 0.72)" xlink:href="#E0A4" /><path d="M7352 6002 L7352 5400" stroke-width="18" stroke="#000" /><path d="M7610 5220 L9302 5220" stroke-width="13" stroke="#000" /><path d="M7610 5400 L9302 5400" stroke-width="13" stroke="#000" /><path d="M7610 5580 L9302 5580" stroke-width="13" stroke="#000" /><path d="M7610 5760 L9302 5760" stroke-width="13" stroke="#000" /><path d="M7610 5940 L9302 5940" stroke-width="13" stroke="#000" /><path d="M7733 6120 L8055 6120" stroke-width="22" stroke="#000" /><use transform="translate(7781, 6120) scale(0.72, 0.72)" xlink:href="#E0A4" /><path d="M7998 6092 L7998 5490" stroke-width="18" stroke="#000" /><use transform="translate(8256, 6030) scale(0.72, 0.72)" xlink:href="#E0A3" /><ellipse cx="8572" cy="6030" rx="36" ry="36" /><path d="M8473 6002 L8473 5400" stroke-width="18" stroke="#000" /><path d="M9127 5220 L9127 5940" stroke-width="27" stroke="#000" /><path d="M9257 5220 L9257 5940" stroke-width="90" stroke="#000" /></g></svg>
