<svg xmlns="http://www.w3.org/2000/svg" xmlns:xlink="http://www.w3.org/1999/xlink" viewBox="0 0 9500 7080"><defs><g id="E050"><path transform="scale(1,-1)" d="M441 -245c-23 -4 -48 -6 -76 -6c-59 0 -102 7 -130 20c-88 42 -150 93 -187 154c-26 44 -43 103 -48 176c0 6 -1 13 -1 19c0 54 15 111 45 170c29 57 65 106 110 148s96 85 153 127c-3 16 -8 46 -13 92c-4 43 -5 73 -5 89c0 117 16 172 69 257c34 54 64 82 89 82 c21 0 43 -30 69 -92s39 -115 41 -159v-15c0 -109 -21 -162 -67 -241c-13 -20 -63 -90 -98 -118c-13 -9 -25 -19 -37 -29l31 -181c8 1 18 2 28 2c58 0 102 -12 133 -35c59 -43 92 -104 98 -184c1 -7 1 -15 1 -22c0 -123 -87 -209 -181 -248c8 -57 17 -110 25 -162 c5 -31 6 -58 6 -80c0 -30 -5 -53 -14 -70c-35 -64 -88 -99 -158 -103c-5 0 -11 -1 -16 -1c-37 0 -72 10 -108 27c-50 24 -77 59 -80 105v11c0 29 7 55 20 76c18 28 45 42 79 44h6c49 0 93 -42 97 -87v-9c0 -51 -34 -86 -105 -106c17 -24 51 -36 102 -36c62 0 116 43 140 85 c9 16 13 41 13 74c0 20 -1 42 -5 67c-8 53 -18 106 -26 159zM461 939c-95 0 -135 -175 -135 -286c0 -24 2 -48 5 -71c50 39 92 82 127 128c40 53 60 100 60 140v8c-4 53 -22 81 -55 81h-2zM406 119l54 -326c73 25 110 78 110 161c0 7 0 15 -1 23c-7 95 -57 142 -151 142h-12 zM382 117c-72 -2 -128 -47 -128 -120v-7c2 -46 43 -99 75 -115c-3 -2 -7 -5 -10 -10c-70 33 -116 88 -123 172v11c0 68 44 126 88 159c23 17 49 29 78 36l-29 170c-21 -13 -52 -37 -92 -73c-50 -44 -86 -84 -109 -119c-45 -69 -67 -130 -67 -182v-13c5 -68 35 -127 93 -176 s125 -73 203 -73c25 0 50 3 75 9c-19 111 -36 221 -54 331z" /></g><g id="E260"><path transform="scale(1,-1)" d="M20 110c32 16 54 27 93 27c26 0 35 -3 54 -13c13 -7 24 -20 27 -38l4 -25c0 -28 -16 -57 -45 -89c-23 -25 -39 -44 -65 -68l-88 -79v644h20v-359zM90 106c-32 0 -48 -10 -70 -29v-194c31 31 54 59 71 84c21 32 32 59 32 84c0 9 1 16 1 20c0 14 -3 21 -11 30l-8 3z" /></g><g id="E0A4"><path transform="scale(1,-1)" d="M0 -39c0 68 73 172 200 172c66 0 114 -37 114 -95c0 -84 -106 -171 -218 -171c-64 0 -96 30 -96 94z" /></g><g id="E0A3"><path transform="scale(1,-1)" d="M278 64c0 22 -17 39 -43 39c-12 0 -26 -3 -41 -10c-85 -43 -165 -94 -165 -156c5 -25 15 -32 49 -32c67 11 200 95 200 159zM0 -36c0 68 73 174 200 174c66 0 114 -39 114 -97c0 -84 -106 -173 -218 -173c-64 0 -96 32 -96 96z" /></g></defs><g transform="translate(100, 300)"><path d="M0 540 L3156 540" stroke-width="13" stroke="#000" /><path d="M0 720 L3156 720" stroke-width="13" stroke="#000" /><path d="M0 900 L3156 900" stroke-width="13" stroke="#000" /><path d="M0 1080 L3156 1080" stroke-width="13" stroke="#000" /><path d="M0 1260 L3156 1260" stroke-width="13" stroke="#000" /><use transform="translate(90, 1080) scale(0.72, 0.72)" xlink:href="#E050" /><use transform="translate(735, 900) scale(0.72, 0.72)" xlink:href="#E260" /><use transform="translate(1182, 1170) scale(0.72, 0.72)" xlink:href="#E0A4" /><path d="M1399 1142 L1399 540" stroke-width="18" stroke="#000" /><use transform="translate(2169, 1170) scale(0.72, 0.72)" xlink:href="#E0A4" /><path d="M2386 1142 L2386 540" stroke-width="18" stroke="#000" /><path d="M3156 540 L4805 540" stroke-width="13" stroke="#000" /><path d="M3156 720 L4805 720" stroke-width="13" stroke="#000" /><path d="M3156 900 L4805 900" stroke-width="13" stroke="#000" /><path d="M3156 1080 L4805 1080" stroke-width="13" stroke="#000" /><path d="M3156 1260 L4805 1260" stroke-width="13" stroke="#000" /><use transform="translate(3371, 1170) scale(0.72, 0.72)" xlink:href="#E0A3" /><path d="M3588 1142 L3588 540" stroke-width="18" stroke="#000" /><path d="M4805 540 L7654 540" stroke-width="13" stroke="#000" /><path d="M4805 720 L7654 720" stroke-width="13" stroke="#000" /><path d="M4805 900 L7654 900" stroke-width="13" stroke="#000" /><path d="M4805 1080 L7654 1080" stroke-width="13" stroke="#000" /><path d="M4805 1260 L7654 1260" stroke-width="13" stroke="#000" /><polygon points="5228,540 5904,630 5904,720 5228,630" /><use transform="translate(5020, 1170) scale(0.72, 0.72)" xlink:href="#E0A4" /><path d="M5237 1142 L5237 558" stroke-width="18" stroke="#000" /><use transform="translate(5678, 1260) scale(0.72, 0.72)" xlink:href="#E0A4" /><path d="M5895 1232 L5895 648" stroke-width="18" stroke="#000" /><polygon points="6545,720 7221,630 7221,720 6545,810" /><use transform="translate(6337, 1350) scale(0.72, 0.72)" xlink:href="#E0A4" /><path d="M6554 1322 L6554 738" stroke-width="18" stroke="#000" /><use transform="translate(6995, 1260) scale(0.72, 0.72)" xlink:href="#E0A4" /><path d="M7212 1232 L7212 648" stroke-width="18" stroke="#000" /><path d="M7654 540 L9303 540" stroke-width="13" stroke="#000" /><path d="M7654 720 L9303 720" stroke-width="13" stroke="#000" /><path d="M7654 900 L9303 900" stroke-width="13" stroke="#000" /><path d="M7654 1080 L9303 1080" stroke-width="13" stroke="#000" /><path d="M7654 1260 L9303 1260" stroke-width="13" stroke="#000" /><use transform="translate(7869, 1170) scale(0.72, 0.72)" xlink:href="#E0A3" /><path d="M8086 1142 L8086 540" stroke-width="18" stroke="#000" /><path d="M0 2880 L2108 2880" stroke-width="13" stroke="#000" /><path d="M0 3060 L2108 3060" stroke-width="13" stroke="#000" /><path d="M0 3240 L2108 3240" stroke-width="13" stroke="#000" /><path d="M0 3420 L2108 3420" stroke-width="13" stroke="#000" /><path d="M0 3600 L2108 3600" stroke-width="13" stroke="#000" /><use transform="translate(90, 3420) scale(0.72, 0.72)" xlink:href="#E050" /><use transform="translate(735, 3240) scale(0.72, 0.72)" xlink:href="#E260" /><use transform="translate(1143, 3330) scale(0.72, 0.72)" xlink:href="#E0A4" /><path d="M1360 3302 L1360 2700" stroke-width="18" stroke="#000" /><use transform="translate(1625, 3330) scale(0.72, 0.72)" xlink:href="#E0A4" /><path d="M1842 3302 L1842 2700" stroke-width="18" stroke="#000" /><path d="M2108 2880 L3249 2880" stroke-width="13" stroke="#000" /><path d="M2108 3060 L3249 3060" stroke-width="13" stroke="#000" /><path d="M2108 3240 L3249 3240" stroke-width="13" stroke="#000" /><path d="M2108 3420 L3249 3420" stroke-width="13" stroke="#000" /><path d="M2108 3600 L3249 3600" stroke-width="13" stroke="#000" /><use transform="translate(2284, 3420) scale(0.72, 0.72)" xlink:href="#E0A4" /><path d="M2501 3392 L2501 2790" stroke-width="18" stroke="#000" /><use transform="translate(2766, 3060) scale(0.72, 0.72)" xlink:href="#E0A4" /><path d="M2775 3088 L2775 3690" stroke-width="18" stroke="#000" /><path d="M3249 2880 L4390 2880" stroke-width="13" stroke="#000" /><path d="M3249 3060 L4390 3060" stroke-width="13" stroke="#000" /><path d="M3249 3240 L4390 3240" stroke-width="13" stroke="#000" /><path d="M3249 3420 L4390 3420" stroke-width="13" stroke="#000" /><path d="M3249 3600 L4390 3600" stroke-width="13" stroke="#000" /><use transform="translate(3425, 3150) scale(0.72, 0.72)" xlink:href="#E0A4" /><path d="M3434 3178 L3434 3780" stroke-width="18" stroke="#000" /><use transform="translate(3907, 3240) scale(0.72, 0.72)" xlink:href="#E0A4" /><path d="M3916 3268 L3916 3840" stroke-width="18" stroke="#000" /><path d="M4390 2880 L5267 2880" stroke-width="13" stroke="#000" /><path d="M4390 3060 L5267 3060" stroke-width="13" stroke="#000" /><path d="M4390 3240 L5267 3240" stroke-width="13" stroke="#000" /><path d="M4390 3420 L5267 3420" stroke-width="13" stroke="#000" /><path d="M4390 3600 L5267 3600" stroke-width="13" stroke="#000" /><use transform="translate(4566, 3330) scale(0.72, 0.72)" xlink:href="#E0A3" /><path d="M4783 3302 L4783 2700" stroke-width="18" stroke="#000" /><path d="M5267 2880 L6408 2880" stroke-width="13" stroke="#000" /><path d="M5267 3060 L6408 3060" stroke-width="13" stroke="#000" /><path d="M5267 3240 L6408 3240" stroke-width="13" stroke="#000" /><path d="M5267 3420 L6408 3420" stroke-width="13" stroke="#000" /><path d="M5267 3600 L6408 3600" stroke-width="13" stroke="#000" /><use transform="translate(5443, 3150) scale(0.72, 0.72)" xlink:href="#E0A4" /><path d="M5452 3178 L5452 3780" stroke-width="18" stroke="#000" /><use transform="translate(5925, 3150) scale(0.72, 0.72)" xlink:href="#E0A4" /><path d="M5934 3178 L5934 3780" stroke-width="18" stroke="#000" /><path d="M6408 2880 L7549 2880" stroke-width="13" stroke="#000" /><path d="M6408 3060 L7549 3060" stroke-width="13" stroke="#000" /><path d="M6408 3240 L7549 3240" stroke-width="13" stroke="#000" /><path d="M6408 3420 L7549 3420" stroke-width="13" stroke="#000" /><path d="M6408 3600 L7549 3600" stroke-width="13" stroke="#000" /><use transform="translate(6584, 3240) scale(0.72, 0.72)" xlink:href="#E0A4" /><path d="M6593 3268 L6593 3840" stroke-width="18" stroke="#000" /><use transform="translate(7066, 3330) scale(0.72, 0.72)" xlink:href="#E0A4" /><path d="M7283 3302 L7283 2700" stroke-width="18" stroke="#000" /><path d="M7549 2880 L8426 2880" stroke-width="13" stroke="#000" /><path d="M7549 3060 L8426 3060" stroke-width="13" stroke="#000" /><path d="M7549 3240 L8426 3240" stroke-width="13" stroke="#000" /><path d="M7549 3420 L8426 3420" stroke-width="13" stroke="#000" /><path d="M7549 3600 L8426 3600" stroke-width="13" stroke="#000" /><use transform="translate(7725, 3420) scale(0.72, 0.72)" xlink:href="#E0A3" /><path d="M7942 3392 L7942 2790" stroke-width="18" stroke="#000" /><path d="M8426 2880 L9303 2880" stroke-width="13" stroke="#000" /><path d="M8426 3060 L9303 3060" stroke-width="13" stroke="#000" /><path d="M8426 3240 L9303 3240" stroke-width="13" stroke="#000" /><path d="M8426 3420 L9303 3420" stroke-width="13" stroke="#000" /><path d="M8426 3600 L9303 3600" stroke-width="13" stroke="#000" /><use transform="translate(8602, 3510) scale(0.72, 0.72)" xlink:href="#E0A3" /><path d="M8819 3482 L8819 2880" stroke-width="18" stroke="#000" /><path d="M0 5220 L2471 5220" stroke-width="13" stroke="#000" /><path d="M0 5400 L2471 5400" stroke-width="13" stroke="#000" /><path d="M0 5580 L2471 5580" stroke-width="13" stroke="#000" /><path d="M0 5760 L2471 5760" stroke-width="13" stroke="#000" /><path d="M0 5940 L2471 5940" stroke-width="13" stroke="#000" /><use transform="translate(90, 5760) scale(0.72, 0.72)" xlink:href="#E050" /><use transform="translate(735, 5580) scale(0.72, 0.72)" xlink:href="#E260" /><path d="M1444 6120 L1738 6120" stroke-width="22" stroke="#000" /><path d="M1775 6120 L2069 6120" stroke-width="22" stroke="#000" /><path d="M2106 6120 L2400 6120" stroke-width="22" stroke="#000" /><path d="M2106 6300 L2400 6300" stroke-width="22" stroke="#000" /><polygon points="1355,5175 1704,5220 1704,5310 1355,5265" /><use transform="translate(1147, 5850) scale(0.72, 0.72)" xlink:href="#E0A4" /><path d="M1364 5822 L1364 5193" stroke-width="18" stroke="#000" /><use transform="translate(1478, 6120) scale(0.72, 0.72)" xlink:href="#E0A4" /><path d="M1695 6092 L1695 5238" stroke-width="18" stroke="#000" /><polygon points="2017,5490 2366,5535 2366,5625 2017,5580" /><use transform="translate(1809, 6120) scale(0.72, 0.72)" xlink:href="#E0A4" /><path d="M2026 6092 L2026 5508" stroke-width="18" stroke="#000" /><use transform="translate(2140, 6300) scale(0.72, 0.72)" xlink:href="#E0A4" /><path d="M2357 6272 L2357 5553" stroke-width="18" stroke="#000" /><path d="M2471 5220 L3372 5220" stroke-width="13" stroke="#000" /><path d="M2471 5400 L3372 5400" stroke-width="13" stroke="#000" /><path d="M2471 5580 L3372 5580" stroke-width="13" stroke="#000" /><path d="M2471 5760 L3372 5760" stroke-width="13" stroke="#000" /><path d="M2471 5940 L3372 5940" stroke-width="13" stroke="#000" /><path d="M2603 6120 L2925 6120" stroke-width="22" stroke="#000" /><use transform="translate(2651, 6210) scale(0.72, 0.72)" xlink:href="#E0A3" /><path d="M2868 6182 L2868 5580" stroke-width="18" stroke="#000" /><path d="M3372 5220 L4273 5220" stroke-width="13" stroke="#000" /><path d="M3372 5400 L4273 5400" stroke-width="13" stroke="#000" /><path d="M3372 5580 L4273 5580" stroke-width="13" stroke="#000" /><path d="M3372 5760 L4273 5760" stroke-width="13" stroke="#000" /><path d="M3372 5940 L4273 5940" stroke-width="13" stroke="#000" /><path d="M3504 6120 L3826 6120" stroke-width="22" stroke="#000" /><use transform="translate(3552, 6120) scale(0.72, 0.72)" xlink:href="#E0A3" /><path d="M3769 6092 L3769 5490" stroke-width="18" stroke="#000" /><path d="M4273 5220 L5243 5220" stroke-width="13" stroke="#000" /><path d="M4273 5400 L5243 5400" stroke-width="13" stroke="#000" /><path d="M4273 5580 L5243 5580" stroke-width="13" stroke="#000" /><path d="M4273 5760 L5243 5760" stroke-width="13" stroke="#000" /><path d="M4273 5940 L5243 5940" stroke-width="13" stroke="#000" /><use transform="translate(4453, 5850) scale(0.72, 0.72)" xlink:href="#E0A4" /><ellipse cx="4769" cy="5850" rx="36" ry="36" /><path d="M4670 5822 L4670 5220" stroke-width="18" stroke="#000" /><path d="M5068 5220 L5068 5940" stroke-width="27" stroke="#000" /><path d="M5198 5220 L5198 5940" stroke-width="90" stroke="#000" /></g></svg>
