<svg xmlns="http://www.w3.org/2000/svg" xmlns:xlink="http://www.w3.org/1999/xlink" viewBox="0 0 9500 16440"><defs><g id="E050"><path transform="scale(1,-1)" d="M441 -245c-23 -4 -48 -6 -76 -6c-59 0 -102 7 -130 20c-88 42 -150 93 -187 154c-26 44 -43 103 -48 176c0 6 -1 13 -1 19c0 54 15 111 45 170c29 57 65 106 110 148s96 85 153 127c-3 16 -8 46 -13 92c-4 43 -5 73 -5 89c0 117 16 172 69 257c34 54 64 82 89 82 c21 0 43 -30 69 -92s39 -115 41 -159v-15c0 -109 -21 -162 -67 -241c-13 -20 -63 -90 -98 -118c-13 -9 -25 -19 -37 -29l31 -181c8 1 18 2 28 2c58 0 102 -12 133 -35c59 -43 92 -104 98 -184c1 -7 1 -15 1 -22c0 -123 -87 -209 -181 -248c8 -57 17 -110 25 -162 c5 -31 6 -58 6 -80c0 -30 -5 -53 -14 -70c-35 -64 -88 -99 -158 -103c-5 0 -11 -1 -16 -1c-37 0 -72 10 -108 27c-50 24 -77 59 -80 105v11c0 29 7 55 20 76c18 28 45 42 79 44h6c49 0 93 -42 97 -87v-9c0 -51 -34 -86 -105 -106c17 -24 51 -36 102 -36c62 0 116 43 140 85 c9 16 13 41 13 74c0 20 -1 42 -5 67c-8 53 -18 106 -26 159zM461 939c-95 0 -135 -175 -135 -286c0 -24 2 -48 5 -71c50 39 92 82 127 128c40 53 60 100 60 140v8c-4 53 -22 81 -55 81h-2zM406 119l54 -326c73 25 110 78 110 161c0 7 0 15 -1 23c-7 95 -57 142 -151 142h-12 zM382 117c-72 -2 -128 -47 -128 -120v-7c2 -46 43 -99 75 -115c-3 -2 -7 -5 -10 -10c-70 33 -116 88 -123 172v11c0 68 44 126 88 159c23 17 49 29 78 36l-29 170c-21 -13 -52 -37 -92 -73c-50 -44 -86 -84 -109 -119c-45 -69 -67 -130 -67 -182v-13c5 -68 35 -127 93 -176 s125 -73 203 -73c25 0 50 3 75 9c-19 111 -36 221 -54 331z" /></g><g id="E260"><path transform="scale(1,-1)" d="M20 110c32 16 54 27 93 27c26 0 35 -3 54 -13c13 -7 24 -20 27 -38l4 -25c0 -28 -16 -57 -45 -89c-23 -25 -39 -44 -65 -68l-88 -79v644h20v-359zM90 106c-32 0 -48 -10 -70 -29v-194c31 31 54 59 71 84c21 32 32 59 32 84c0 9 1 16 1 20c0 14 -3 21 -11 30l-8 3z" /></g><g id="E0A3"><path transform="scale(1,-1)" d="M278 64c0 22 -17 39 -43 39c-12 0 -26 -3 -41 -10c-85 -43 -165 -94 -165 -156c5 -25 15 -32 49 -32c67 11 200 95 200 159zM0 -36c0 68 73 174 200 174c66 0 114 -39 114 -97c0 -84 -106 -173 -218 -173c-64 0 -96 32 -96 96z" /></g><g id="E0A4"><path transform="scale(1,-1)" d="M0 -39c0 68 73 172 200 172c66 0 114 -37 114 -95c0 -84 -106 -171 -218 -171c-64 0 -96 30 -96 94z" /></g><g id="E261"><path transform="scale(1,-1)" d="M0 -188v539h18v-191l139 22v-533h-17v186zM18 -100l122 17v176l-122 -19v-174z" /></g><g id="E4E5"><path transform="scale(1,-1)" d="M107 292c-13 24 -30 49 -52 71c-1 1 0 2 0 3l-2 2c3 3 4 4 6 4c12 0 26 -7 40 -20s44 -40 89 -81c26 -24 28 -29 46 -47c4 -4 8 -9 10 -14c6 -8 8 -16 8 -27c0 -19 -12 -40 -36 -61c-28 -23 -49 -38 -61 -73c-4 -11 -7 -27 -10 -50c13 -43 34 -83 59 -121 c31 -47 59 -79 101 -129c-8 0 -26 7 -54 20l-62 29l-21 6l-23 1c-25 0 -45 -10 -60 -30l-4 -14l-1 -12c0 -33 20 -56 39 -78c8 -9 17 -18 26 -26c17 -15 27 -24 28 -30l-3 -3c-11 5 -19 10 -25 15c-9 3 -37 21 -45 26c-24 14 -45 32 -63 51c-19 21 -37 44 -37 71 c0 63 27 95 80 95c41 0 86 -18 136 -52c-19 26 -37 48 -55 66c-23 23 -48 44 -73 65c-28 23 -47 40 -58 53s-17 26 -18 39c75 64 113 125 113 183c0 27 -7 48 -18 68z" /></g></defs><g transform="translate(100, 300)"><path d="M0 540 L2973 540" stroke-width="13" stroke="#000" /><path d="M0 720 L2973 720" stroke-width="13" stroke="#000" /><path d="M0 900 L2973 900" stroke-width="13" stroke="#000" /><path d="M0 1080 L2973 1080" stroke-width="13" stroke="#000" /><path d="M0 1260 L2973 1260" stroke-width="13" stroke="#000" /><use transform="translate(90, 1080) scale(0.72, 0.72)" xlink:href="#E050" /><use transform="translate(735, 900) scale(0.72, 0.72)" xlink:href="#E260" /><use transform="translate(1191, 1170) scale(0.72, 0.72)" xlink:href="#E0A3" /><path d="M1408 1142 L1408 540" stroke-width="18" stroke="#000" /><path d="M2973 540 L5650 540" stroke-width="13" stroke="#000" /><path d="M2973 720 L5650 720" stroke-width="13" stroke="#000" /><path d="M2973 900 L5650 900" stroke-width="13" stroke="#000" /><path d="M2973 1080 L5650 1080" stroke-width="13" stroke="#000" /><path d="M2973 1260 L5650 1260" stroke-width="13" stroke="#000" /><use transform="translate(3197, 1080) scale(0.72, 0.72)" xlink:href="#E0A4" /><path d="M3414 1052 L3414 450" stroke-width="18" stroke="#000" /><use transform="translate(4423, 990) scale(0.72, 0.72)" xlink:href="#E0A4" /><path d="M4640 962 L4640 360" stroke-width="18" stroke="#000" /><path d="M5650 540 L7851 540" stroke-width="13" stroke="#000" /><path d="M5650 720 L7851 720" stroke-width="13" stroke="#000" /><path d="M5650 900 L7851 900" stroke-width="13" stroke="#000" /><path d="M5650 1080 L7851 1080" stroke-width="13" stroke="#000" /><path d="M5650 1260 L7851 1260" stroke-width="13" stroke="#000" /><use transform="translate(6069, 900) scale(0.72, 0.72)" xlink:href="#E0A3" /><path d="M6078 925 L6078 1500" stroke-width="18" stroke="#000" /><use transform="translate(5911, 900) scale(0.72, 0.72)" xlink:href="#E261" /><path d="M7851 540 L9301 540" stroke-width="13" stroke="#000" /><path d="M7851 720 L9301 720" stroke-width="13" stroke="#000" /><path d="M7851 900 L9301 900" stroke-width="13" stroke="#000" /><path d="M7851 1080 L9301 1080" stroke-width="13" stroke="#000" /><path d="M7851 1260 L9301 1260" stroke-width="13" stroke="#000" /><use transform="translate(8075, 900) scale(0.72, 0.72)" xlink:href="#E4E5" /><path d="M0 2880 L2180 2880" stroke-width="13" stroke="#000" /><path d="M0 3060 L2180 3060" stroke-width="13" stroke="#000" /><path d="M0 3240 L2180 3240" stroke-width="13" stroke="#000" /><path d="M0 3420 L2180 3420" stroke-width="13" stroke="#000" /><path d="M0 3600 L2180 3600" stroke-width="13" stroke="#000" /><use transform="translate(90, 3420) scale(0.72, 0.72)" xlink:href="#E050" /><use transform="translate(735, 3240) scale(0.72, 0.72)" xlink:href="#E260" /><use transform="translate(1294, 3240) scale(0.72, 0.72)" xlink:href="#E0A4" /><path d="M1303 3268 L1303 3840" stroke-width="18" stroke="#000" /><use transform="translate(1136, 3240) scale(0.72, 0.72)" xlink:href="#E261" /><use transform="translate(1737, 3150) scale(0.72, 0.72)" xlink:href="#E0A4" /><path d="M1746 3178 L1746 3780" stroke-width="18" stroke="#000" /><path d="M2180 2880 L3241 2880" stroke-width="13" stroke="#000" /><path d="M2180 3060 L3241 3060" stroke-width="13" stroke="#000" /><path d="M2180 3240 L3241 3240" stroke-width="13" stroke="#000" /><path d="M2180 3420 L3241 3420" stroke-width="13" stroke="#000" /><path d="M2180 3600 L3241 3600" stroke-width="13" stroke="#000" /><use transform="translate(2354, 3420) scale(0.72, 0.72)" xlink:href="#E0A4" /><path d="M2571 3392 L2571 2790" stroke-width="18" stroke="#000" /><use transform="translate(2798, 3420) scale(0.72, 0.72)" xlink:href="#E0A4" /><path d="M3015 3392 L3015 2790" stroke-width="18" stroke="#000" /><path d="M3241 2880 L4672 2880" stroke-width="13" stroke="#000" /><path d="M3241 3060 L4672 3060" stroke-width="13" stroke="#000" /><path d="M3241 3240 L4672 3240" stroke-width="13" stroke="#000" /><path d="M3241 3420 L4672 3420" stroke-width="13" stroke="#000" /><path d="M3241 3600 L4672 3600" stroke-width="13" stroke="#000" /><use transform="translate(3415, 3240) scale(0.72, 0.72)" xlink:href="#E0A4" /><path d="M3424 3268 L3424 3840" stroke-width="18" stroke="#000" /><use transform="translate(3859, 3330) scale(0.72, 0.72)" xlink:href="#E0A3" /><ellipse cx="4175" cy="3330" rx="36" ry="36" /><path d="M4076 3302 L4076 2700" stroke-width="18" stroke="#000" /><path d="M4672 2880 L6043 2880" stroke-width="13" stroke="#000" /><path d="M4672 3060 L6043 3060" stroke-width="13" stroke="#000" /><path d="M4672 3240 L6043 3240" stroke-width="13" stroke="#000" /><path d="M4672 3420 L6043 3420" stroke-width="13" stroke="#000" /><path d="M4672 3600 L6043 3600" stroke-width="13" stroke="#000" /><use transform="translate(4846, 3420) scale(0.72, 0.72)" xlink:href="#E0A4" /><path d="M5063 3392 L5063 2790" stroke-width="18" stroke="#000" /><polygon points="5498,2700 5973,2655 5973,2745 5498,2790" /><use transform="translate(5290, 3330) scale(0.72, 0.72)" xlink:href="#E0A4" /><path d="M5507 3302 L5507 2718" stroke-width="18" stroke="#000" /><use transform="translate(5747, 3240) scale(0.72, 0.72)" xlink:href="#E0A4" /><path d="M5964 3212 L5964 2673" stroke-width="18" stroke="#000" /><use transform="translate(5589, 3240) scale(0.72, 0.72)" xlink:href="#E261" /><path d="M6043 2880 L7104 2880" stroke-width="13" stroke="#000" /><path d="M6043 3060 L7104 3060" stroke-width="13" stroke="#000" /><path d="M6043 3240 L7104 3240" stroke-width="13" stroke="#000" /><path d="M6043 3420 L7104 3420" stroke-width="13" stroke="#000" /><path d="M6043 3600 L7104 3600" stroke-width="13" stroke="#000" /><use transform="translate(6217, 3150) scale(0.72, 0.72)" xlink:href="#E0A4" /><path d="M6226 3178 L6226 3780" stroke-width="18" stroke="#000" /><use transform="translate(6661, 3150) scale(0.72, 0.72)" xlink:href="#E0A4" /><path d="M6670 3178 L6670 3780" stroke-width="18" stroke="#000" /><path d="M7104 2880 L8687 2880" stroke-width="13" stroke="#000" /><path d="M7104 3060 L8687 3060" stroke-width="13" stroke="#000" /><path d="M7104 3240 L8687 3240" stroke-width="13" stroke="#000" /><path d="M7104 3420 L8687 3420" stroke-width="13" stroke="#000" /><path d="M7104 3600 L8687 3600" stroke-width="13" stroke="#000" /><use transform="translate(7431, 3240) scale(0.72, 0.72)" xlink:href="#E0A4" /><path d="M7440 3268 L7440 3840" stroke-width="18" stroke="#000" /><use transform="translate(7273, 3240) scale(0.72, 0.72)" xlink:href="#E261" /><use transform="translate(7874, 3150) scale(0.72, 0.72)" xlink:href="#E0A3" /><ellipse cx="8190" cy="3150" rx="36" ry="36" /><path d="M7883 3175 L7883 3780" stroke-width="18" stroke="#000" /><path d="M8687 2880 L9305 2880" stroke-width="13" stroke="#000" /><path d="M8687 3060 L9305 3060" stroke-width="13" stroke="#000" /><path d="M8687 3240 L9305 3240" stroke-width="13" stroke="#000" /><path d="M8687 3420 L9305 3420" stroke-width="13" stroke="#000" /><path d="M8687 3600 L9305 3600" stroke-width="13" stroke="#000" /><use transform="translate(8861, 3240) scale(0.72, 0.72)" xlink:href="#E4E5" /><path d="M0 5220 L1863 5220" stroke-width="13" stroke="#000" /><path d="M0 5400 L1863 5400" stroke-width="13" stroke="#000" /><path d="M0 5580 L1863 5580" stroke-width="13" stroke="#000" /><path d="M0 5760 L1863 5760" stroke-width="13" stroke="#000" /><path d="M0 5940 L1863 5940" stroke-width="13" stroke="#000" /><use transform="translate(90, 5760) scale(0.72, 0.72)" xlink:href="#E050" /><use transform="translate(735, 5580) scale(0.72, 0.72)" xlink:href="#E260" /><use transform="translate(1144, 5850) scale(0.72, 0.72)" xlink:href="#E0A3" /><path d="M1361 5822 L1361 5220" stroke-width="18" stroke="#000" /><path d="M1863 5220 L3029 5220" stroke-width="13" stroke="#000" /><path d="M1863 5400 L3029 5400" stroke-width="13" stroke="#000" /><path d="M1863 5580 L3029 5580" stroke-width="13" stroke="#000" /><path d="M1863 5760 L3029 5760" stroke-width="13" stroke="#000" /><path d="M1863 5940 L3029 5940" stroke-width="13" stroke="#000" /><use transform="translate(2040, 5760) scale(0.72, 0.72)" xlink:href="#E0A4" /><path d="M2257 5732 L2257 5130" stroke-width="18" stroke="#000" /><use transform="translate(2535, 5670) scale(0.72, 0.72)" xlink:href="#E0A4" /><path d="M2752 5642 L2752 5040" stroke-width="18" stroke="#000" /><path d="M3029 5220 L4080 5220" stroke-width="13" stroke="#000" /><path d="M3029 5400 L4080 5400" stroke-width="13" stroke="#000" /><path d="M3029 5580 L4080 5580" stroke-width="13" stroke="#000" /><path d="M3029 5760 L4080 5760" stroke-width="13" stroke="#000" /><path d="M3029 5940 L4080 5940" stroke-width="13" stroke="#000" /><use transform="translate(3362, 5580) scale(0.72, 0.72)" xlink:href="#E0A3" /><path d="M3371 5605 L3371 6180" stroke-width="18" stroke="#000" /><use transform="translate(3204, 5580) scale(0.72, 0.72)" xlink:href="#E261" /><path d="M4080 5220 L4752 5220" stroke-width="13" stroke="#000" /><path d="M4080 5400 L4752 5400" stroke-width="13" stroke="#000" /><path d="M4080 5580 L4752 5580" stroke-width="13" stroke="#000" /><path d="M4080 5760 L4752 5760" stroke-width="13" stroke="#000" /><path d="M4080 5940 L4752 5940" stroke-width="13" stroke="#000" /><use transform="translate(4257, 5580) scale(0.72, 0.72)" xlink:href="#E4E5" /><path d="M4752 5220 L6074 5220" stroke-width="13" stroke="#000" /><path d="M4752 5400 L6074 5400" stroke-width="13" stroke="#000" /><path d="M4752 5580 L6074 5580" stroke-width="13" stroke="#000" /><path d="M4752 5760 L6074 5760" stroke-width="13" stroke="#000" /><path d="M4752 5940 L6074 5940" stroke-width="13" stroke="#000" /><use transform="translate(5085, 5580) scale(0.72, 0.72)" xlink:href="#E0A4" /><path d="M5094 5608 L5094 6180" stroke-width="18" stroke="#000" /><use transform="translate(4927, 5580) scale(0.72, 0.72)" xlink:href="#E261" /><use transform="translate(5579, 5490) scale(0.72, 0.72)" xlink:href="#E0A4" /><path d="M5588 5518 L5588 6120" stroke-width="18" stroke="#000" /><path d="M6074 5220 L7240 5220" stroke-width="13" stroke="#000" /><path d="M6074 5400 L7240 5400" stroke-width="13" stroke="#000" /><path d="M6074 5580 L7240 5580" stroke-width="13" stroke="#000" /><path d="M6074 5760 L7240 5760" stroke-width="13" stroke="#000" /><path d="M6074 5940 L7240 5940" stroke-width="13" stroke="#000" /><use transform="translate(6251, 5760) scale(0.72, 0.72)" xlink:href="#E0A4" /><path d="M6468 5732 L6468 5130" stroke-width="18" stroke="#000" /><use transform="translate(6746, 5760) scale(0.72, 0.72)" xlink:href="#E0A4" /><path d="M6963 5732 L6963 5130" stroke-width="18" stroke="#000" /><path d="M7240 5220 L8631 5220" stroke-width="13" stroke="#000" /><path d="M7240 5400 L8631 5400" stroke-width="13" stroke="#000" /><path d="M7240 5580 L8631 5580" stroke-width="13" stroke="#000" /><path d="M7240 5760 L8631 5760" stroke-width="13" stroke="#000" /><path d="M7240 5940 L8631 5940" stroke-width="13" stroke="#000" /><use transform="translate(7417, 5580) scale(0.72, 0.72)" xlink:href="#E0A4" /><path d="M7426 5608 L7426 6180" stroke-width="18" stroke="#000" /><use transform="translate(7912, 5670) scale(0.72, 0.72)" xlink:href="#E0A3" /><path d="M8129 5642 L8129 5040" stroke-width="18" stroke="#000" /><path d="M8631 5220 L9303 5220" stroke-width="13" stroke="#000" /><path d="M8631 5400 L9303 5400" stroke-width="13" stroke="#000" /><path d="M8631 5580 L9303 5580" stroke-width="13" stroke="#000" /><path d="M8631 5760 L9303 5760" stroke-width="13" stroke="#000" /><path d="M8631 5940 L9303 5940" stroke-width="13" stroke="#000" /><use transform="translate(8808, 5580) scale(0.72, 0.72)" xlink:href="#E4E5" /><path d="M0 7560 L3372 7560" stroke-width="13" stroke="#000" /><path d="M0 7740 L3372 7740" stroke-width="13" stroke="#000" /><path d="M0 7920 L3372 7920" stroke-width="13" stroke="#000" /><path d="M0 8100 L3372 8100" stroke-width="13" stroke="#000" /><path d="M0 8280 L3372 8280" stroke-width="13" stroke="#000" /><use transform="translate(90, 8100) scale(0.72, 0.72)" xlink:href="#E050" /><use transform="translate(735, 7920) scale(0.72, 0.72)" xlink:href="#E260" /><use transform="translate(1167, 8100) scale(0.72, 0.72)" xlink:href="#E0A4" /><path d="M1384 8072 L1384 7470" stroke-width="18" stroke="#000" /><polygon points="2320,7425 2968,7335 2968,7425 2320,7515" /><use transform="translate(2112, 8010) scale(0.72, 0.72)" xlink:href="#E0A4" /><path d="M2329 7982 L2329 7443" stroke-width="18" stroke="#000" /><use transform="translate(2742, 7920) scale(0.72, 0.72)" xlink:href="#E0A4" /><path d="M2959 7892 L2959 7353" stroke-width="18" stroke="#000" /><use transform="translate(2584, 7920) scale(0.72, 0.72)" xlink:href="#E261" /><path d="M3372 7560 L5463 7560" stroke-width="13" stroke="#000" /><path d="M3372 7740 L5463 7740" stroke-width="13" stroke="#000" /><path d="M3372 7920 L5463 7920" stroke-width="13" stroke="#000" /><path d="M3372 8100 L5463 8100" stroke-width="13" stroke="#000" /><path d="M3372 8280 L5463 8280" stroke-width="13" stroke="#000" /><use transform="translate(3572, 7830) scale(0.72, 0.72)" xlink:href="#E0A4" /><path d="M3581 7858 L3581 8460" stroke-width="18" stroke="#000" /><use transform="translate(4517, 7830) scale(0.72, 0.72)" xlink:href="#E0A4" /><path d="M4526 7858 L4526 8460" stroke-width="18" stroke="#000" /><path d="M5463 7560 L8157 7560" stroke-width="13" stroke="#000" /><path d="M5463 7740 L8157 7740" stroke-width="13" stroke="#000" /><path d="M5463 7920 L8157 7920" stroke-width="13" stroke="#000" /><path d="M5463 8100 L8157 8100" stroke-width="13" stroke="#000" /><path d="M5463 8280 L8157 8280" stroke-width="13" stroke="#000" /><use transform="translate(5838, 7920) scale(0.72, 0.72)" xlink:href="#E0A4" /><path d="M5847 7948 L5847 8520" stroke-width="18" stroke="#000" /><use transform="translate(5680, 7920) scale(0.72, 0.72)" xlink:href="#E261" /><use transform="translate(6783, 7830) scale(0.72, 0.72)" xlink:href="#E0A3" /><path d="M6792 7855 L6792 8460" stroke-width="18" stroke="#000" /><path d="M8157 7560 L9302 7560" stroke-width="13" stroke="#000" /><path d="M8157 7740 L9302 7740" stroke-width="13" stroke="#000" /><path d="M8157 7920 L9302 7920" stroke-width="13" stroke="#000" /><path d="M8157 8100 L9302 8100" stroke-width="13" stroke="#000" /><path d="M8157 8280 L9302 8280" stroke-width="13" stroke="#000" /><use transform="translate(8357, 7920) scale(0.72, 0.72)" xlink:href="#E4E5" /><path d="M0 9900 L2477 9900" stroke-width="13" stroke="#000" /><path d="M0 10080 L2477 10080" stroke-width="13" stroke="#000" /><path d="M0 10260 L2477 10260" stroke-width="13" stroke="#000" /><path d="M0 10440 L2477 10440" stroke-width="13" stroke="#000" /><path d="M0 10620 L2477 10620" stroke-width="13" stroke="#000" /><use transform="translate(90, 10440) scale(0.72, 0.72)" xlink:href="#E050" /><use transform="translate(735, 10260) scale(0.72, 0.72)" xlink:href="#E260" /><use transform="translate(1150, 10440) scale(0.72, 0.72)" xlink:href="#E0A4" /><path d="M1367 10412 L1367 9810" stroke-width="18" stroke="#000" /><use transform="translate(1814, 10440) scale(0.72, 0.72)" xlink:href="#E0A4" /><path d="M2031 10412 L2031 9810" stroke-width="18" stroke="#000" /><path d="M2477 9900 L3987 9900" stroke-width="13" stroke="#000" /><path d="M2477 10080 L3987 10080" stroke-width="13" stroke="#000" /><path d="M2477 10260 L3987 10260" stroke-width="13" stroke="#000" /><path d="M2477 10440 L3987 10440" stroke-width="13" stroke="#000" /><path d="M2477 10620 L3987 10620" stroke-width="13" stroke="#000" /><use transform="translate(2660, 10440) scale(0.72, 0.72)" xlink:href="#E0A4" /><path d="M2877 10412 L2877 9810" stroke-width="18" stroke="#000" /><use transform="translate(3324, 10350) scale(0.72, 0.72)" xlink:href="#E0A4" /><path d="M3541 10322 L3541 9720" stroke-width="18" stroke="#000" /><path d="M3987 9900 L5497 9900" stroke-width="13" stroke="#000" /><path d="M3987 10080 L5497 10080" stroke-width="13" stroke="#000" /><path d="M3987 10260 L5497 10260" stroke-width="13" stroke="#000" /><path d="M3987 10440 L5497 10440" stroke-width="13" stroke="#000" /><path d="M3987 10620 L5497 10620" stroke-width="13" stroke="#000" /><use transform="translate(4170, 10440) scale(0.72, 0.72)" xlink:href="#E0A4" /><path d="M4387 10412 L4387 9810" stroke-width="18" stroke="#000" /><use transform="translate(4834, 10260) scale(0.72, 0.72)" xlink:href="#E0A4" /><path d="M4843 10288 L4843 10860" stroke-width="18" stroke="#000" /><path d="M5497 9900 L7308 9900" stroke-width="13" stroke="#000" /><path d="M5497 10080 L7308 10080" stroke-width="13" stroke="#000" /><path d="M5497 10260 L7308 10260" stroke-width="13" stroke="#000" /><path d="M5497 10440 L7308 10440" stroke-width="13" stroke="#000" /><path d="M5497 10620 L7308 10620" stroke-width="13" stroke="#000" /><use transform="translate(5680, 10350) scale(0.72, 0.72)" xlink:href="#E0A4" /><path d="M5897 10322 L5897 9720" stroke-width="18" stroke="#000" /><use transform="translate(6344, 10350) scale(0.72, 0.72)" xlink:href="#E0A3" /><path d="M6561 10322 L6561 9720" stroke-width="18" stroke="#000" /><path d="M7308 9900 L8456 9900" stroke-width="13" stroke="#000" /><path d="M7308 10080 L8456 10080" stroke-width="13" stroke="#000" /><path d="M7308 10260 L8456 10260" stroke-width="13" stroke="#000" /><path d="M7308 10440 L8456 10440" stroke-width="13" stroke="#000" /><path d="M7308 10620 L8456 10620" stroke-width="13" stroke="#000" /><use transform="translate(7491, 10440) scale(0.72, 0.72)" xlink:href="#E0A3" /><path d="M7708 10412 L7708 9810" stroke-width="18" stroke="#000" /><path d="M8456 9900 L9303 9900" stroke-width="13" stroke="#000" /><path d="M8456 10080 L9303 10080" stroke-width="13" stroke="#000" /><path d="M8456 10260 L9303 10260" stroke-width="13" stroke="#000" /><path d="M8456 10440 L9303 10440" stroke-width="13" stroke="#000" /><path d="M8456 10620 L9303 10620" stroke-width="13" stroke="#000" /><use transform="translate(8639, 10260) scale(0.72, 0.72)" xlink:href="#E4E5" /><path d="M0 12240 L2720 12240" stroke-width="13" stroke="#000" /><path d="M0 12420 L2720 12420" stroke-width="13" stroke="#000" /><path d="M0 12600 L2720 12600" stroke-width="13" stroke="#000" /><path d="M0 12780 L2720 12780" stroke-width="13" stroke="#000" /><path d="M0 12960 L2720 12960" stroke-width="13" stroke="#000" /><use transform="translate(90, 12780) scale(0.72, 0.72)" xlink:href="#E050" /><use transform="translate(735, 12600) scale(0.72, 0.72)" xlink:href="#E260" /><use transform="translate(1153, 12780) scale(0.72, 0.72)" xlink:href="#E0A4" /><path d="M1370 12752 L1370 12150" stroke-width="18" stroke="#000" /><use transform="translate(1936, 12780) scale(0.72, 0.72)" xlink:href="#E0A4" /><path d="M2153 12752 L2153 12150" stroke-width="18" stroke="#000" /><path d="M2720 12240 L4473 12240" stroke-width="13" stroke="#000" /><path d="M2720 12420 L4473 12420" stroke-width="13" stroke="#000" /><path d="M2720 12600 L4473 12600" stroke-width="13" stroke="#000" /><path d="M2720 12780 L4473 12780" stroke-width="13" stroke="#000" /><path d="M2720 12960 L4473 12960" stroke-width="13" stroke="#000" /><use transform="translate(2906, 12780) scale(0.72, 0.72)" xlink:href="#E0A4" /><path d="M3123 12752 L3123 12150" stroke-width="18" stroke="#000" /><use transform="translate(3689, 12690) scale(0.72, 0.72)" xlink:href="#E0A4" /><path d="M3906 12662 L3906 12060" stroke-width="18" stroke="#000" /><path d="M4473 12240 L6226 12240" stroke-width="13" stroke="#000" /><path d="M4473 12420 L6226 12420" stroke-width="13" stroke="#000" /><path d="M4473 12600 L6226 12600" stroke-width="13" stroke="#000" /><path d="M4473 12780 L6226 12780" stroke-width="13" stroke="#000" /><path d="M4473 12960 L6226 12960" stroke-width="13" stroke="#000" /><use transform="translate(4659, 12780) scale(0.72, 0.72)" xlink:href="#E0A4" /><path d="M4876 12752 L4876 12150" stroke-width="18" stroke="#000" /><use transform="translate(5442, 12600) scale(0.72, 0.72)" xlink:href="#E0A4" /><path d="M5451 12628 L5451 13200" stroke-width="18" stroke="#000" /><path d="M6226 12240 L8334 12240" stroke-width="13" stroke="#000" /><path d="M6226 12420 L8334 12420" stroke-width="13" stroke="#000" /><path d="M6226 12600 L8334 12600" stroke-width="13" stroke="#000" /><path d="M6226 12780 L8334 12780" stroke-width="13" stroke="#000" /><path d="M6226 12960 L8334 12960" stroke-width="13" stroke="#000" /><use transform="translate(6412, 12690) scale(0.72, 0.72)" xlink:href="#E0A4" /><path d="M6629 12662 L6629 12060" stroke-width="18" stroke="#000" /><use transform="translate(7195, 12690) scale(0.72, 0.72)" xlink:href="#E0A3" /><path d="M7412 12662 L7412 12060" stroke-width="18" stroke="#000" /><path d="M8334 12240 L9303 12240" stroke-width="13" stroke="#000" /><path d="M8334 12420 L9303 12420" stroke-width="13" stroke="#000" /><path d="M8334 12600 L9303 12600" stroke-width="13" stroke="#000" /><path d="M8334 12780 L9303 12780" stroke-width="13" stroke="#000" /><path d="M8334 12960 L9303 12960" stroke-width="13" stroke="#000" /><use transform="translate(8520, 12780) scale(0.72, 0.72)" xlink:href="#E0A4" /><path d="M8737 12752 L8737 12150" stroke-width="18" stroke="#000" /><path d="M0 14580 L3014 14580" stroke-width="13" stroke="#000" /><path d="M0 14760 L3014 14760" stroke-width="13" stroke="#000" /><path d="M0 14940 L3014 14940" stroke-width="13" stroke="#000" /><path d="M0 15120 L3014 15120" stroke-width="13" stroke="#000" /><path d="M0 15300 L3014 15300" stroke-width="13" stroke="#000" /><use transform="translate(90, 15120) scale(0.72, 0.72)" xlink:href="#E050" /><use transform="translate(735, 14940) scale(0.72, 0.72)" xlink:href="#E260" /><use transform="translate(1147, 14850) scale(0.72, 0.72)" xlink:href="#E0A4" /><path d="M1156 14878 L1156 15480" stroke-width="18" stroke="#000" /><use transform="translate(1908, 15030) scale(0.72, 0.72)" xlink:href="#E0A3" /><path d="M2125 15002 L2125 14400" stroke-width="18" stroke="#000" /><path d="M3014 14580 L4300 14580" stroke-width="13" stroke="#000" /><path d="M3014 14760 L4300 14760" stroke-width="13" stroke="#000" /><path d="M3014 14940 L4300 14940" stroke-width="13" stroke="#000" /><path d="M3014 15120 L4300 15120" stroke-width="13" stroke="#000" /><path d="M3014 15300 L4300 15300" stroke-width="13" stroke="#000" /><use transform="translate(3194, 15120) scale(0.72, 0.72)" xlink:href="#E0A3" /><path d="M3411 15092 L3411 14490" stroke-width="18" stroke="#000" /><path d="M4300 14580 L6051 14580" stroke-width="13" stroke="#000" /><path d="M4300 14760 L6051 14760" stroke-width="13" stroke="#000" /><path d="M4300 14940 L6051 14940" stroke-width="13" stroke="#000" /><path d="M4300 15120 L6051 15120" stroke-width="13" stroke="#000" /><path d="M4300 15300 L6051 15300" stroke-width="13" stroke="#000" /><use transform="translate(4480, 15210) scale(0.72, 0.72)" xlink:href="#E0A3" /><ellipse cx="4796" cy="15210" rx="36" ry="36" /><path d="M4697 15182 L4697 14580" stroke-width="18" stroke="#000" /><path d="M5876 14580 L5876 15300" stroke-width="27" stroke="#000" /><path d="M6006 14580 L6006 15300" stroke-width="90" stroke="#000" /></g></svg>
