<svg xmlns="http://www.w3.org/2000/svg" xmlns:xlink="http://www.w3.org/1999/xlink" viewBox="0 0 9500 19340"><defs><g id="E050"><path transform="scale(1,-1)" d="M441 -245c-23 -4 -48 -6 -76 -6c-59 0 -102 7 -130 20c-88 42 -150 93 -187 154c-26 44 -43 103 -48 176c0 6 -1 13 -1 19c0 54 15 111 45 170c29 57 65 106 110 148s96 85 153 127c-3 16 -8 46 -13 92c-4 43 -5 73 -5 89c0 117 16 172 69 257c34 54 64 82 89 82 c21 0 43 -30 69 -92s39 -115 41 -159v-15c0 -109 -21 -162 -67 -241c-13 -20 -63 -90 -98 -118c-13 -9 -25 -19 -37 -29l31 -181c8 1 18 2 28 2c58 0 102 -12 133 -35c59 -43 92 -104 98 -184c1 -7 1 -15 1 -22c0 -123 -87 -209 -181 -248c8 -57 17 -110 25 -162 c5 -31 6 -58 6 -80c0 -30 -5 -53 -14 -70c-35 -64 -88 -99 -158 -103c-5 0 -11 -1 -16 -1c-37 0 -72 10 -108 27c-50 24 -77 59 -80 105v11c0 29 7 55 20 76c18 28 45 42 79 44h6c49 0 93 -42 97 -87v-9c0 -51 -34 -86 -105 -106c17 -24 51 -36 102 -36c62 0 116 43 140 85 c9 16 13 41 13 74c0 20 -1 42 -5 67c-8 53 -18 106 -26 159zM461 939c-95 0 -135 -175 -135 -286c0 -24 2 -48 5 -71c50 39 92 82 127 128c40 53 60 100 60 140v8c-4 53 -22 81 -55 81h-2zM406 119l54 -326c73 25 110 78 110 161c0 7 0 15 -1 23c-7 95 -57 142 -151 142h-12 zM382 117c-72 -2 -128 -47 -128 -120v-7c2 -46 43 -99 75 -115c-3 -2 -7 -5 -10 -10c-70 33 -116 88 -123 172v11c0 68 44 126 88 159c23 17 49 29 78 36l-29 170c-21 -13 -52 -37 -92 -73c-50 -44 -86 -84 -109 -119c-45 -69 -67 -130 -67 -182v-13c5 -68 35 -127 93 -176 s125 -73 203 -73c25 0 50 3 75 9c-19 111 -36 221 -54 331z" /></g><g id="E260"><path transform="scale(1,-1)" d="M20 110c32 16 54 27 93 27c26 0 35 -3 54 -13c13 -7 24 -20 27 -38l4 -25c0 -28 -16 -57 -45 -89c-23 -25 -39 -44 -65 -68l-88 -79v644h20v-359zM90 106c-32 0 -48 -10 -70 -29v-194c31 31 54 59 71 84c21 32 32 59 32 84c0 9 1 16 1 20c0 14 -3 21 -11 30l-8 3z" /></g><g id="E0A4"><path transform="scale(1,-1)" d="M0 -39c0 68 73 172 200 172c66 0 114 -37 114 -95c0 -84 -106 -171 -218 -171c-64 0 -96 30 -96 94z" /></g><g id="E0A3"><path transform="scale(1,-1)" d="M278 64c0 22 -17 39 -43 39c-12 0 -26 -3 -41 -10c-85 -43 -165 -94 -165 -156c5 -25 15 -32 49 -32c67 11 200 95 200 159zM0 -36c0 68 73 174 200 174c66 0 114 -39 114 -97c0 -84 -106 -173 -218 -173c-64 0 -96 32 -96 96z" /></g><g id="E261"><path transform="scale(1,-1)" d="M0 -188v539h18v-191l139 22v-533h-17v186zM18 -100l122 17v176l-122 -19v-174z" /></g><g id="E4E5"><path transform="scale(1,-1)" d="M107 292c-13 24 -30 49 -52 71c-1 1 0 2 0 3l-2 2c3 3 4 4 6 4c12 0 26 -7 40 -20s44 -40 89 -81c26 -24 28 -29 46 -47c4 -4 8 -9 10 -14c6 -8 8 -16 8 -27c0 -19 -12 -40 -36 -61c-28 -23 -49 -38 -61 -73c-4 -11 -7 -27 -10 -50c13 -43 34 -83 59 -121 c31 -47 59 -79 101 -129c-8 0 -26 7 -54 20l-62 29l-21 6l-23 1c-25 0 -45 -10 -60 -30l-4 -14l-1 -12c0 -33 20 -56 39 -78c8 -9 17 -18 26 -26c17 -15 27 -24 28 -30l-3 -3c-11 5 -19 10 -25 15c-9 3 -37 21 -45 26c-24 14 -45 32 -63 51c-19 21 -37 44 -37 71 c0 63 27 95 80 95c41 0 86 -18 136 -52c-19 26 -37 48 -55 66c-23 23 -48 44 -73 65c-28 23 -47 40 -58 53s-17 26 -18 39c75 64 113 125 113 183c0 27 -7 48 -18 68z" /></g></defs><g transform="translate(100, 300)"><path d="M0 540 L3484 540" stroke-width="13" stroke="#000" /><path d="M0 720 L3484 720" stroke-width="13" stroke="#000" /><path d="M0 900 L3484 900" stroke-width="13" stroke="#000" /><path d="M0 1080 L3484 1080" stroke-width="13" stroke="#000" /><path d="M0 1260 L3484 1260" stroke-width="13" stroke="#000" /><use transform="translate(90, 1080) scale(0.72, 0.72)" xlink:href="#E050" /><use transform="translate(735, 900) scale(0.72, 0.72)" xlink:href="#E260" /><use transform="translate(1217, 1350) scale(0.72, 0.72)" xlink:href="#E0A4" /><path d="M1434 1322 L1434 720" stroke-width="18" stroke="#000" /><text x="1133" y="1780" font-family="Tinos" font-size="378">BE</text><rect x="1796" y="1685" height="20" width="84" /><use transform="translate(2192, 1170) scale(0.72, 0.72)" xlink:href="#E0A4" /><path d="M2409 1142 L2409 540" stroke-width="18" stroke="#000" /><text x="2060" y="1780" font-family="Tinos" font-size="378">FIEHL</text><path d="M3484 540 L6659 540" stroke-width="13" stroke="#000" /><path d="M3484 720 L6659 720" stroke-width="13" stroke="#000" /><path d="M3484 900 L6659 900" stroke-width="13" stroke="#000" /><path d="M3484 1080 L6659 1080" stroke-width="13" stroke="#000" /><path d="M3484 1260 L6659 1260" stroke-width="13" stroke="#000" /><use transform="translate(3734, 1260) scale(0.72, 0.72)" xlink:href="#E0A4" /><path d="M3951 1232 L3951 630" stroke-width="18" stroke="#000" /><text x="3650" y="1780" font-family="Tinos" font-size="378">du</text><use transform="translate(4709, 1170) scale(0.72, 0.72)" xlink:href="#E0A4" /><path d="M4926 1142 L4926 540" stroke-width="18" stroke="#000" /><text x="4625" y="1780" font-family="Tinos" font-size="378">dei</text><rect x="5302" y="1685" height="20" width="84" /><use transform="translate(5684, 1080) scale(0.72, 0.72)" xlink:href="#E0A4" /><path d="M5901 1052 L5901 450" stroke-width="18" stroke="#000" /><text x="5600" y="1780" font-family="Tinos" font-size="378">ne</text><path d="M6659 540 L9301 540" stroke-width="13" stroke="#000" /><path d="M6659 720 L9301 720" stroke-width="13" stroke="#000" /><path d="M6659 900 L9301 900" stroke-width="13" stroke="#000" /><path d="M6659 1080 L9301 1080" stroke-width="13" stroke="#000" /><path d="M6659 1260 L9301 1260" stroke-width="13" stroke="#000" /><use transform="translate(6909, 990) scale(0.72, 0.72)" xlink:href="#E0A3" /><path d="M7126 962 L7126 360" stroke-width="18" stroke="#000" /><text x="6825" y="1780" font-family="Tinos" font-size="378">We</text><rect x="7754" y="1685" height="20" width="84" /><use transform="translate(8326, 990) scale(0.72, 0.72)" xlink:href="#E0A4" /><path d="M8543 962 L8543 360" stroke-width="18" stroke="#000" /><text x="8242" y="1780" font-family="Tinos" font-size="378">ge</text><path d="M0 2942 L3186 2942" stroke-width="13" stroke="#000" /><path d="M0 3122 L3186 3122" stroke-width="13" stroke="#000" /><path d="M0 3302 L3186 3302" stroke-width="13" stroke="#000" /><path d="M0 3482 L3186 3482" stroke-width="13" stroke="#000" /><path d="M0 3662 L3186 3662" stroke-width="13" stroke="#000" /><use transform="translate(90, 3482) scale(0.72, 0.72)" xlink:href="#E050" /><use transform="translate(735, 3302) scale(0.72, 0.72)" xlink:href="#E260" /><use transform="translate(1207, 3212) scale(0.72, 0.72)" xlink:href="#E0A4" /><path d="M1216 3240 L1216 3842" stroke-width="18" stroke="#000" /><text x="1123" y="4206" font-family="Tinos" font-size="378">und</text><use transform="translate(2197, 3302) scale(0.72, 0.72)" xlink:href="#E0A4" /><path d="M2206 3330 L2206 3902" stroke-width="18" stroke="#000" /><use transform="translate(2039, 3302) scale(0.72, 0.72)" xlink:href="#E261" /><text x="2113" y="4206" font-family="Tinos" font-size="378">was</text><path d="M3186 2942 L6395 2942" stroke-width="13" stroke="#000" /><path d="M3186 3122 L6395 3122" stroke-width="13" stroke="#000" /><path d="M3186 3302 L6395 3302" stroke-width="13" stroke="#000" /><path d="M3186 3482 L6395 3482" stroke-width="13" stroke="#000" /><path d="M3186 3662 L6395 3662" stroke-width="13" stroke="#000" /><use transform="translate(3426, 3392) scale(0.72, 0.72)" xlink:href="#E0A4" /><path d="M3643 3364 L3643 2762" stroke-width="18" stroke="#000" /><text x="3334" y="4206" font-family="Tinos" font-size="378">dein</text><use transform="translate(4416, 3392) scale(0.72, 0.72)" xlink:href="#E0A4" /><path d="M4633 3364 L4633 2762" stroke-width="18" stroke="#000" /><text x="4332" y="4206" font-family="Tinos" font-size="378">Her</text><rect x="5061" y="4111" height="20" width="84" /><use transform="translate(5405, 3392) scale(0.72, 0.72)" xlink:href="#E0A4" /><path d="M5622 3364 L5622 2762" stroke-width="18" stroke="#000" /><use transform="translate(5218, 3392) scale(0.72, 0.72)" xlink:href="#E260" /><text x="5321" y="4206" font-family="Tinos" font-size="378">ze</text><path d="M6395 2942 L8073 2942" stroke-width="13" stroke="#000" /><path d="M6395 3122 L8073 3122" stroke-width="13" stroke="#000" /><path d="M6395 3302 L8073 3302" stroke-width="13" stroke="#000" /><path d="M6395 3482 L8073 3482" stroke-width="13" stroke="#000" /><path d="M6395 3662 L8073 3662" stroke-width="13" stroke="#000" /><use transform="translate(6635, 3392) scale(0.72, 0.72)" xlink:href="#E0A3" /><path d="M6852 3364 L6852 2762" stroke-width="18" stroke="#000" /><text x="6391" y="4206" font-family="Tinos" font-size="378">kränkt</text><path d="M8073 2942 L9303 2942" stroke-width="13" stroke="#000" /><path d="M8073 3122 L9303 3122" stroke-width="13" stroke="#000" /><path d="M8073 3302 L9303 3302" stroke-width="13" stroke="#000" /><path d="M8073 3482 L9303 3482" stroke-width="13" stroke="#000" /><path d="M8073 3662 L9303 3662" stroke-width="13" stroke="#000" /><use transform="translate(8313, 3302) scale(0.72, 0.72)" xlink:href="#E4E5" /><path d="M0 5368 L6481 5368" stroke-width="13" stroke="#000" /><path d="M0 5548 L6481 5548" stroke-width="13" stroke="#000" /><path d="M0 5728 L6481 5728" stroke-width="13" stroke="#000" /><path d="M0 5908 L6481 5908" stroke-width="13" stroke="#000" /><path d="M0 6088 L6481 6088" stroke-width="13" stroke="#000" /><use transform="translate(90, 5908) scale(0.72, 0.72)" xlink:href="#E050" /><use transform="translate(735, 5728) scale(0.72, 0.72)" xlink:href="#E260" /><use transform="translate(1196, 6178) scale(0.72, 0.72)" xlink:href="#E0A4" /><path d="M1413 6150 L1413 5548" stroke-width="18" stroke="#000" /><text x="1112" y="6608" font-family="Tinos" font-size="378">der</text><use transform="translate(2253, 5998) scale(0.72, 0.72)" xlink:href="#E0A4" /><path d="M2470 5970 L2470 5368" stroke-width="18" stroke="#000" /><text x="2169" y="6608" font-family="Tinos" font-size="378">al</text><rect x="2792" y="6513" height="20" width="84" /><use transform="translate(3310, 6088) scale(0.72, 0.72)" xlink:href="#E0A4" /><path d="M3527 6060 L3527 5458" stroke-width="18" stroke="#000" /><text x="3226" y="6608" font-family="Tinos" font-size="378">ler</text><rect x="3876" y="6513" height="20" width="84" /><use transform="translate(4367, 5998) scale(0.72, 0.72)" xlink:href="#E0A4" /><path d="M4584 5970 L4584 5368" stroke-width="18" stroke="#000" /><text x="4210" y="6608" font-family="Tinos" font-size="378">treus</text><rect x="5101" y="6513" height="20" width="84" /><use transform="translate(5424, 5908) scale(0.72, 0.72)" xlink:href="#E0A4" /><path d="M5641 5880 L5641 5278" stroke-width="18" stroke="#000" /><text x="5340" y="6608" font-family="Tinos" font-size="378">ten</text><path d="M6481 5368 L9301 5368" stroke-width="13" stroke="#000" /><path d="M6481 5548 L9301 5548" stroke-width="13" stroke="#000" /><path d="M6481 5728 L9301 5728" stroke-width="13" stroke="#000" /><path d="M6481 5908 L9301 5908" stroke-width="13" stroke="#000" /><path d="M6481 6088 L9301 6088" stroke-width="13" stroke="#000" /><use transform="translate(6710, 5818) scale(0.72, 0.72)" xlink:href="#E0A3" /><path d="M6927 5790 L6927 5188" stroke-width="18" stroke="#000" /><text x="6626" y="6608" font-family="Tinos" font-size="378">Pfle</text><rect x="7656" y="6513" height="20" width="84" /><use transform="translate(8244, 5818) scale(0.72, 0.72)" xlink:href="#E0A4" /><path d="M8461 5790 L8461 5188" stroke-width="18" stroke="#000" /><text x="8160" y="6608" font-family="Tinos" font-size="378">ge</text><path d="M0 7770 L3186 7770" stroke-width="13" stroke="#000" /><path d="M0 7950 L3186 7950" stroke-width="13" stroke="#000" /><path d="M0 8130 L3186 8130" stroke-width="13" stroke="#000" /><path d="M0 8310 L3186 8310" stroke-width="13" stroke="#000" /><path d="M0 8490 L3186 8490" stroke-width="13" stroke="#000" /><use transform="translate(90, 8310) scale(0.72, 0.72)" xlink:href="#E050" /><use transform="translate(735, 8130) scale(0.72, 0.72)" xlink:href="#E260" /><use transform="translate(1209, 8040) scale(0.72, 0.72)" xlink:href="#E0A4" /><path d="M1218 8068 L1218 8670" stroke-width="18" stroke="#000" /><text x="1125" y="9034" font-family="Tinos" font-size="378">des,</text><use transform="translate(2198, 8130) scale(0.72, 0.72)" xlink:href="#E0A4" /><path d="M2207 8158 L2207 8730" stroke-width="18" stroke="#000" /><use transform="translate(2040, 8130) scale(0.72, 0.72)" xlink:href="#E261" /><text x="2114" y="9034" font-family="Tinos" font-size="378">der</text><path d="M3186 7770 L6394 7770" stroke-width="13" stroke="#000" /><path d="M3186 7950 L6394 7950" stroke-width="13" stroke="#000" /><path d="M3186 8130 L6394 8130" stroke-width="13" stroke="#000" /><path d="M3186 8310 L6394 8310" stroke-width="13" stroke="#000" /><path d="M3186 8490 L6394 8490" stroke-width="13" stroke="#000" /><use transform="translate(3428, 8220) scale(0.72, 0.72)" xlink:href="#E0A4" /><path d="M3645 8192 L3645 7590" stroke-width="18" stroke="#000" /><text x="3344" y="9034" font-family="Tinos" font-size="378">den</text><use transform="translate(4417, 8220) scale(0.72, 0.72)" xlink:href="#E0A4" /><path d="M4634 8192 L4634 7590" stroke-width="18" stroke="#000" /><text x="4241" y="9034" font-family="Tinos" font-size="378">Him</text><rect x="5069" y="8939" height="20" width="84" /><use transform="translate(5405, 8220) scale(0.72, 0.72)" xlink:href="#E0A4" /><path d="M5622 8192 L5622 7590" stroke-width="18" stroke="#000" /><use transform="translate(5218, 8220) scale(0.72, 0.72)" xlink:href="#E260" /><text x="5321" y="9034" font-family="Tinos" font-size="378">mel</text><path d="M6394 7770 L8071 7770" stroke-width="13" stroke="#000" /><path d="M6394 7950 L8071 7950" stroke-width="13" stroke="#000" /><path d="M6394 8130 L8071 8130" stroke-width="13" stroke="#000" /><path d="M6394 8310 L8071 8310" stroke-width="13" stroke="#000" /><path d="M6394 8490 L8071 8490" stroke-width="13" stroke="#000" /><use transform="translate(6636, 8220) scale(0.72, 0.72)" xlink:href="#E0A3" /><path d="M6853 8192 L6853 7590" stroke-width="18" stroke="#000" /><text x="6521" y="9034" font-family="Tinos" font-size="378">lenkt.</text><path d="M8071 7770 L9302 7770" stroke-width="13" stroke="#000" /><path d="M8071 7950 L9302 7950" stroke-width="13" stroke="#000" /><path d="M8071 8130 L9302 8130" stroke-width="13" stroke="#000" /><path d="M8071 8310 L9302 8310" stroke-width="13" stroke="#000" /><path d="M8071 8490 L9302 8490" stroke-width="13" stroke="#000" /><use transform="translate(8313, 8130) scale(0.72, 0.72)" xlink:href="#E4E5" /><path d="M0 10196 L4283 10196" stroke-width="13" stroke="#000" /><path d="M0 10376 L4283 10376" stroke-width="13" stroke="#000" /><path d="M0 10556 L4283 10556" stroke-width="13" stroke="#000" /><path d="M0 10736 L4283 10736" stroke-width="13" stroke="#000" /><path d="M0 10916 L4283 10916" stroke-width="13" stroke="#000" /><use transform="translate(90, 10736) scale(0.72, 0.72)" xlink:href="#E050" /><use transform="translate(735, 10556) scale(0.72, 0.72)" xlink:href="#E260" /><use transform="translate(1219, 10646) scale(0.72, 0.72)" xlink:href="#E0A4" /><path d="M1436 10618 L1436 10016" stroke-width="18" stroke="#000" /><text x="1135" y="11460" font-family="Tinos" font-size="378">Der</text><use transform="translate(2232, 10556) scale(0.72, 0.72)" xlink:href="#E0A4" /><path d="M2241 10584 L2241 11156" stroke-width="18" stroke="#000" /><use transform="translate(2074, 10556) scale(0.72, 0.72)" xlink:href="#E261" /><text x="2069" y="11460" font-family="Tinos" font-size="378">Wol</text><rect x="2911" y="11365" height="20" width="84" /><use transform="translate(3269, 10466) scale(0.72, 0.72)" xlink:href="#E0A4" /><path d="M3278 10494 L3278 11096" stroke-width="18" stroke="#000" /><text x="3185" y="11460" font-family="Tinos" font-size="378">ken,</text><path d="M4283 10196 L6562 10196" stroke-width="13" stroke="#000" /><path d="M4283 10376 L6562 10376" stroke-width="13" stroke="#000" /><path d="M4283 10556 L6562 10556" stroke-width="13" stroke="#000" /><path d="M4283 10736 L6562 10736" stroke-width="13" stroke="#000" /><path d="M4283 10916 L6562 10916" stroke-width="13" stroke="#000" /><use transform="translate(4535, 10376) scale(0.72, 0.72)" xlink:href="#E0A4" /><path d="M4544 10404 L4544 11006" stroke-width="18" stroke="#000" /><text x="4426" y="11460" font-family="Tinos" font-size="378">Luft</text><use transform="translate(5548, 10556) scale(0.72, 0.72)" xlink:href="#E0A4" /><path d="M5557 10584 L5557 11156" stroke-width="18" stroke="#000" /><use transform="translate(5390, 10556) scale(0.72, 0.72)" xlink:href="#E261" /><text x="5464" y="11460" font-family="Tinos" font-size="378">und</text><path d="M6562 10196 L9302 10196" stroke-width="13" stroke="#000" /><path d="M6562 10376 L9302 10376" stroke-width="13" stroke="#000" /><path d="M6562 10556 L9302 10556" stroke-width="13" stroke="#000" /><path d="M6562 10736 L9302 10736" stroke-width="13" stroke="#000" /><path d="M6562 10916 L9302 10916" stroke-width="13" stroke="#000" /><use transform="translate(6814, 10466) scale(0.72, 0.72)" xlink:href="#E0A3" /><path d="M6823 10491 L6823 11096" stroke-width="18" stroke="#000" /><text x="6730" y="11460" font-family="Tinos" font-size="378">Win</text><rect x="7751" y="11365" height="20" width="84" /><use transform="translate(8288, 10646) scale(0.72, 0.72)" xlink:href="#E0A4" /><path d="M8505 10618 L8505 10016" stroke-width="18" stroke="#000" /><text x="8204" y="11460" font-family="Tinos" font-size="378">den</text><path d="M0 12622 L4172 12622" stroke-width="13" stroke="#000" /><path d="M0 12802 L4172 12802" stroke-width="13" stroke="#000" /><path d="M0 12982 L4172 12982" stroke-width="13" stroke="#000" /><path d="M0 13162 L4172 13162" stroke-width="13" stroke="#000" /><path d="M0 13342 L4172 13342" stroke-width="13" stroke="#000" /><use transform="translate(90, 13162) scale(0.72, 0.72)" xlink:href="#E050" /><use transform="translate(735, 12982) scale(0.72, 0.72)" xlink:href="#E260" /><use transform="translate(1212, 13072) scale(0.72, 0.72)" xlink:href="#E0A4" /><path d="M1429 13044 L1429 12442" stroke-width="18" stroke="#000" /><text x="1128" y="13862" font-family="Tinos" font-size="378">gibt</text><use transform="translate(2199, 13162) scale(0.72, 0.72)" xlink:href="#E0A4" /><path d="M2416 13134 L2416 12532" stroke-width="18" stroke="#000" /><text x="2115" y="13862" font-family="Tinos" font-size="378">We</text><rect x="2829" y="13767" height="20" width="84" /><use transform="translate(3186, 13252) scale(0.72, 0.72)" xlink:href="#E0A4" /><path d="M3403 13224 L3403 12622" stroke-width="18" stroke="#000" /><text x="3102" y="13862" font-family="Tinos" font-size="378">ge,</text><path d="M4172 12622 L6391 12622" stroke-width="13" stroke="#000" /><path d="M4172 12802 L6391 12802" stroke-width="13" stroke="#000" /><path d="M4172 12982 L6391 12982" stroke-width="13" stroke="#000" /><path d="M4172 13162 L6391 13162" stroke-width="13" stroke="#000" /><path d="M4172 13342 L6391 13342" stroke-width="13" stroke="#000" /><use transform="translate(4417, 13252) scale(0.72, 0.72)" xlink:href="#E0A4" /><path d="M4634 13224 L4634 12622" stroke-width="18" stroke="#000" /><text x="4245" y="13862" font-family="Tinos" font-size="378">Lauf</text><use transform="translate(5404, 13342) scale(0.72, 0.72)" xlink:href="#E0A4" /><path d="M5621 13314 L5621 12712" stroke-width="18" stroke="#000" /><text x="5320" y="13862" font-family="Tinos" font-size="378">und</text><path d="M6391 12622 L8070 12622" stroke-width="13" stroke="#000" /><path d="M6391 12802 L8070 12802" stroke-width="13" stroke="#000" /><path d="M6391 12982 L8070 12982" stroke-width="13" stroke="#000" /><path d="M6391 13162 L8070 13162" stroke-width="13" stroke="#000" /><path d="M6391 13342 L8070 13342" stroke-width="13" stroke="#000" /><use transform="translate(6636, 13252) scale(0.72, 0.72)" xlink:href="#E0A3" /><path d="M6853 13224 L6853 12622" stroke-width="18" stroke="#000" /><text x="6552" y="13862" font-family="Tinos" font-size="378">Bahn</text><path d="M8070 12622 L9302 12622" stroke-width="13" stroke="#000" /><path d="M8070 12802 L9302 12802" stroke-width="13" stroke="#000" /><path d="M8070 12982 L9302 12982" stroke-width="13" stroke="#000" /><path d="M8070 13162 L9302 13162" stroke-width="13" stroke="#000" /><path d="M8070 13342 L9302 13342" stroke-width="13" stroke="#000" /><use transform="translate(8315, 12982) scale(0.72, 0.72)" xlink:href="#E4E5" /><path d="M0 15024 L3250 15024" stroke-width="13" stroke="#000" /><path d="M0 15204 L3250 15204" stroke-width="13" stroke="#000" /><path d="M0 15384 L3250 15384" stroke-width="13" stroke="#000" /><path d="M0 15564 L3250 15564" stroke-width="13" stroke="#000" /><path d="M0 15744 L3250 15744" stroke-width="13" stroke="#000" /><use transform="translate(90, 15564) scale(0.72, 0.72)" xlink:href="#E050" /><use transform="translate(735, 15384) scale(0.72, 0.72)" xlink:href="#E260" /><use transform="translate(1206, 15474) scale(0.72, 0.72)" xlink:href="#E0A4" /><path d="M1423 15446 L1423 14844" stroke-width="18" stroke="#000" /><text x="1122" y="16264" font-family="Tinos" font-size="378">der</text><use transform="translate(2228, 15654) scale(0.72, 0.72)" xlink:href="#E0A4" /><path d="M2445 15626 L2445 15024" stroke-width="18" stroke="#000" /><text x="2144" y="16264" font-family="Tinos" font-size="378">wird</text><path d="M3250 15024 L6556 15024" stroke-width="13" stroke="#000" /><path d="M3250 15204 L6556 15204" stroke-width="13" stroke="#000" /><path d="M3250 15384 L6556 15384" stroke-width="13" stroke="#000" /><path d="M3250 15564 L6556 15564" stroke-width="13" stroke="#000" /><path d="M3250 15744 L6556 15744" stroke-width="13" stroke="#000" /><use transform="translate(3489, 15564) scale(0.72, 0.72)" xlink:href="#E0A4" /><path d="M3706 15536 L3706 14934" stroke-width="18" stroke="#000" /><text x="3364" y="16264" font-family="Tinos" font-size="378">auch</text><use transform="translate(4511, 15474) scale(0.72, 0.72)" xlink:href="#E0A4" /><path d="M4728 15446 L4728 14844" stroke-width="18" stroke="#000" /><text x="4427" y="16264" font-family="Tinos" font-size="378">We</text><rect x="5158" y="16169" height="20" width="84" /><use transform="translate(5533, 15564) scale(0.72, 0.72)" xlink:href="#E0A4" /><path d="M5750 15536 L5750 14934" stroke-width="18" stroke="#000" /><text x="5449" y="16264" font-family="Tinos" font-size="378">ge</text><path d="M6556 15024 L9301 15024" stroke-width="13" stroke="#000" /><path d="M6556 15204 L9301 15204" stroke-width="13" stroke="#000" /><path d="M6556 15384 L9301 15384" stroke-width="13" stroke="#000" /><path d="M6556 15564 L9301 15564" stroke-width="13" stroke="#000" /><path d="M6556 15744 L9301 15744" stroke-width="13" stroke="#000" /><use transform="translate(6795, 15654) scale(0.72, 0.72)" xlink:href="#E0A3" /><path d="M7012 15626 L7012 15024" stroke-width="18" stroke="#000" /><text x="6711" y="16264" font-family="Tinos" font-size="378">fin</text><rect x="7621" y="16169" height="20" width="84" /><use transform="translate(8279, 15744) scale(0.72, 0.72)" xlink:href="#E0A4" /><path d="M8496 15716 L8496 15114" stroke-width="18" stroke="#000" /><text x="8195" y="16264" font-family="Tinos" font-size="378">den,</text><path d="M0 17426 L2693 17426" stroke-width="13" stroke="#000" /><path d="M0 17606 L2693 17606" stroke-width="13" stroke="#000" /><path d="M0 17786 L2693 17786" stroke-width="13" stroke="#000" /><path d="M0 17966 L2693 17966" stroke-width="13" stroke="#000" /><path d="M0 18146 L2693 18146" stroke-width="13" stroke="#000" /><use transform="translate(90, 17966) scale(0.72, 0.72)" xlink:href="#E050" /><use transform="translate(735, 17786) scale(0.72, 0.72)" xlink:href="#E260" /><use transform="translate(1147, 18056) scale(0.72, 0.72)" xlink:href="#E0A4" /><path d="M1364 18028 L1364 17426" stroke-width="18" stroke="#000" /><text x="1063" y="18666" font-family="Tinos" font-size="378">da</text><use transform="translate(1920, 17966) scale(0.72, 0.72)" xlink:href="#E0A4" /><path d="M2137 17938 L2137 17336" stroke-width="18" stroke="#000" /><text x="1836" y="18666" font-family="Tinos" font-size="378">dein</text><path d="M2693 17426 L5192 17426" stroke-width="13" stroke="#000" /><path d="M2693 17606 L5192 17606" stroke-width="13" stroke="#000" /><path d="M2693 17786 L5192 17786" stroke-width="13" stroke="#000" /><path d="M2693 17966 L5192 17966" stroke-width="13" stroke="#000" /><path d="M2693 18146 L5192 18146" stroke-width="13" stroke="#000" /><use transform="translate(2873, 17876) scale(0.72, 0.72)" xlink:href="#E0A4" /><path d="M3090 17848 L3090 17246" stroke-width="18" stroke="#000" /><text x="2789" y="18666" font-family="Tinos" font-size="378">Fuß</text><use transform="translate(3646, 18056) scale(0.72, 0.72)" xlink:href="#E0A4" /><path d="M3863 18028 L3863 17426" stroke-width="18" stroke="#000" /><text x="3562" y="18666" font-family="Tinos" font-size="378">ge</text><rect x="4085" y="18571" height="20" width="84" /><use transform="translate(4419, 18146) scale(0.72, 0.72)" xlink:href="#E0A4" /><path d="M4636 18118 L4636 17516" stroke-width="18" stroke="#000" /><text x="4335" y="18666" font-family="Tinos" font-size="378">hen</text><path d="M5192 17426 L6964 17426" stroke-width="13" stroke="#000" /><path d="M5192 17606 L6964 17606" stroke-width="13" stroke="#000" /><path d="M5192 17786 L6964 17786" stroke-width="13" stroke="#000" /><path d="M5192 17966 L6964 17966" stroke-width="13" stroke="#000" /><path d="M5192 18146 L6964 18146" stroke-width="13" stroke="#000" /><use transform="translate(5372, 18236) scale(0.72, 0.72)" xlink:href="#E0A3" /><ellipse cx="5688" cy="18236" rx="36" ry="36" /><path d="M5589 18208 L5589 17606" stroke-width="18" stroke="#000" /><text x="5288" y="18666" font-family="Tinos" font-size="378">kann.</text><path d="M6789 17426 L6789 18146" stroke-width="27" stroke="#000" /><path d="M6919 17426 L6919 18146" stroke-width="90" stroke="#000" /></g></svg>
