<svg xmlns="http://www.w3.org/2000/svg" xmlns:xlink="http://www.w3.org/1999/xlink" viewBox="0 0 9500 21120"><defs><g id="E050"><path transform="scale(1,-1)" d="M441 -245c-23 -4 -48 -6 -76 -6c-59 0 -102 7 -130 20c-88 42 -150 93 -187 154c-26 44 -43 103 -48 176c0 6 -1 13 -1 19c0 54 15 111 45 170c29 57 65 106 110 148s96 85 153 127c-3 16 -8 46 -13 92c-4 43 -5 73 -5 89c0 117 16 172 69 257c34 54 64 82 89 82 c21 0 43 -30 69 -92s39 -115 41 -159v-15c0 -109 -21 -162 -67 -241c-13 -20 -63 -90 -98 -118c-13 -9 -25 -19 -37 -29l31 -181c8 1 18 2 28 2c58 0 102 -12 133 -35c59 -43 92 -104 98 -184c1 -7 1 -15 1 -22c0 -123 -87 -209 -181 -248c8 -57 17 -110 25 -162 c5 -31 6 -58 6 -80c0 -30 -5 -53 -14 -70c-35 -64 -88 -99 -158 -103c-5 0 -11 -1 -16 -1c-37 0 -72 10 -108 27c-50 24 -77 59 -80 105v11c0 29 7 55 20 76c18 28 45 42 79 44h6c49 0 93 -42 97 -87v-9c0 -51 -34 -86 -105 -106c17 -24 51 -36 102 -36c62 0 116 43 140 85 c9 16 13 41 13 74c0 20 -1 42 -5 67c-8 53 -18 106 -26 159zM461 939c-95 0 -135 -175 -135 -286c0 -24 2 -48 5 -71c50 39 92 82 127 128c40 53 60 100 60 140v8c-4 53 -22 81 -55 81h-2zM406 119l54 -326c73 25 110 78 110 161c0 7 0 15 -1 23c-7 95 -57 142 -151 142h-12 zM382 117c-72 -2 -128 -47 -128 -120v-7c2 -46 43 -99 75 -115c-3 -2 -7 -5 -10 -10c-70 33 -116 88 -123 172v11c0 68 44 126 88 159c23 17 49 29 78 36l-29 170c-21 -13 -52 -37 -92 -73c-50 -44 -86 -84 -109 -119c-45 -69 -67 -130 -67 -182v-13c5 -68 35 -127 93 -176 s125 -73 203 -73c25 0 50 3 75 9c-19 111 -36 221 -54 331z" /></g><g id="E0A3"><path transform="scale(1,-1)" d="M278 64c0 22 -17 39 -43 39c-12 0 -26 -3 -41 -10c-85 -43 -165 -94 -165 -156c5 -25 15 -32 49 -32c67 11 200 95 200 159zM0 -36c0 68 73 174 200 174c66 0 114 -39 114 -97c0 -84 -106 -173 -218 -173c-64 0 -96 32 -96 96z" /></g><g id="E0A4"><path transform="scale(1,-1)" d="M0 -39c0 68 73 172 200 172c66 0 114 -37 114 -95c0 -84 -106 -171 -218 -171c-64 0 -96 30 -96 94z" /></g><g id="E241"><path transform="scale(1,-1)" d="M179 646c-4 8 -17 30 -18 33l-4 10c0 3 2 5 5 5s7 -2 13 -7c23 -33 46 -81 66 -132c22 -57 35 -125 35 -163c0 -104 -60 -183 -122 -241c-63 -59 -57 -53 -61 -56c-38 -34 -63 -95 -71 -95h-22v190c40 7 69 11 87 16c88 27 168 95 168 200c0 30 -12 89 -30 138 c-17 47 -31 73 -46 102z" /></g><g id="E240"><path transform="scale(1,-1)" d="M179 -646c15 29 29 55 46 102c18 49 30 108 30 138c0 105 -80 173 -168 200c-18 5 -47 9 -87 16v190h22c8 0 33 -61 71 -95c4 -3 -2 3 61 -56c62 -58 122 -137 122 -241c0 -38 -13 -106 -35 -163c-20 -51 -43 -99 -66 -132c-6 -5 -10 -7 -13 -7s-5 2 -5 5l4 10 c1 3 14 25 18 33z" /></g><g id="E4E5"><path transform="scale(1,-1)" d="M107 292c-13 24 -30 49 -52 71c-1 1 0 2 0 3l-2 2c3 3 4 4 6 4c12 0 26 -7 40 -20s44 -40 89 -81c26 -24 28 -29 46 -47c4 -4 8 -9 10 -14c6 -8 8 -16 8 -27c0 -19 -12 -40 -36 -61c-28 -23 -49 -38 -61 -73c-4 -11 -7 -27 -10 -50c13 -43 34 -83 59 -121 c31 -47 59 -79 101 -129c-8 0 -26 7 -54 20l-62 29l-21 6l-23 1c-25 0 -45 -10 -60 -30l-4 -14l-1 -12c0 -33 20 -56 39 -78c8 -9 17 -18 26 -26c17 -15 27 -24 28 -30l-3 -3c-11 5 -19 10 -25 15c-9 3 -37 21 -45 26c-24 14 -45 32 -63 51c-19 21 -37 44 -37 71 c0 63 27 95 80 95c41 0 86 -18 136 -52c-19 26 -37 48 -55 66c-23 23 -48 44 -73 65c-28 23 -47 40 -58 53s-17 26 -18 39c75 64 113 125 113 183c0 27 -7 48 -18 68z" /></g><g id="E0A2"><path transform="scale(1,-1)" d="M198 133c102 0 207 -45 207 -133c0 -92 -118 -133 -227 -133c-101 0 -178 46 -178 133c0 88 93 133 198 133zM293 -21c0 14 -3 29 -8 44c-7 20 -18 38 -33 54c-20 21 -43 31 -68 31l-20 -2c-15 -5 -27 -14 -36 -28c-4 -9 -6 -17 -8 -24s-3 -16 -3 -27c0 -15 3 -34 9 -57 s18 -41 34 -55c15 -15 36 -23 62 -23c4 0 10 1 18 2c19 5 32 15 40 30s13 34 13 55z" /></g></defs><g transform="translate(100, 300)"><path d="M0 540 L1745 540" stroke-width="13" stroke="#000" /><path d="M0 720 L1745 720" stroke-width="13" stroke="#000" /><path d="M0 900 L1745 900" stroke-width="13" stroke="#000" /><path d="M0 1080 L1745 1080" stroke-width="13" stroke="#000" /><path d="M0 1260 L1745 1260" stroke-width="13" stroke="#000" /><use transform="translate(90, 1080) scale(0.72, 0.72)" xlink:href="#E050" /><use transform="translate(845, 1080) scale(0.72, 0.72)" xlink:href="#E0A3" /><path d="M1062 1052 L1062 450" stroke-width="18" stroke="#000" /><path d="M1745 540 L3184 540" stroke-width="13" stroke="#000" /><path d="M1745 720 L3184 720" stroke-width="13" stroke="#000" /><path d="M1745 900 L3184 900" stroke-width="13" stroke="#000" /><path d="M1745 1080 L3184 1080" stroke-width="13" stroke="#000" /><path d="M1745 1260 L3184 1260" stroke-width="13" stroke="#000" /><use transform="translate(1945, 1080) scale(0.72, 0.72)" xlink:href="#E0A4" /><path d="M2162 1052 L2162 450" stroke-width="18" stroke="#000" /><use transform="translate(2565, 1080) scale(0.72, 0.72)" xlink:href="#E0A4" /><path d="M2782 1052 L2782 450" stroke-width="18" stroke="#000" /><path d="M3184 540 L4284 540" stroke-width="13" stroke="#000" /><path d="M3184 720 L4284 720" stroke-width="13" stroke="#000" /><path d="M3184 900 L4284 900" stroke-width="13" stroke="#000" /><path d="M3184 1080 L4284 1080" stroke-width="13" stroke="#000" /><path d="M3184 1260 L4284 1260" stroke-width="13" stroke="#000" /><use transform="translate(3384, 990) scale(0.72, 0.72)" xlink:href="#E0A3" /><path d="M3601 962 L3601 360" stroke-width="18" stroke="#000" /><path d="M4284 540 L5384 540" stroke-width="13" stroke="#000" /><path d="M4284 720 L5384 720" stroke-width="13" stroke="#000" /><path d="M4284 900 L5384 900" stroke-width="13" stroke="#000" /><path d="M4284 1080 L5384 1080" stroke-width="13" stroke="#000" /><path d="M4284 1260 L5384 1260" stroke-width="13" stroke="#000" /><use transform="translate(4484, 1080) scale(0.72, 0.72)" xlink:href="#E0A3" /><path d="M4701 1052 L4701 450" stroke-width="18" stroke="#000" /><path d="M5384 540 L6764 540" stroke-width="13" stroke="#000" /><path d="M5384 720 L6764 720" stroke-width="13" stroke="#000" /><path d="M5384 900 L6764 900" stroke-width="13" stroke="#000" /><path d="M5384 1080 L6764 1080" stroke-width="13" stroke="#000" /><path d="M5384 1260 L6764 1260" stroke-width="13" stroke="#000" /><use transform="translate(5584, 810) scale(0.72, 0.72)" xlink:href="#E0A4" /><ellipse cx="5900" cy="810" rx="36" ry="36" /><path d="M5593 838 L5593 1440" stroke-width="18" stroke="#000" /><use transform="translate(6351, 720) scale(0.72, 0.72)" xlink:href="#E0A4" /><path d="M6360 748 L6360 1350" stroke-width="18" stroke="#000" /><use transform="translate(6351, 1350) scale(0.72, 0.72)" xlink:href="#E241" /><path d="M6764 540 L8203 540" stroke-width="13" stroke="#000" /><path d="M6764 720 L8203 720" stroke-width="13" stroke="#000" /><path d="M6764 900 L8203 900" stroke-width="13" stroke="#000" /><path d="M6764 1080 L8203 1080" stroke-width="13" stroke="#000" /><path d="M6764 1260 L8203 1260" stroke-width="13" stroke="#000" /><use transform="translate(6964, 810) scale(0.72, 0.72)" xlink:href="#E0A4" /><path d="M6973 838 L6973 1440" stroke-width="18" stroke="#000" /><use transform="translate(7584, 900) scale(0.72, 0.72)" xlink:href="#E0A4" /><path d="M7593 928 L7593 1500" stroke-width="18" stroke="#000" /><path d="M8203 540 L9303 540" stroke-width="13" stroke="#000" /><path d="M8203 720 L9303 720" stroke-width="13" stroke="#000" /><path d="M8203 900 L9303 900" stroke-width="13" stroke="#000" /><path d="M8203 1080 L9303 1080" stroke-width="13" stroke="#000" /><path d="M8203 1260 L9303 1260" stroke-width="13" stroke="#000" /><use transform="translate(8403, 990) scale(0.72, 0.72)" xlink:href="#E0A3" /><path d="M8620 962 L8620 360" stroke-width="18" stroke="#000" /><path d="M0 2880 L1607 2880" stroke-width="13" stroke="#000" /><path d="M0 3060 L1607 3060" stroke-width="13" stroke="#000" /><path d="M0 3240 L1607 3240" stroke-width="13" stroke="#000" /><path d="M0 3420 L1607 3420" stroke-width="13" stroke="#000" /><path d="M0 3600 L1607 3600" stroke-width="13" stroke="#000" /><use transform="translate(90, 3420) scale(0.72, 0.72)" xlink:href="#E050" /><use transform="translate(830, 3420) scale(0.72, 0.72)" xlink:href="#E0A3" /><path d="M1047 3392 L1047 2790" stroke-width="18" stroke="#000" /><path d="M1607 2880 L2569 2880" stroke-width="13" stroke="#000" /><path d="M1607 3060 L2569 3060" stroke-width="13" stroke="#000" /><path d="M1607 3240 L2569 3240" stroke-width="13" stroke="#000" /><path d="M1607 3420 L2569 3420" stroke-width="13" stroke="#000" /><path d="M1607 3600 L2569 3600" stroke-width="13" stroke="#000" /><use transform="translate(1792, 3330) scale(0.72, 0.72)" xlink:href="#E0A3" /><path d="M2009 3302 L2009 2700" stroke-width="18" stroke="#000" /><path d="M2569 2880 L3531 2880" stroke-width="13" stroke="#000" /><path d="M2569 3060 L3531 3060" stroke-width="13" stroke="#000" /><path d="M2569 3240 L3531 3240" stroke-width="13" stroke="#000" /><path d="M2569 3420 L3531 3420" stroke-width="13" stroke="#000" /><path d="M2569 3600 L3531 3600" stroke-width="13" stroke="#000" /><use transform="translate(2754, 3150) scale(0.72, 0.72)" xlink:href="#E0A3" /><path d="M2763 3175 L2763 3780" stroke-width="18" stroke="#000" /><path d="M3531 2880 L4493 2880" stroke-width="13" stroke="#000" /><path d="M3531 3060 L4493 3060" stroke-width="13" stroke="#000" /><path d="M3531 3240 L4493 3240" stroke-width="13" stroke="#000" /><path d="M3531 3420 L4493 3420" stroke-width="13" stroke="#000" /><path d="M3531 3600 L4493 3600" stroke-width="13" stroke="#000" /><use transform="translate(3716, 3420) scale(0.72, 0.72)" xlink:href="#E0A3" /><path d="M3933 3392 L3933 2790" stroke-width="18" stroke="#000" /><path d="M4493 2880 L5455 2880" stroke-width="13" stroke="#000" /><path d="M4493 3060 L5455 3060" stroke-width="13" stroke="#000" /><path d="M4493 3240 L5455 3240" stroke-width="13" stroke="#000" /><path d="M4493 3420 L5455 3420" stroke-width="13" stroke="#000" /><path d="M4493 3600 L5455 3600" stroke-width="13" stroke="#000" /><use transform="translate(4678, 3510) scale(0.72, 0.72)" xlink:href="#E0A3" /><path d="M4895 3482 L4895 2880" stroke-width="18" stroke="#000" /><path d="M5455 2880 L6417 2880" stroke-width="13" stroke="#000" /><path d="M5455 3060 L6417 3060" stroke-width="13" stroke="#000" /><path d="M5455 3240 L6417 3240" stroke-width="13" stroke="#000" /><path d="M5455 3420 L6417 3420" stroke-width="13" stroke="#000" /><path d="M5455 3600 L6417 3600" stroke-width="13" stroke="#000" /><use transform="translate(5640, 3600) scale(0.72, 0.72)" xlink:href="#E0A3" /><path d="M5857 3572 L5857 2970" stroke-width="18" stroke="#000" /><path d="M6417 2880 L7379 2880" stroke-width="13" stroke="#000" /><path d="M6417 3060 L7379 3060" stroke-width="13" stroke="#000" /><path d="M6417 3240 L7379 3240" stroke-width="13" stroke="#000" /><path d="M6417 3420 L7379 3420" stroke-width="13" stroke="#000" /><path d="M6417 3600 L7379 3600" stroke-width="13" stroke="#000" /><use transform="translate(6602, 3690) scale(0.72, 0.72)" xlink:href="#E0A3" /><path d="M6819 3662 L6819 3060" stroke-width="18" stroke="#000" /><path d="M7379 2880 L8341 2880" stroke-width="13" stroke="#000" /><path d="M7379 3060 L8341 3060" stroke-width="13" stroke="#000" /><path d="M7379 3240 L8341 3240" stroke-width="13" stroke="#000" /><path d="M7379 3420 L8341 3420" stroke-width="13" stroke="#000" /><path d="M7379 3600 L8341 3600" stroke-width="13" stroke="#000" /><path d="M7516 3780 L7838 3780" stroke-width="22" stroke="#000" /><use transform="translate(7564, 3780) scale(0.72, 0.72)" xlink:href="#E0A3" /><path d="M7781 3752 L7781 3150" stroke-width="18" stroke="#000" /><path d="M8341 2880 L9303 2880" stroke-width="13" stroke="#000" /><path d="M8341 3060 L9303 3060" stroke-width="13" stroke="#000" /><path d="M8341 3240 L9303 3240" stroke-width="13" stroke="#000" /><path d="M8341 3420 L9303 3420" stroke-width="13" stroke="#000" /><path d="M8341 3600 L9303 3600" stroke-width="13" stroke="#000" /><path d="M8478 3780 L8800 3780" stroke-width="22" stroke="#000" /><use transform="translate(8526, 3780) scale(0.72, 0.72)" xlink:href="#E0A3" /><path d="M8743 3752 L8743 3150" stroke-width="18" stroke="#000" /><path d="M0 5220 L1744 5220" stroke-width="13" stroke="#000" /><path d="M0 5400 L1744 5400" stroke-width="13" stroke="#000" /><path d="M0 5580 L1744 5580" stroke-width="13" stroke="#000" /><path d="M0 5760 L1744 5760" stroke-width="13" stroke="#000" /><path d="M0 5940 L1744 5940" stroke-width="13" stroke="#000" /><use transform="translate(90, 5760) scale(0.72, 0.72)" xlink:href="#E050" /><use transform="translate(833, 5760) scale(0.72, 0.72)" xlink:href="#E0A3" /><path d="M1050 5732 L1050 5130" stroke-width="18" stroke="#000" /><path d="M1744 5220 L3185 5220" stroke-width="13" stroke="#000" /><path d="M1744 5400 L3185 5400" stroke-width="13" stroke="#000" /><path d="M1744 5580 L3185 5580" stroke-width="13" stroke="#000" /><path d="M1744 5760 L3185 5760" stroke-width="13" stroke="#000" /><path d="M1744 5940 L3185 5940" stroke-width="13" stroke="#000" /><use transform="translate(1932, 5760) scale(0.72, 0.72)" xlink:href="#E0A4" /><path d="M2149 5732 L2149 5130" stroke-width="18" stroke="#000" /><use transform="translate(2559, 5760) scale(0.72, 0.72)" xlink:href="#E0A4" /><path d="M2776 5732 L2776 5130" stroke-width="18" stroke="#000" /><path d="M3185 5220 L4284 5220" stroke-width="13" stroke="#000" /><path d="M3185 5400 L4284 5400" stroke-width="13" stroke="#000" /><path d="M3185 5580 L4284 5580" stroke-width="13" stroke="#000" /><path d="M3185 5760 L4284 5760" stroke-width="13" stroke="#000" /><path d="M3185 5940 L4284 5940" stroke-width="13" stroke="#000" /><use transform="translate(3373, 5670) scale(0.72, 0.72)" xlink:href="#E0A3" /><path d="M3590 5642 L3590 5040" stroke-width="18" stroke="#000" /><path d="M4284 5220 L5383 5220" stroke-width="13" stroke="#000" /><path d="M4284 5400 L5383 5400" stroke-width="13" stroke="#000" /><path d="M4284 5580 L5383 5580" stroke-width="13" stroke="#000" /><path d="M4284 5760 L5383 5760" stroke-width="13" stroke="#000" /><path d="M4284 5940 L5383 5940" stroke-width="13" stroke="#000" /><use transform="translate(4472, 5760) scale(0.72, 0.72)" xlink:href="#E0A3" /><path d="M4689 5732 L4689 5130" stroke-width="18" stroke="#000" /><path d="M5383 5220 L6765 5220" stroke-width="13" stroke="#000" /><path d="M5383 5400 L6765 5400" stroke-width="13" stroke="#000" /><path d="M5383 5580 L6765 5580" stroke-width="13" stroke="#000" /><path d="M5383 5760 L6765 5760" stroke-width="13" stroke="#000" /><path d="M5383 5940 L6765 5940" stroke-width="13" stroke="#000" /><use transform="translate(5571, 5490) scale(0.72, 0.72)" xlink:href="#E0A4" /><ellipse cx="5887" cy="5490" rx="36" ry="36" /><path d="M5580 5518 L5580 6120" stroke-width="18" stroke="#000" /><use transform="translate(6347, 5400) scale(0.72, 0.72)" xlink:href="#E0A4" /><path d="M6356 5428 L6356 6030" stroke-width="18" stroke="#000" /><use transform="translate(6347, 6030) scale(0.72, 0.72)" xlink:href="#E241" /><path d="M6765 5220 L8206 5220" stroke-width="13" stroke="#000" /><path d="M6765 5400 L8206 5400" stroke-width="13" stroke="#000" /><path d="M6765 5580 L8206 5580" stroke-width="13" stroke="#000" /><path d="M6765 5760 L8206 5760" stroke-width="13" stroke="#000" /><path d="M6765 5940 L8206 5940" stroke-width="13" stroke="#000" /><use transform="translate(6953, 5490) scale(0.72, 0.72)" xlink:href="#E0A4" /><path d="M6962 5518 L6962 6120" stroke-width="18" stroke="#000" /><use transform="translate(7580, 5580) scale(0.72, 0.72)" xlink:href="#E0A4" /><path d="M7589 5608 L7589 6180" stroke-width="18" stroke="#000" /><path d="M8206 5220 L9305 5220" stroke-width="13" stroke="#000" /><path d="M8206 5400 L9305 5400" stroke-width="13" stroke="#000" /><path d="M8206 5580 L9305 5580" stroke-width="13" stroke="#000" /><path d="M8206 5760 L9305 5760" stroke-width="13" stroke="#000" /><path d="M8206 5940 L9305 5940" stroke-width="13" stroke="#000" /><use transform="translate(8394, 5670) scale(0.72, 0.72)" xlink:href="#E0A3" /><path d="M8611 5642 L8611 5040" stroke-width="18" stroke="#000" /><path d="M0 7560 L1607 7560" stroke-width="13" stroke="#000" /><path d="M0 7740 L1607 7740" stroke-width="13" stroke="#000" /><path d="M0 7920 L1607 7920" stroke-width="13" stroke="#000" /><path d="M0 8100 L1607 8100" stroke-width="13" stroke="#000" /><path d="M0 8280 L1607 8280" stroke-width="13" stroke="#000" /><use transform="translate(90, 8100) scale(0.72, 0.72)" xlink:href="#E050" /><use transform="translate(830, 8100) scale(0.72, 0.72)" xlink:href="#E0A3" /><path d="M1047 8072 L1047 7470" stroke-width="18" stroke="#000" /><path d="M1607 7560 L2569 7560" stroke-width="13" stroke="#000" /><path d="M1607 7740 L2569 7740" stroke-width="13" stroke="#000" /><path d="M1607 7920 L2569 7920" stroke-width="13" stroke="#000" /><path d="M1607 8100 L2569 8100" stroke-width="13" stroke="#000" /><path d="M1607 8280 L2569 8280" stroke-width="13" stroke="#000" /><use transform="translate(1792, 8010) scale(0.72, 0.72)" xlink:href="#E0A3" /><path d="M2009 7982 L2009 7380" stroke-width="18" stroke="#000" /><path d="M2569 7560 L3531 7560" stroke-width="13" stroke="#000" /><path d="M2569 7740 L3531 7740" stroke-width="13" stroke="#000" /><path d="M2569 7920 L3531 7920" stroke-width="13" stroke="#000" /><path d="M2569 8100 L3531 8100" stroke-width="13" stroke="#000" /><path d="M2569 8280 L3531 8280" stroke-width="13" stroke="#000" /><use transform="translate(2754, 7830) scale(0.72, 0.72)" xlink:href="#E0A3" /><path d="M2763 7855 L2763 8460" stroke-width="18" stroke="#000" /><path d="M3531 7560 L4493 7560" stroke-width="13" stroke="#000" /><path d="M3531 7740 L4493 7740" stroke-width="13" stroke="#000" /><path d="M3531 7920 L4493 7920" stroke-width="13" stroke="#000" /><path d="M3531 8100 L4493 8100" stroke-width="13" stroke="#000" /><path d="M3531 8280 L4493 8280" stroke-width="13" stroke="#000" /><use transform="translate(3716, 8100) scale(0.72, 0.72)" xlink:href="#E0A3" /><path d="M3933 8072 L3933 7470" stroke-width="18" stroke="#000" /><path d="M4493 7560 L5455 7560" stroke-width="13" stroke="#000" /><path d="M4493 7740 L5455 7740" stroke-width="13" stroke="#000" /><path d="M4493 7920 L5455 7920" stroke-width="13" stroke="#000" /><path d="M4493 8100 L5455 8100" stroke-width="13" stroke="#000" /><path d="M4493 8280 L5455 8280" stroke-width="13" stroke="#000" /><use transform="translate(4678, 8190) scale(0.72, 0.72)" xlink:href="#E0A3" /><path d="M4895 8162 L4895 7560" stroke-width="18" stroke="#000" /><path d="M5455 7560 L6417 7560" stroke-width="13" stroke="#000" /><path d="M5455 7740 L6417 7740" stroke-width="13" stroke="#000" /><path d="M5455 7920 L6417 7920" stroke-width="13" stroke="#000" /><path d="M5455 8100 L6417 8100" stroke-width="13" stroke="#000" /><path d="M5455 8280 L6417 8280" stroke-width="13" stroke="#000" /><use transform="translate(5640, 8280) scale(0.72, 0.72)" xlink:href="#E0A3" /><path d="M5857 8252 L5857 7650" stroke-width="18" stroke="#000" /><path d="M6417 7560 L7379 7560" stroke-width="13" stroke="#000" /><path d="M6417 7740 L7379 7740" stroke-width="13" stroke="#000" /><path d="M6417 7920 L7379 7920" stroke-width="13" stroke="#000" /><path d="M6417 8100 L7379 8100" stroke-width="13" stroke="#000" /><path d="M6417 8280 L7379 8280" stroke-width="13" stroke="#000" /><use transform="translate(6602, 8370) scale(0.72, 0.72)" xlink:href="#E0A3" /><path d="M6819 8342 L6819 7740" stroke-width="18" stroke="#000" /><path d="M7379 7560 L8341 7560" stroke-width="13" stroke="#000" /><path d="M7379 7740 L8341 7740" stroke-width="13" stroke="#000" /><path d="M7379 7920 L8341 7920" stroke-width="13" stroke="#000" /><path d="M7379 8100 L8341 8100" stroke-width="13" stroke="#000" /><path d="M7379 8280 L8341 8280" stroke-width="13" stroke="#000" /><path d="M7516 8460 L7838 8460" stroke-width="22" stroke="#000" /><use transform="translate(7564, 8460) scale(0.72, 0.72)" xlink:href="#E0A3" /><path d="M7781 8432 L7781 7830" stroke-width="18" stroke="#000" /><path d="M8341 7560 L9303 7560" stroke-width="13" stroke="#000" /><path d="M8341 7740 L9303 7740" stroke-width="13" stroke="#000" /><path d="M8341 7920 L9303 7920" stroke-width="13" stroke="#000" /><path d="M8341 8100 L9303 8100" stroke-width="13" stroke="#000" /><path d="M8341 8280 L9303 8280" stroke-width="13" stroke="#000" /><path d="M8478 8460 L8800 8460" stroke-width="22" stroke="#000" /><use transform="translate(8526, 8460) scale(0.72, 0.72)" xlink:href="#E0A3" /><path d="M8743 8432 L8743 7830" stroke-width="18" stroke="#000" /><path d="M0 9900 L1969 9900" stroke-width="13" stroke="#000" /><path d="M0 10080 L1969 10080" stroke-width="13" stroke="#000" /><path d="M0 10260 L1969 10260" stroke-width="13" stroke="#000" /><path d="M0 10440 L1969 10440" stroke-width="13" stroke="#000" /><path d="M0 10620 L1969 10620" stroke-width="13" stroke="#000" /><use transform="translate(90, 10440) scale(0.72, 0.72)" xlink:href="#E050" /><use transform="translate(843, 10440) scale(0.72, 0.72)" xlink:href="#E0A3" /><path d="M1060 10412 L1060 9810" stroke-width="18" stroke="#000" /><path d="M1969 9900 L3715 9900" stroke-width="13" stroke="#000" /><path d="M1969 10080 L3715 10080" stroke-width="13" stroke="#000" /><path d="M1969 10260 L3715 10260" stroke-width="13" stroke="#000" /><path d="M1969 10440 L3715 10440" stroke-width="13" stroke="#000" /><path d="M1969 10620 L3715 10620" stroke-width="13" stroke="#000" /><use transform="translate(2167, 10440) scale(0.72, 0.72)" xlink:href="#E0A4" /><path d="M2384 10412 L2384 9810" stroke-width="18" stroke="#000" /><use transform="translate(2941, 10440) scale(0.72, 0.72)" xlink:href="#E0A4" /><path d="M3158 10412 L3158 9810" stroke-width="18" stroke="#000" /><path d="M3715 9900 L5389 9900" stroke-width="13" stroke="#000" /><path d="M3715 10080 L5389 10080" stroke-width="13" stroke="#000" /><path d="M3715 10260 L5389 10260" stroke-width="13" stroke="#000" /><path d="M3715 10440 L5389 10440" stroke-width="13" stroke="#000" /><path d="M3715 10620 L5389 10620" stroke-width="13" stroke="#000" /><use transform="translate(3913, 10350) scale(0.72, 0.72)" xlink:href="#E0A4" /><ellipse cx="4229" cy="10350" rx="36" ry="36" /><path d="M4130 10322 L4130 9720" stroke-width="18" stroke="#000" /><use transform="translate(4873, 10440) scale(0.72, 0.72)" xlink:href="#E0A4" /><path d="M5090 10412 L5090 9810" stroke-width="18" stroke="#000" /><use transform="translate(5081, 9810) scale(0.72, 0.72)" xlink:href="#E240" /><path d="M5389 9900 L6713 9900" stroke-width="13" stroke="#000" /><path d="M5389 10080 L6713 10080" stroke-width="13" stroke="#000" /><path d="M5389 10260 L6713 10260" stroke-width="13" stroke="#000" /><path d="M5389 10440 L6713 10440" stroke-width="13" stroke="#000" /><path d="M5389 10620 L6713 10620" stroke-width="13" stroke="#000" /><use transform="translate(5587, 10530) scale(0.72, 0.72)" xlink:href="#E0A3" /><path d="M5804 10502 L5804 9900" stroke-width="18" stroke="#000" /><path d="M6713 9900 L8332 9900" stroke-width="13" stroke="#000" /><path d="M6713 10080 L8332 10080" stroke-width="13" stroke="#000" /><path d="M6713 10260 L8332 10260" stroke-width="13" stroke="#000" /><path d="M6713 10440 L8332 10440" stroke-width="13" stroke="#000" /><path d="M6713 10620 L8332 10620" stroke-width="13" stroke="#000" /><use transform="translate(6911, 10440) scale(0.72, 0.72)" xlink:href="#E0A3" /><ellipse cx="7227" cy="10350" rx="36" ry="36" /><path d="M7128 10412 L7128 9810" stroke-width="18" stroke="#000" /><path d="M8332 9900 L9304 9900" stroke-width="13" stroke="#000" /><path d="M8332 10080 L9304 10080" stroke-width="13" stroke="#000" /><path d="M8332 10260 L9304 10260" stroke-width="13" stroke="#000" /><path d="M8332 10440 L9304 10440" stroke-width="13" stroke="#000" /><path d="M8332 10620 L9304 10620" stroke-width="13" stroke="#000" /><use transform="translate(8530, 10260) scale(0.72, 0.72)" xlink:href="#E4E5" /><path d="M0 12240 L1576 12240" stroke-width="13" stroke="#000" /><path d="M0 12420 L1576 12420" stroke-width="13" stroke="#000" /><path d="M0 12600 L1576 12600" stroke-width="13" stroke="#000" /><path d="M0 12780 L1576 12780" stroke-width="13" stroke="#000" /><path d="M0 12960 L1576 12960" stroke-width="13" stroke="#000" /><use transform="translate(90, 12780) scale(0.72, 0.72)" xlink:href="#E050" /><use transform="translate(829, 12780) scale(0.72, 0.72)" xlink:href="#E0A3" /><path d="M1046 12752 L1046 12150" stroke-width="18" stroke="#000" /><path d="M1576 12240 L2507 12240" stroke-width="13" stroke="#000" /><path d="M1576 12420 L2507 12420" stroke-width="13" stroke="#000" /><path d="M1576 12600 L2507 12600" stroke-width="13" stroke="#000" /><path d="M1576 12780 L2507 12780" stroke-width="13" stroke="#000" /><path d="M1576 12960 L2507 12960" stroke-width="13" stroke="#000" /><use transform="translate(1760, 12780) scale(0.72, 0.72)" xlink:href="#E0A3" /><path d="M1977 12752 L1977 12150" stroke-width="18" stroke="#000" /><path d="M2507 12240 L3438 12240" stroke-width="13" stroke="#000" /><path d="M2507 12420 L3438 12420" stroke-width="13" stroke="#000" /><path d="M2507 12600 L3438 12600" stroke-width="13" stroke="#000" /><path d="M2507 12780 L3438 12780" stroke-width="13" stroke="#000" /><path d="M2507 12960 L3438 12960" stroke-width="13" stroke="#000" /><use transform="translate(2691, 12690) scale(0.72, 0.72)" xlink:href="#E0A3" /><path d="M2908 12662 L2908 12060" stroke-width="18" stroke="#000" /><path d="M3438 12240 L4369 12240" stroke-width="13" stroke="#000" /><path d="M3438 12420 L4369 12420" stroke-width="13" stroke="#000" /><path d="M3438 12600 L4369 12600" stroke-width="13" stroke="#000" /><path d="M3438 12780 L4369 12780" stroke-width="13" stroke="#000" /><path d="M3438 12960 L4369 12960" stroke-width="13" stroke="#000" /><use transform="translate(3622, 12600) scale(0.72, 0.72)" xlink:href="#E0A3" /><path d="M3631 12625 L3631 13200" stroke-width="18" stroke="#000" /><path d="M4369 12240 L5300 12240" stroke-width="13" stroke="#000" /><path d="M4369 12420 L5300 12420" stroke-width="13" stroke="#000" /><path d="M4369 12600 L5300 12600" stroke-width="13" stroke="#000" /><path d="M4369 12780 L5300 12780" stroke-width="13" stroke="#000" /><path d="M4369 12960 L5300 12960" stroke-width="13" stroke="#000" /><use transform="translate(4553, 12510) scale(0.72, 0.72)" xlink:href="#E0A3" /><path d="M4562 12535 L4562 13140" stroke-width="18" stroke="#000" /><path d="M5300 12240 L6231 12240" stroke-width="13" stroke="#000" /><path d="M5300 12420 L6231 12420" stroke-width="13" stroke="#000" /><path d="M5300 12600 L6231 12600" stroke-width="13" stroke="#000" /><path d="M5300 12780 L6231 12780" stroke-width="13" stroke="#000" /><path d="M5300 12960 L6231 12960" stroke-width="13" stroke="#000" /><use transform="translate(5484, 12780) scale(0.72, 0.72)" xlink:href="#E0A3" /><path d="M5701 12752 L5701 12150" stroke-width="18" stroke="#000" /><path d="M6231 12240 L7443 12240" stroke-width="13" stroke="#000" /><path d="M6231 12420 L7443 12420" stroke-width="13" stroke="#000" /><path d="M6231 12600 L7443 12600" stroke-width="13" stroke="#000" /><path d="M6231 12780 L7443 12780" stroke-width="13" stroke="#000" /><path d="M6231 12960 L7443 12960" stroke-width="13" stroke="#000" /><use transform="translate(6415, 12690) scale(0.72, 0.72)" xlink:href="#E0A4" /><path d="M6632 12662 L6632 12060" stroke-width="18" stroke="#000" /><use transform="translate(6929, 12690) scale(0.72, 0.72)" xlink:href="#E0A4" /><path d="M7146 12662 L7146 12060" stroke-width="18" stroke="#000" /><path d="M7443 12240 L8374 12240" stroke-width="13" stroke="#000" /><path d="M7443 12420 L8374 12420" stroke-width="13" stroke="#000" /><path d="M7443 12600 L8374 12600" stroke-width="13" stroke="#000" /><path d="M7443 12780 L8374 12780" stroke-width="13" stroke="#000" /><path d="M7443 12960 L8374 12960" stroke-width="13" stroke="#000" /><use transform="translate(7627, 12780) scale(0.72, 0.72)" xlink:href="#E0A3" /><path d="M7844 12752 L7844 12150" stroke-width="18" stroke="#000" /><path d="M8374 12240 L9305 12240" stroke-width="13" stroke="#000" /><path d="M8374 12420 L9305 12420" stroke-width="13" stroke="#000" /><path d="M8374 12600 L9305 12600" stroke-width="13" stroke="#000" /><path d="M8374 12780 L9305 12780" stroke-width="13" stroke="#000" /><path d="M8374 12960 L9305 12960" stroke-width="13" stroke="#000" /><use transform="translate(8558, 12600) scale(0.72, 0.72)" xlink:href="#E0A3" /><path d="M8567 12625 L8567 13200" stroke-width="18" stroke="#000" /><path d="M0 14580 L1552 14580" stroke-width="13" stroke="#000" /><path d="M0 14760 L1552 14760" stroke-width="13" stroke="#000" /><path d="M0 14940 L1552 14940" stroke-width="13" stroke="#000" /><path d="M0 15120 L1552 15120" stroke-width="13" stroke="#000" /><path d="M0 15300 L1552 15300" stroke-width="13" stroke="#000" /><use transform="translate(90, 15120) scale(0.72, 0.72)" xlink:href="#E050" /><use transform="translate(829, 14850) scale(0.72, 0.72)" xlink:href="#E0A3" /><path d="M838 14875 L838 15480" stroke-width="18" stroke="#000" /><path d="M1552 14580 L2459 14580" stroke-width="13" stroke="#000" /><path d="M1552 14760 L2459 14760" stroke-width="13" stroke="#000" /><path d="M1552 14940 L2459 14940" stroke-width="13" stroke="#000" /><path d="M1552 15120 L2459 15120" stroke-width="13" stroke="#000" /><path d="M1552 15300 L2459 15300" stroke-width="13" stroke="#000" /><use transform="translate(1736, 14760) scale(0.72, 0.72)" xlink:href="#E0A3" /><path d="M1745 14785 L1745 15390" stroke-width="18" stroke="#000" /><path d="M2459 14580 L3366 14580" stroke-width="13" stroke="#000" /><path d="M2459 14760 L3366 14760" stroke-width="13" stroke="#000" /><path d="M2459 14940 L3366 14940" stroke-width="13" stroke="#000" /><path d="M2459 15120 L3366 15120" stroke-width="13" stroke="#000" /><path d="M2459 15300 L3366 15300" stroke-width="13" stroke="#000" /><use transform="translate(2643, 14760) scale(0.72, 0.72)" xlink:href="#E0A3" /><path d="M2652 14785 L2652 15390" stroke-width="18" stroke="#000" /><path d="M3366 14580 L4498 14580" stroke-width="13" stroke="#000" /><path d="M3366 14760 L4498 14760" stroke-width="13" stroke="#000" /><path d="M3366 14940 L4498 14940" stroke-width="13" stroke="#000" /><path d="M3366 15120 L4498 15120" stroke-width="13" stroke="#000" /><path d="M3366 15300 L4498 15300" stroke-width="13" stroke="#000" /><use transform="translate(3550, 14850) scale(0.72, 0.72)" xlink:href="#E0A4" /><ellipse cx="3866" cy="14850" rx="36" ry="36" /><path d="M3559 14878 L3559 15480" stroke-width="18" stroke="#000" /><use transform="translate(4166, 14940) scale(0.72, 0.72)" xlink:href="#E0A4" /><path d="M4175 14968 L4175 15540" stroke-width="18" stroke="#000" /><use transform="translate(4166, 15540) scale(0.72, 0.72)" xlink:href="#E241" /><path d="M4498 14580 L5405 14580" stroke-width="13" stroke="#000" /><path d="M4498 14760 L5405 14760" stroke-width="13" stroke="#000" /><path d="M4498 14940 L5405 14940" stroke-width="13" stroke="#000" /><path d="M4498 15120 L5405 15120" stroke-width="13" stroke="#000" /><path d="M4498 15300 L5405 15300" stroke-width="13" stroke="#000" /><use transform="translate(4682, 15030) scale(0.72, 0.72)" xlink:href="#E0A3" /><path d="M4899 15002 L4899 14400" stroke-width="18" stroke="#000" /><path d="M5405 14580 L6312 14580" stroke-width="13" stroke="#000" /><path d="M5405 14760 L6312 14760" stroke-width="13" stroke="#000" /><path d="M5405 14940 L6312 14940" stroke-width="13" stroke="#000" /><path d="M5405 15120 L6312 15120" stroke-width="13" stroke="#000" /><path d="M5405 15300 L6312 15300" stroke-width="13" stroke="#000" /><use transform="translate(5589, 15120) scale(0.72, 0.72)" xlink:href="#E0A3" /><path d="M5806 15092 L5806 14490" stroke-width="18" stroke="#000" /><path d="M6312 14580 L7526 14580" stroke-width="13" stroke="#000" /><path d="M6312 14760 L7526 14760" stroke-width="13" stroke="#000" /><path d="M6312 14940 L7526 14940" stroke-width="13" stroke="#000" /><path d="M6312 15120 L7526 15120" stroke-width="13" stroke="#000" /><path d="M6312 15300 L7526 15300" stroke-width="13" stroke="#000" /><use transform="translate(6496, 15120) scale(0.72, 0.72)" xlink:href="#E0A4" /><ellipse cx="6812" cy="15030" rx="36" ry="36" /><path d="M6713 15092 L6713 14490" stroke-width="18" stroke="#000" /><use transform="translate(7112, 15210) scale(0.72, 0.72)" xlink:href="#E0A4" /><path d="M7329 15182 L7329 14580" stroke-width="18" stroke="#000" /><use transform="translate(7320, 14580) scale(0.72, 0.72)" xlink:href="#E240" /><path d="M7526 14580 L8623 14580" stroke-width="13" stroke="#000" /><path d="M7526 14760 L8623 14760" stroke-width="13" stroke="#000" /><path d="M7526 14940 L8623 14940" stroke-width="13" stroke="#000" /><path d="M7526 15120 L8623 15120" stroke-width="13" stroke="#000" /><path d="M7526 15300 L8623 15300" stroke-width="13" stroke="#000" /><use transform="translate(7710, 15390) scale(0.72, 0.72)" xlink:href="#E0A3" /><ellipse cx="8026" cy="15390" rx="36" ry="36" /><path d="M7927 15362 L7927 14760" stroke-width="18" stroke="#000" /><path d="M8623 14580 L9305 14580" stroke-width="13" stroke="#000" /><path d="M8623 14760 L9305 14760" stroke-width="13" stroke="#000" /><path d="M8623 14940 L9305 14940" stroke-width="13" stroke="#000" /><path d="M8623 15120 L9305 15120" stroke-width="13" stroke="#000" /><path d="M8623 15300 L9305 15300" stroke-width="13" stroke="#000" /><use transform="translate(8807, 14940) scale(0.72, 0.72)" xlink:href="#E4E5" /><path d="M0 16920 L1822 16920" stroke-width="13" stroke="#000" /><path d="M0 17100 L1822 17100" stroke-width="13" stroke="#000" /><path d="M0 17280 L1822 17280" stroke-width="13" stroke="#000" /><path d="M0 17460 L1822 17460" stroke-width="13" stroke="#000" /><path d="M0 17640 L1822 17640" stroke-width="13" stroke="#000" /><use transform="translate(90, 17460) scale(0.72, 0.72)" xlink:href="#E050" /><use transform="translate(836, 17640) scale(0.72, 0.72)" xlink:href="#E0A3" /><path d="M1053 17612 L1053 17010" stroke-width="18" stroke="#000" /><path d="M1822 16920 L2999 16920" stroke-width="13" stroke="#000" /><path d="M1822 17100 L2999 17100" stroke-width="13" stroke="#000" /><path d="M1822 17280 L2999 17280" stroke-width="13" stroke="#000" /><path d="M1822 17460 L2999 17460" stroke-width="13" stroke="#000" /><path d="M1822 17640 L2999 17640" stroke-width="13" stroke="#000" /><use transform="translate(2013, 17550) scale(0.72, 0.72)" xlink:href="#E0A3" /><path d="M2230 17522 L2230 16920" stroke-width="18" stroke="#000" /><path d="M2999 16920 L4645 16920" stroke-width="13" stroke="#000" /><path d="M2999 17100 L4645 17100" stroke-width="13" stroke="#000" /><path d="M2999 17280 L4645 17280" stroke-width="13" stroke="#000" /><path d="M2999 17460 L4645 17460" stroke-width="13" stroke="#000" /><path d="M2999 17640 L4645 17640" stroke-width="13" stroke="#000" /><use transform="translate(3190, 17460) scale(0.72, 0.72)" xlink:href="#E0A2" /><path d="M4645 16920 L5822 16920" stroke-width="13" stroke="#000" /><path d="M4645 17100 L5822 17100" stroke-width="13" stroke="#000" /><path d="M4645 17280 L5822 17280" stroke-width="13" stroke="#000" /><path d="M4645 17460 L5822 17460" stroke-width="13" stroke="#000" /><path d="M4645 17640 L5822 17640" stroke-width="13" stroke="#000" /><use transform="translate(4836, 17640) scale(0.72, 0.72)" xlink:href="#E0A3" /><path d="M5053 17612 L5053 17010" stroke-width="18" stroke="#000" /><path d="M5822 16920 L6999 16920" stroke-width="13" stroke="#000" /><path d="M5822 17100 L6999 17100" stroke-width="13" stroke="#000" /><path d="M5822 17280 L6999 17280" stroke-width="13" stroke="#000" /><path d="M5822 17460 L6999 17460" stroke-width="13" stroke="#000" /><path d="M5822 17640 L6999 17640" stroke-width="13" stroke="#000" /><use transform="translate(6013, 17550) scale(0.72, 0.72)" xlink:href="#E0A3" /><path d="M6230 17522 L6230 16920" stroke-width="18" stroke="#000" /><path d="M6999 16920 L8434 16920" stroke-width="13" stroke="#000" /><path d="M6999 17100 L8434 17100" stroke-width="13" stroke="#000" /><path d="M6999 17280 L8434 17280" stroke-width="13" stroke="#000" /><path d="M6999 17460 L8434 17460" stroke-width="13" stroke="#000" /><path d="M6999 17640 L8434 17640" stroke-width="13" stroke="#000" /><use transform="translate(7190, 17460) scale(0.72, 0.72)" xlink:href="#E0A3" /><ellipse cx="7506" cy="17370" rx="36" ry="36" /><path d="M7407 17432 L7407 16830" stroke-width="18" stroke="#000" /><path d="M8434 16920 L9303 16920" stroke-width="13" stroke="#000" /><path d="M8434 17100 L9303 17100" stroke-width="13" stroke="#000" /><path d="M8434 17280 L9303 17280" stroke-width="13" stroke="#000" /><path d="M8434 17460 L9303 17460" stroke-width="13" stroke="#000" /><path d="M8434 17640 L9303 17640" stroke-width="13" stroke="#000" /><use transform="translate(8625, 17280) scale(0.72, 0.72)" xlink:href="#E4E5" /><path d="M0 19260 L1820 19260" stroke-width="13" stroke="#000" /><path d="M0 19440 L1820 19440" stroke-width="13" stroke="#000" /><path d="M0 19620 L1820 19620" stroke-width="13" stroke="#000" /><path d="M0 19800 L1820 19800" stroke-width="13" stroke="#000" /><path d="M0 19980 L1820 19980" stroke-width="13" stroke="#000" /><use transform="translate(90, 19800) scale(0.72, 0.72)" xlink:href="#E050" /><use transform="translate(836, 20070) scale(0.72, 0.72)" xlink:href="#E0A3" /><path d="M1053 20042 L1053 19440" stroke-width="18" stroke="#000" /><path d="M1820 19260 L2995 19260" stroke-width="13" stroke="#000" /><path d="M1820 19440 L2995 19440" stroke-width="13" stroke="#000" /><path d="M1820 19620 L2995 19620" stroke-width="13" stroke="#000" /><path d="M1820 19800 L2995 19800" stroke-width="13" stroke="#000" /><path d="M1820 19980 L2995 19980" stroke-width="13" stroke="#000" /><use transform="translate(2011, 19890) scale(0.72, 0.72)" xlink:href="#E0A3" /><path d="M2228 19862 L2228 19260" stroke-width="18" stroke="#000" /><path d="M2995 19260 L4170 19260" stroke-width="13" stroke="#000" /><path d="M2995 19440 L4170 19440" stroke-width="13" stroke="#000" /><path d="M2995 19620 L4170 19620" stroke-width="13" stroke="#000" /><path d="M2995 19800 L4170 19800" stroke-width="13" stroke="#000" /><path d="M2995 19980 L4170 19980" stroke-width="13" stroke="#000" /><use transform="translate(3186, 19980) scale(0.72, 0.72)" xlink:href="#E0A3" /><path d="M3403 19952 L3403 19350" stroke-width="18" stroke="#000" /><path d="M4170 19260 L5345 19260" stroke-width="13" stroke="#000" /><path d="M4170 19440 L5345 19440" stroke-width="13" stroke="#000" /><path d="M4170 19620 L5345 19620" stroke-width="13" stroke="#000" /><path d="M4170 19800 L5345 19800" stroke-width="13" stroke="#000" /><path d="M4170 19980 L5345 19980" stroke-width="13" stroke="#000" /><use transform="translate(4361, 20070) scale(0.72, 0.72)" xlink:href="#E0A3" /><path d="M4578 20042 L4578 19440" stroke-width="18" stroke="#000" /><path d="M5345 19260 L6520 19260" stroke-width="13" stroke="#000" /><path d="M5345 19440 L6520 19440" stroke-width="13" stroke="#000" /><path d="M5345 19620 L6520 19620" stroke-width="13" stroke="#000" /><path d="M5345 19800 L6520 19800" stroke-width="13" stroke="#000" /><path d="M5345 19980 L6520 19980" stroke-width="13" stroke="#000" /><use transform="translate(5536, 19980) scale(0.72, 0.72)" xlink:href="#E0A3" /><path d="M5753 19952 L5753 19350" stroke-width="18" stroke="#000" /><path d="M6520 19260 L7695 19260" stroke-width="13" stroke="#000" /><path d="M6520 19440 L7695 19440" stroke-width="13" stroke="#000" /><path d="M6520 19620 L7695 19620" stroke-width="13" stroke="#000" /><path d="M6520 19800 L7695 19800" stroke-width="13" stroke="#000" /><path d="M6520 19980 L7695 19980" stroke-width="13" stroke="#000" /><use transform="translate(6711, 20070) scale(0.72, 0.72)" xlink:href="#E0A3" /><path d="M6928 20042 L6928 19440" stroke-width="18" stroke="#000" /><path d="M7695 19260 L9303 19260" stroke-width="13" stroke="#000" /><path d="M7695 19440 L9303 19440" stroke-width="13" stroke="#000" /><path d="M7695 19620 L9303 19620" stroke-width="13" stroke="#000" /><path d="M7695 19800 L9303 19800" stroke-width="13" stroke="#000" /><path d="M7695 19980 L9303 19980" stroke-width="13" stroke="#000" /><path d="M7838 20160 L8160 20160" stroke-width="22" stroke="#000" /><use transform="translate(7886, 20160) scale(0.72, 0.72)" xlink:href="#E0A3" /><ellipse cx="8202" cy="20070" rx="36" ry="36" /><path d="M8103 20132 L8103 19530" stroke-width="18" stroke="#000" /><path d="M9128 19260 L9128 19980" stroke-width="27" stroke="#000" /><path d="M9258 19260 L9258 19980" stroke-width="90" stroke="#000" /></g></svg>
