<svg xmlns="http://www.w3.org/2000/svg" xmlns:xlink="http://www.w3.org/1999/xlink" viewBox="0 0 9500 11760"><defs><g id="E050"><path transform="scale(1,-1)" d="M441 -245c-23 -4 -48 -6 -76 -6c-59 0 -102 7 -130 20c-88 42 -150 93 -187 154c-26 44 -43 103 -48 176c0 6 -1 13 -1 19c0 54 15 111 45 170c29 57 65 106 110 148s96 85 153 127c-3 16 -8 46 -13 92c-4 43 -5 73 -5 89c0 117 16 172 69 257c34 54 64 82 89 82 c21 0 43 -30 69 -92s39 -115 41 -159v-15c0 -109 -21 -162 -67 -241c-13 -20 -63 -90 -98 -118c-13 -9 -25 -19 -37 -29l31 -181c8 1 18 2 28 2c58 0 102 -12 133 -35c59 -43 92 -104 98 -184c1 -7 1 -15 1 -22c0 -123 -87 -209 -181 -248c8 -57 17 -110 25 -162 c5 -31 6 -58 6 -80c0 -30 -5 -53 -14 -70c-35 -64 -88 -99 -158 -103c-5 0 -11 -1 -16 -1c-37 0 -72 10 -108 27c-50 24 -77 59 -80 105v11c0 29 7 55 20 76c18 28 45 42 79 44h6c49 0 93 -42 97 -87v-9c0 -51 -34 -86 -105 -106c17 -24 51 -36 102 -36c62 0 116 43 140 85 c9 16 13 41 13 74c0 20 -1 42 -5 67c-8 53 -18 106 -26 159zM461 939c-95 0 -135 -175 -135 -286c0 -24 2 -48 5 -71c50 39 92 82 127 128c40 53 60 100 60 140v8c-4 53 -22 81 -55 81h-2zM406 119l54 -326c73 25 110 78 110 161c0 7 0 15 -1 23c-7 95 -57 142 -151 142h-12 zM382 117c-72 -2 -128 -47 -128 -120v-7c2 -46 43 -99 75 -115c-3 -2 -7 -5 -10 -10c-70 33 -116 88 -123 172v11c0 68 44 126 88 159c23 17 49 29 78 36l-29 170c-21 -13 -52 -37 -92 -73c-50 -44 -86 -84 -109 -119c-45 -69 -67 -130 -67 -182v-13c5 -68 35 -127 93 -176 s125 -73 203 -73c25 0 50 3 75 9c-19 111 -36 221 -54 331z" /></g><g id="E262"><path transform="scale(1,-1)" d="M136 186v169h17v-164l44 14v-91l-44 -14v-165l44 12v-91l-44 -13v-155h-17v150l-76 -22v-155h-17v149l-43 -13v90l43 14v167l-43 -14v92l43 13v169h17v-163zM60 73v-167l76 22v168z" /></g><g id="E084"><path transform="scale(1,-1)" d="M20 -78c84 97 114 180 134 329h170c-13 -32 -82 -132 -99 -151l-84 -97c-33 -36 -59 -63 -80 -81h162v102l127 123v-225h57v-39h-57v-34c0 -43 19 -65 57 -65v-34h-244v36c48 0 60 26 60 70v27h-203v39z" /></g><g id="E0A4"><path transform="scale(1,-1)" d="M0 -39c0 68 73 172 200 172c66 0 114 -37 114 -95c0 -84 -106 -171 -218 -171c-64 0 -96 30 -96 94z" /></g><g id="E0A3"><path transform="scale(1,-1)" d="M278 64c0 22 -17 39 -43 39c-12 0 -26 -3 -41 -10c-85 -43 -165 -94 -165 -156c5 -25 15 -32 49 -32c67 11 200 95 200 159zM0 -36c0 68 73 174 200 174c66 0 114 -39 114 -97c0 -84 -106 -173 -218 -173c-64 0 -96 32 -96 96z" /></g></defs><g transform="translate(100, 300)"><path d="M0 540 L5863 540" stroke-width="13" stroke="#000" /><path d="M0 720 L5863 720" stroke-width="13" stroke="#000" /><path d="M0 900 L5863 900" stroke-width="13" stroke="#000" /><path d="M0 1080 L5863 1080" stroke-width="13" stroke="#000" /><path d="M0 1260 L5863 1260" stroke-width="13" stroke="#000" /><use transform="translate(90, 1080) scale(0.72, 0.72)" xlink:href="#E050" /><use transform="translate(735, 540) scale(0.72, 0.72)" xlink:href="#E262" /><use transform="translate(913, 810) scale(0.72, 0.72)" xlink:href="#E262" /><use transform="translate(1220, 720) scale(0.72, 0.72)" xlink:href="#E084" /><use transform="translate(1220, 1080) scale(0.72, 0.72)" xlink:href="#E084" /><use transform="translate(1806, 1170) scale(0.72, 0.72)" xlink:href="#E0A4" /><path d="M2023 1142 L2023 540" stroke-width="18" stroke="#000" /><polygon points="2947,540 3587,450 3587,540 2947,630" /><use transform="translate(2739, 1170) scale(0.72, 0.72)" xlink:href="#E0A4" /><path d="M2956 1142 L2956 558" stroke-width="18" stroke="#000" /><use transform="translate(3361, 1080) scale(0.72, 0.72)" xlink:href="#E0A4" /><path d="M3578 1052 L3578 468" stroke-width="18" stroke="#000" /><use transform="translate(3984, 990) scale(0.72, 0.72)" xlink:href="#E0A4" /><path d="M4201 962 L4201 360" stroke-width="18" stroke="#000" /><use transform="translate(4917, 990) scale(0.72, 0.72)" xlink:href="#E0A4" /><path d="M5134 962 L5134 360" stroke-width="18" stroke="#000" /><path d="M5850 540 L5850 1260" stroke-width="27" stroke="#000" /><path d="M5863 540 L9301 540" stroke-width="13" stroke="#000" /><path d="M5863 720 L9301 720" stroke-width="13" stroke="#000" /><path d="M5863 900 L9301 900" stroke-width="13" stroke="#000" /><path d="M5863 1080 L9301 1080" stroke-width="13" stroke="#000" /><path d="M5863 1260 L9301 1260" stroke-width="13" stroke="#000" /><use transform="translate(6067, 1350) scale(0.72, 0.72)" xlink:href="#E0A4" /><path d="M6284 1322 L6284 720" stroke-width="18" stroke="#000" /><use transform="translate(7000, 1260) scale(0.72, 0.72)" xlink:href="#E0A4" /><path d="M7217 1232 L7217 630" stroke-width="18" stroke="#000" /><use transform="translate(7933, 1170) scale(0.72, 0.72)" xlink:href="#E0A3" /><path d="M8150 1142 L8150 540" stroke-width="18" stroke="#000" /><path d="M9288 540 L9288 1260" stroke-width="27" stroke="#000" /><path d="M0 2880 L3350 2880" stroke-width="13" stroke="#000" /><path d="M0 3060 L3350 3060" stroke-width="13" stroke="#000" /><path d="M0 3240 L3350 3240" stroke-width="13" stroke="#000" /><path d="M0 3420 L3350 3420" stroke-width="13" stroke="#000" /><path d="M0 3600 L3350 3600" stroke-width="13" stroke="#000" /><use transform="translate(90, 3420) scale(0.72, 0.72)" xlink:href="#E050" /><use transform="translate(735, 2880) scale(0.72, 0.72)" xlink:href="#E262" /><use transform="translate(913, 3150) scale(0.72, 0.72)" xlink:href="#E262" /><use transform="translate(1316, 3240) scale(0.72, 0.72)" xlink:href="#E0A4" /><path d="M1325 3268 L1325 3840" stroke-width="18" stroke="#000" /><use transform="translate(1821, 3150) scale(0.72, 0.72)" xlink:href="#E0A4" /><path d="M1830 3178 L1830 3780" stroke-width="18" stroke="#000" /><use transform="translate(2326, 3060) scale(0.72, 0.72)" xlink:href="#E0A4" /><path d="M2335 3088 L2335 3690" stroke-width="18" stroke="#000" /><use transform="translate(2831, 3510) scale(0.72, 0.72)" xlink:href="#E0A4" /><path d="M3048 3482 L3048 2880" stroke-width="18" stroke="#000" /><path d="M3337 2880 L3337 3600" stroke-width="27" stroke="#000" /><path d="M3350 2880 L5001 2880" stroke-width="13" stroke="#000" /><path d="M3350 3060 L5001 3060" stroke-width="13" stroke="#000" /><path d="M3350 3240 L5001 3240" stroke-width="13" stroke="#000" /><path d="M3350 3420 L5001 3420" stroke-width="13" stroke="#000" /><path d="M3350 3600 L5001 3600" stroke-width="13" stroke="#000" /><use transform="translate(3522, 3600) scale(0.72, 0.72)" xlink:href="#E0A3" /><path d="M3739 3572 L3739 2970" stroke-width="18" stroke="#000" /><use transform="translate(4255, 3690) scale(0.72, 0.72)" xlink:href="#E0A3" /><path d="M4472 3662 L4472 3060" stroke-width="18" stroke="#000" /><path d="M4988 2880 L4988 3600" stroke-width="27" stroke="#000" /><path d="M5001 2880 L7374 2880" stroke-width="13" stroke="#000" /><path d="M5001 3060 L7374 3060" stroke-width="13" stroke="#000" /><path d="M5001 3240 L7374 3240" stroke-width="13" stroke="#000" /><path d="M5001 3420 L7374 3420" stroke-width="13" stroke="#000" /><path d="M5001 3600 L7374 3600" stroke-width="13" stroke="#000" /><use transform="translate(5173, 3510) scale(0.72, 0.72)" xlink:href="#E0A4" /><path d="M5390 3482 L5390 2880" stroke-width="18" stroke="#000" /><polygon points="5886,2790 6241,2745 6241,2835 5886,2880" /><use transform="translate(5678, 3510) scale(0.72, 0.72)" xlink:href="#E0A4" /><path d="M5895 3482 L5895 2808" stroke-width="18" stroke="#000" /><use transform="translate(6015, 3420) scale(0.72, 0.72)" xlink:href="#E0A4" /><path d="M6232 3392 L6232 2763" stroke-width="18" stroke="#000" /><use transform="translate(6351, 3330) scale(0.72, 0.72)" xlink:href="#E0A4" /><path d="M6568 3302 L6568 2700" stroke-width="18" stroke="#000" /><use transform="translate(6856, 3330) scale(0.72, 0.72)" xlink:href="#E0A4" /><path d="M7073 3302 L7073 2700" stroke-width="18" stroke="#000" /><path d="M7361 2880 L7361 3600" stroke-width="27" stroke="#000" /><path d="M7374 2880 L9302 2880" stroke-width="13" stroke="#000" /><path d="M7374 3060 L9302 3060" stroke-width="13" stroke="#000" /><path d="M7374 3240 L9302 3240" stroke-width="13" stroke="#000" /><path d="M7374 3420 L9302 3420" stroke-width="13" stroke="#000" /><path d="M7374 3600 L9302 3600" stroke-width="13" stroke="#000" /><use transform="translate(7546, 3690) scale(0.72, 0.72)" xlink:href="#E0A4" /><path d="M7763 3662 L7763 3060" stroke-width="18" stroke="#000" /><use transform="translate(8051, 3600) scale(0.72, 0.72)" xlink:href="#E0A4" /><path d="M8268 3572 L8268 2970" stroke-width="18" stroke="#000" /><use transform="translate(8556, 3510) scale(0.72, 0.72)" xlink:href="#E0A3" /><path d="M8773 3482 L8773 2880" stroke-width="18" stroke="#000" /><path d="M9289 2880 L9289 3600" stroke-width="27" stroke="#000" /><path d="M0 5220 L4264 5220" stroke-width="13" stroke="#000" /><path d="M0 5400 L4264 5400" stroke-width="13" stroke="#000" /><path d="M0 5580 L4264 5580" stroke-width="13" stroke="#000" /><path d="M0 5760 L4264 5760" stroke-width="13" stroke="#000" /><path d="M0 5940 L4264 5940" stroke-width="13" stroke="#000" /><use transform="translate(90, 5760) scale(0.72, 0.72)" xlink:href="#E050" /><use transform="translate(735, 5220) scale(0.72, 0.72)" xlink:href="#E262" /><use transform="translate(913, 5490) scale(0.72, 0.72)" xlink:href="#E262" /><use transform="translate(1319, 5580) scale(0.72, 0.72)" xlink:href="#E0A4" /><path d="M1328 5608 L1328 6180" stroke-width="18" stroke="#000" /><use transform="translate(2052, 5490) scale(0.72, 0.72)" xlink:href="#E0A4" /><path d="M2061 5518 L2061 6120" stroke-width="18" stroke="#000" /><use transform="translate(2785, 5400) scale(0.72, 0.72)" xlink:href="#E0A4" /><path d="M2794 5428 L2794 6030" stroke-width="18" stroke="#000" /><use transform="translate(3518, 5850) scale(0.72, 0.72)" xlink:href="#E0A4" /><path d="M3735 5822 L3735 5220" stroke-width="18" stroke="#000" /><path d="M4251 5220 L4251 5940" stroke-width="27" stroke="#000" /><path d="M4264 5220 L6582 5220" stroke-width="13" stroke="#000" /><path d="M4264 5400 L6582 5400" stroke-width="13" stroke="#000" /><path d="M4264 5580 L6582 5580" stroke-width="13" stroke="#000" /><path d="M4264 5760 L6582 5760" stroke-width="13" stroke="#000" /><path d="M4264 5940 L6582 5940" stroke-width="13" stroke="#000" /><use transform="translate(4439, 5940) scale(0.72, 0.72)" xlink:href="#E0A3" /><path d="M4656 5912 L4656 5310" stroke-width="18" stroke="#000" /><use transform="translate(5504, 6030) scale(0.72, 0.72)" xlink:href="#E0A3" /><path d="M5721 6002 L5721 5400" stroke-width="18" stroke="#000" /><path d="M6569 5220 L6569 5940" stroke-width="27" stroke="#000" /><path d="M6582 5220 L9301 5220" stroke-width="13" stroke="#000" /><path d="M6582 5400 L9301 5400" stroke-width="13" stroke="#000" /><path d="M6582 5580 L9301 5580" stroke-width="13" stroke="#000" /><path d="M6582 5760 L9301 5760" stroke-width="13" stroke="#000" /><path d="M6582 5940 L9301 5940" stroke-width="13" stroke="#000" /><use transform="translate(6757, 5670) scale(0.72, 0.72)" xlink:href="#E0A4" /><path d="M6974 5642 L6974 5040" stroke-width="18" stroke="#000" /><use transform="translate(7490, 5940) scale(0.72, 0.72)" xlink:href="#E0A4" /><path d="M7707 5912 L7707 5310" stroke-width="18" stroke="#000" /><use transform="translate(8223, 5850) scale(0.72, 0.72)" xlink:href="#E0A3" /><path d="M8440 5822 L8440 5220" stroke-width="18" stroke="#000" /><path d="M9288 5220 L9288 5940" stroke-width="27" stroke="#000" /><path d="M0 7560 L3644 7560" stroke-width="13" stroke="#000" /><path d="M0 7740 L3644 7740" stroke-width="13" stroke="#000" /><path d="M0 7920 L3644 7920" stroke-width="13" stroke="#000" /><path d="M0 8100 L3644 8100" stroke-width="13" stroke="#000" /><path d="M0 8280 L3644 8280" stroke-width="13" stroke="#000" /><use transform="translate(90, 8100) scale(0.72, 0.72)" xlink:href="#E050" /><use transform="translate(735, 7560) scale(0.72, 0.72)" xlink:href="#E262" /><use transform="translate(913, 7830) scale(0.72, 0.72)" xlink:href="#E262" /><use transform="translate(1329, 7920) scale(0.72, 0.72)" xlink:href="#E0A4" /><path d="M1338 7948 L1338 8520" stroke-width="18" stroke="#000" /><use transform="translate(1996, 8190) scale(0.72, 0.72)" xlink:href="#E0A4" /><path d="M2213 8162 L2213 7560" stroke-width="18" stroke="#000" /><use transform="translate(2663, 8100) scale(0.72, 0.72)" xlink:href="#E0A3" /><path d="M2880 8072 L2880 7470" stroke-width="18" stroke="#000" /><use transform="translate(2477, 8100) scale(0.72, 0.72)" xlink:href="#E262" /><path d="M3631 7560 L3631 8280" stroke-width="27" stroke="#000" /><path d="M3644 7560 L6802 7560" stroke-width="13" stroke="#000" /><path d="M3644 7740 L6802 7740" stroke-width="13" stroke="#000" /><path d="M3644 7920 L6802 7920" stroke-width="13" stroke="#000" /><path d="M3644 8100 L6802 8100" stroke-width="13" stroke="#000" /><path d="M3644 8280 L6802 8280" stroke-width="13" stroke="#000" /><use transform="translate(3829, 8010) scale(0.72, 0.72)" xlink:href="#E0A4" /><path d="M4046 7982 L4046 7380" stroke-width="18" stroke="#000" /><use transform="translate(4496, 8280) scale(0.72, 0.72)" xlink:href="#E0A4" /><path d="M4713 8252 L4713 7650" stroke-width="18" stroke="#000" /><polygon points="5371,7470 5904,7425 5904,7515 5371,7560" /><use transform="translate(5163, 8190) scale(0.72, 0.72)" xlink:href="#E0A4" /><path d="M5380 8162 L5380 7488" stroke-width="18" stroke="#000" /><use transform="translate(5678, 8100) scale(0.72, 0.72)" xlink:href="#E0A4" /><path d="M5895 8072 L5895 7443" stroke-width="18" stroke="#000" /><use transform="translate(5492, 8100) scale(0.72, 0.72)" xlink:href="#E262" /><use transform="translate(6122, 8010) scale(0.72, 0.72)" xlink:href="#E0A4" /><path d="M6339 7982 L6339 7380" stroke-width="18" stroke="#000" /><path d="M6789 7560 L6789 8280" stroke-width="27" stroke="#000" /><path d="M6802 7560 L9302 7560" stroke-width="13" stroke="#000" /><path d="M6802 7740 L9302 7740" stroke-width="13" stroke="#000" /><path d="M6802 7920 L9302 7920" stroke-width="13" stroke="#000" /><path d="M6802 8100 L9302 8100" stroke-width="13" stroke="#000" /><path d="M6802 8280 L9302 8280" stroke-width="13" stroke="#000" /><use transform="translate(6987, 8010) scale(0.72, 0.72)" xlink:href="#E0A4" /><path d="M7204 7982 L7204 7380" stroke-width="18" stroke="#000" /><use transform="translate(7654, 8100) scale(0.72, 0.72)" xlink:href="#E0A4" /><path d="M7871 8072 L7871 7470" stroke-width="18" stroke="#000" /><use transform="translate(7468, 8100) scale(0.72, 0.72)" xlink:href="#E262" /><use transform="translate(8321, 8010) scale(0.72, 0.72)" xlink:href="#E0A3" /><path d="M8538 7982 L8538 7380" stroke-width="18" stroke="#000" /><path d="M9289 7560 L9289 8280" stroke-width="27" stroke="#000" /><path d="M0 9900 L3937 9900" stroke-width="13" stroke="#000" /><path d="M0 10080 L3937 10080" stroke-width="13" stroke="#000" /><path d="M0 10260 L3937 10260" stroke-width="13" stroke="#000" /><path d="M0 10440 L3937 10440" stroke-width="13" stroke="#000" /><path d="M0 10620 L3937 10620" stroke-width="13" stroke="#000" /><use transform="translate(90, 10440) scale(0.72, 0.72)" xlink:href="#E050" /><use transform="translate(735, 9900) scale(0.72, 0.72)" xlink:href="#E262" /><use transform="translate(913, 10170) scale(0.72, 0.72)" xlink:href="#E262" /><use transform="translate(1324, 10260) scale(0.72, 0.72)" xlink:href="#E0A4" /><path d="M1333 10288 L1333 10860" stroke-width="18" stroke="#000" /><use transform="translate(1974, 10170) scale(0.72, 0.72)" xlink:href="#E0A4" /><path d="M1983 10198 L1983 10800" stroke-width="18" stroke="#000" /><use transform="translate(2624, 10080) scale(0.72, 0.72)" xlink:href="#E0A4" /><path d="M2633 10108 L2633 10710" stroke-width="18" stroke="#000" /><use transform="translate(3274, 10530) scale(0.72, 0.72)" xlink:href="#E0A4" /><path d="M3491 10502 L3491 9900" stroke-width="18" stroke="#000" /><path d="M3924 9900 L3924 10620" stroke-width="27" stroke="#000" /><path d="M3937 9900 L6180 9900" stroke-width="13" stroke="#000" /><path d="M3937 10080 L6180 10080" stroke-width="13" stroke="#000" /><path d="M3937 10260 L6180 10260" stroke-width="13" stroke="#000" /><path d="M3937 10440 L6180 10440" stroke-width="13" stroke="#000" /><path d="M3937 10620 L6180 10620" stroke-width="13" stroke="#000" /><use transform="translate(4117, 10620) scale(0.72, 0.72)" xlink:href="#E0A3" /><path d="M4334 10592 L4334 9990" stroke-width="18" stroke="#000" /><use transform="translate(5061, 10710) scale(0.72, 0.72)" xlink:href="#E0A3" /><path d="M5278 10682 L5278 10080" stroke-width="18" stroke="#000" /><path d="M6005 9900 L6005 10620" stroke-width="27" stroke="#000" /><path d="M6135 9900 L6135 10620" stroke-width="90" stroke="#000" /></g></svg>
